<?xml version="1.0" encoding="utf-8"?>
<!-- Generator: Adobe Illustrator 16.0.0, SVG Export Plug-In . SVG Version: 6.00 Build 0)  -->
<!DOCTYPE svg PUBLIC "-//W3C//DTD SVG 1.1//EN" "http://www.w3.org/Graphics/SVG/1.1/DTD/svg11.dtd">
<svg version="1.1" id="Calque_1" xmlns="http://www.w3.org/2000/svg" xmlns:xlink="http://www.w3.org/1999/xlink" x="0px" y="0px"
	 width="595.28px" height="841.89px" viewBox="0 0 595.28 841.89" enable-background="new 0 0 595.28 841.89" xml:space="preserve">
<path fill="#49E4A9" d="M374.254,600.889c0,4.971-4.029,9-9,9H221.196c-4.971,0-9-4.029-9-9v-82.001c0-4.971,4.029-9,9-9h144.058
	c4.971,0,9,4.029,9,9V600.889z"/>
<path fill="#64E8B2" d="M374.254,600.889v-82.001c0-5.157-4.137-9-9-9c-67.591,0-114.849,48.047-114.849,97.638
	c0,0.79,0.016,1.578,0.042,2.363h114.807C370.225,609.889,374.254,605.859,374.254,600.889z"/>
<rect x="228.107" y="576.812" fill="#45D89C" width="130.56" height="9.242"/>
<rect x="228.107" y="590.677" fill="#45D89C" width="130.56" height="9.243"/>
<g>
	<path fill="#C2EFDC" d="M337.901,529.959h7.507c-0.067-1.482-0.445-3.011-1.593-3.993c-1.365-1.17-3.758-1.604-5.895-1.604
		c-2.226,0-4.687,0.477-6.06,1.731c-1.184,1.081-1.439,2.82-1.439,4.383c0,1.636,0.501,3.54,1.785,4.638
		c1.365,1.166,3.579,1.476,5.714,1.476c2.072,0,4.318-0.349,5.676-1.457c1.354-1.106,1.822-2.97,1.822-4.656
		c0-0.003,0-0.006,0-0.008h-7.518V529.959z"/>
	<path fill="#C2EFDC" d="M345.911,530.469v5.849h10.441v-0.008c1.528-0.076,2.744-1.335,2.744-2.882
		c0-1.545-1.216-2.885-2.744-2.962v0.003H345.911z"/>
	<path fill="#C2EFDC" d="M358.906,527.277c0-1.488-1.182-2.671-2.672-2.671c-0.103,0-0.229-0.019-0.33-0.008h-9.993v5.36h10.528
		C357.819,529.84,358.906,528.688,358.906,527.277z"/>
</g>
<g>
	<path fill="#F6EB90" d="M257.393,552.397c0,2.97-2.408,5.378-5.378,5.378h-19.122c-2.97,0-5.378-2.408-5.378-5.378v-16.684
		c0-2.969,2.408-5.378,5.378-5.378h19.122c2.97,0,5.378,2.409,5.378,5.378V552.397z"/>
	<g>
		
			<line fill="none" stroke="#F2E283" stroke-width="1.7927" stroke-miterlimit="10" x1="232.893" y1="530.336" x2="232.893" y2="557.775"/>
		
			<line fill="none" stroke="#F2E283" stroke-width="1.7927" stroke-miterlimit="10" x1="242.454" y1="530.336" x2="242.454" y2="557.775"/>
		
			<line fill="none" stroke="#F2E283" stroke-width="1.7927" stroke-miterlimit="10" x1="251.7" y1="530.336" x2="251.7" y2="557.775"/>
		
			<line fill="none" stroke="#F2E283" stroke-width="1.7927" stroke-miterlimit="10" x1="251.7" y1="544.213" x2="232.893" y2="544.213"/>
	</g>
	<circle fill="#F2E283" cx="242.296" cy="544.213" r="2.454"/>
</g>
</svg>
