<?xml version="1.0" encoding="utf-8"?>
<!-- Generator: Adobe Illustrator 16.0.0, SVG Export Plug-In . SVG Version: 6.00 Build 0)  -->
<!DOCTYPE svg PUBLIC "-//W3C//DTD SVG 1.1//EN" "http://www.w3.org/Graphics/SVG/1.1/DTD/svg11.dtd">
<svg version="1.1" id="Calque_1" xmlns="http://www.w3.org/2000/svg" xmlns:xlink="http://www.w3.org/1999/xlink" x="0px" y="0px"
	 width="29.996px" height="29.996px" viewBox="0 0 29.996 29.996" enable-background="new 0 0 29.996 29.996" xml:space="preserve">
<path fill="#FFFFFF" d="M27.416,6.66c-0.26-0.168-0.586-0.191-0.868-0.065l-10.7,4.826l-1.997-1.026l0.564-0.339l8.444-3.997
	c0.455-0.214,0.649-0.757,0.435-1.213c-0.216-0.454-0.76-0.648-1.214-0.434L11.836,9.261c-0.318,0.15-0.521,0.471-0.521,0.822
	v17.205c0,0.354,0.204,0.676,0.523,0.824l3.832,1.8c0.122,0.058,0.256,0.086,0.387,0.086c0.125,0,0.25-0.026,0.367-0.076
	l10.864-4.772c0.331-0.144,0.546-0.471,0.546-0.832V7.425C27.834,7.116,27.677,6.828,27.416,6.66z"/>
<path fill="#FFFFFF" d="M9.491,8.426l1.882-0.899l7.309-3.491V3.227c0-0.309-0.157-0.598-0.418-0.766
	c-0.26-0.168-0.586-0.191-0.868-0.065L6.695,7.221L4.698,6.195l0.564-0.339l8.444-3.997c0.455-0.214,0.649-0.757,0.435-1.213
	c-0.216-0.454-0.76-0.648-1.214-0.434L2.684,5.062c-0.318,0.15-0.521,0.471-0.521,0.822V23.09c0,0.353,0.204,0.675,0.523,0.824
	l3.832,1.799c0.122,0.058,0.256,0.086,0.387,0.086c0.125,0,0.25-0.025,0.367-0.075l2.219-0.975V10.512V8.426z"/>
</svg>
