<?xml version="1.0" encoding="utf-8"?>
<!-- Generator: Adobe Illustrator 16.0.0, SVG Export Plug-In . SVG Version: 6.00 Build 0)  -->
<!DOCTYPE svg PUBLIC "-//W3C//DTD SVG 1.1//EN" "http://www.w3.org/Graphics/SVG/1.1/DTD/svg11.dtd">
<svg version="1.1" id="Calque_1" xmlns="http://www.w3.org/2000/svg" xmlns:xlink="http://www.w3.org/1999/xlink" x="0px" y="0px"
	 width="25.997px" height="29.996px" viewBox="0 0 25.997 29.996" enable-background="new 0 0 25.997 29.996" xml:space="preserve">
<path fill="#333333" d="M19.475,10.302c0.002-0.701-0.273-1.532-0.829-2.499c-0.468-0.815-1.023-1.439-1.655-1.869
	c-0.635-0.428-1.314-0.719-2.032-0.871c-0.723-0.151-1.461-0.184-2.219-0.092c-0.758,0.093-1.491,0.251-2.205,0.478
	C9.985,5.623,9.477,5.802,9,5.996C8.529,6.187,8.155,6.358,7.883,6.502l4.842,8.424c0.126-0.01,0.304-0.039,0.538-0.078
	c0.234-0.049,0.479-0.101,0.731-0.168c0.254-0.064,0.499-0.135,0.732-0.208c0.23-0.071,0.404-0.126,0.517-0.161
	c0.739-0.232,1.438-0.526,2.091-0.881c0.656-0.352,1.178-0.784,1.563-1.3C19.279,11.614,19.471,11.006,19.475,10.302 M20.996,1.959
	c1.376,0.895,2.584,2.249,3.621,4.052c0.937,1.632,1.414,3.112,1.43,4.436c0.018,1.323-0.291,2.509-0.92,3.555
	c-0.632,1.047-1.52,1.939-2.667,2.682c-1.146,0.739-2.432,1.334-3.856,1.781c-0.139,0.043-0.36,0.114-0.662,0.207
	c-0.303,0.098-0.621,0.189-0.957,0.28c-0.334,0.093-0.67,0.175-0.998,0.25c-0.33,0.073-0.57,0.122-0.722,0.142l5.14,8.941
	l-5.638,1.774L-0.017,4.344c1.038-0.561,2.216-1.114,3.541-1.665C4.846,2.133,6.191,1.643,7.562,1.21
	c1.426-0.449,2.921-0.794,4.484-1.037s3.099-0.231,4.618,0.039C18.178,0.482,19.625,1.062,20.996,1.959"/>
</svg>
