<?xml version="1.0" encoding="utf-8"?>
<!-- Generator: Adobe Illustrator 16.0.0, SVG Export Plug-In . SVG Version: 6.00 Build 0)  -->
<!DOCTYPE svg PUBLIC "-//W3C//DTD SVG 1.1//EN" "http://www.w3.org/Graphics/SVG/1.1/DTD/svg11.dtd">
<svg version="1.1" id="Calque_1" xmlns="http://www.w3.org/2000/svg" xmlns:xlink="http://www.w3.org/1999/xlink" x="0px" y="0px"
	 width="91.484px" height="121.314px" viewBox="0 0 91.484 121.314" enable-background="new 0 0 91.484 121.314"
	 xml:space="preserve">
<g>
	<g>
		<g>
			<polygon fill="#FCDBC5" points="64.594,13.267 56.925,4.241 46.197,1.77 46.197,1.77 46.197,1.77 46.197,1.77 46.197,1.77 
				34.818,4.241 27.799,13.267 27.369,26.86 28.185,36.562 32.358,44.399 42.612,50.403 46.197,50.403 46.197,50.403 49.782,50.403 
				60.038,44.399 64.208,36.562 65.026,26.86 			"/>
			<g>
				<polygon fill="#774315" points="60.694,53.696 55.498,67.831 36.896,67.831 31.7,53.696 37.007,49.565 55.388,49.565 				"/>
				<rect x="36.967" y="45.138" fill="#FCDBC5" width="19.177" height="36.186"/>
				<path fill="#EFEFEF" d="M63.275,89.364l-37.368-0.277l11.02-29.213c0,0,1.4,8.096,9.27,8.096c8.616,0,9.306-5.988,9.946-8.66
					L63.275,89.364z"/>
				<path fill="#FFFFFF" d="M63.275,91.364l-37.368-0.277l9.536-28.239c0,0,2.884,7.122,10.753,7.122s10.776-7.162,10.776-7.162
					L63.275,91.364z"/>
				<polygon fill="#E5C2AA" points="36.967,46.746 43.116,50.403 49.782,50.403 56.144,46.746 56.144,51.16 44.432,61.27 
					36.967,56.759 				"/>
				<polygon fill="#ED530F" points="91.484,73.135 80.132,58.894 61.442,57.823 55.513,67.831 46.416,89.223 45.81,89.182 
					36.897,67.831 32.9,56.833 12.319,58.894 0,74.426 2.057,120.937 89.484,121.303 				"/>
				<path fill="#361A10" d="M77.066,93.009"/>
				<path fill="#361A10" d="M15.329,93.009"/>
				<polygon fill="#E5C2AA" points="46.732,37.966 43.651,36.383 49.813,36.383 				"/>
				<path fill="#FFFFFF" d="M46.656,42.897l-6.19-0.509c0,2.55,2.771,5.638,6.19,5.638c3.423,0,6.192-3.088,6.192-5.638
					L46.656,42.897z"/>
			</g>
			<path fill="#B75E15" d="M58.24,2.925c0,0-7.391-4.303-12.043-2.471S44.18-2.788,34.818,2.925
				c-9.362,5.712-8.335,9.026-8.335,9.026s-2.027,3.324-1.315,8.896s2.459,9.081,2.459,9.081s0.571-6.742,2.94-12.323
				s8.868-8.369,8.868-8.369s2.833,5.417,9.599,6.149s9.581-2.774,12.055-0.033s3.647,14.965,3.647,14.965l2.668-10.142
				c0,0,0.148-2.32-1.494-9.54S58.24,2.925,58.24,2.925z"/>
		</g>
		<polygon opacity="0.15" fill="#FFFFFF" points="91.371,73.142 80.075,58.897 61.442,57.823 55.498,67.831 46.408,89.49 
			46.657,121.314 89.42,121.314 		"/>
	</g>
</g>
<polygon fill="#C4400C" points="32.533,55.964 46.212,88.314 43.484,88.314 30.035,57.12 "/>
<polygon fill="#ED530F" points="59.861,55.964 62.109,57.823 48.484,88.314 46.212,88.314 "/>
<rect x="43.484" y="88.314" fill="#C4400C" width="5" height="33"/>
<polygon fill="#C4400C" points="15.484,81.314 15.484,81.314 15.484,121.314 16.484,121.314 "/>
<polygon fill="#C4400C" points="75.484,81.314 75.484,81.314 75.484,121.314 74.484,121.314 "/>
</svg>
