<?xml version="1.0" encoding="utf-8"?>
<!-- Generator: Adobe Illustrator 16.0.0, SVG Export Plug-In . SVG Version: 6.00 Build 0)  -->
<!DOCTYPE svg PUBLIC "-//W3C//DTD SVG 1.1//EN" "http://www.w3.org/Graphics/SVG/1.1/DTD/svg11.dtd">
<svg version="1.1" id="Calque_1" xmlns="http://www.w3.org/2000/svg" xmlns:xlink="http://www.w3.org/1999/xlink" x="0px" y="0px"
	 width="20px" height="19.999px" viewBox="0 0 20 19.999" enable-background="new 0 0 20 19.999" xml:space="preserve">
<path fill="#FFFFFF" d="M9.999,0C4.476,0,0,4.475,0,9.998c0,5.523,4.476,10,9.999,10S20,15.521,20,9.998C20,4.475,15.521,0,9.999,0z
	 M14.483,11.17h-3.316v3.308c0,0.648-0.52,1.172-1.169,1.172c-0.646,0-1.169-0.524-1.169-1.172V11.17H5.52
	c-0.648,0-1.169-0.525-1.169-1.17c0-0.647,0.521-1.169,1.169-1.169h3.31V5.518c0-0.647,0.524-1.169,1.169-1.169
	c0.649,0,1.169,0.522,1.169,1.169v3.313h3.316c0.645,0,1.169,0.522,1.169,1.169C15.652,10.645,15.128,11.17,14.483,11.17z"/>
</svg>
