<?xml version="1.0" encoding="utf-8"?>
<!-- Generator: Adobe Illustrator 16.0.0, SVG Export Plug-In . SVG Version: 6.00 Build 0)  -->
<!DOCTYPE svg PUBLIC "-//W3C//DTD SVG 1.1//EN" "http://www.w3.org/Graphics/SVG/1.1/DTD/svg11.dtd">
<svg version="1.1" id="Calque_1" xmlns="http://www.w3.org/2000/svg" xmlns:xlink="http://www.w3.org/1999/xlink" x="0px" y="0px"
	 width="29.996px" height="29.996px" viewBox="0 0 29.996 29.996" enable-background="new 0 0 29.996 29.996" xml:space="preserve">
<g>
	<path fill="#FFFFFF" d="M8.146,11.148c0,0.655,0.502,1.188,1.121,1.188c0.007,0,0.013,0,0.02,0
		c0.232,3.131,2.699,6.265,5.712,6.265s5.48-3.134,5.712-6.265c0.007,0,0.013,0,0.02,0c0.619,0,1.121-0.532,1.121-1.188
		c0-0.485-0.274-0.9-0.665-1.085c0.228-0.704,0.352-1.456,0.352-2.241c0-3.83-2.928-6.936-6.539-6.936
		c-3.612,0-6.539,3.105-6.539,6.936c0,0.785,0.125,1.537,0.351,2.241C8.419,10.249,8.146,10.663,8.146,11.148z"/>
	<path fill="#FFFFFF" d="M29.314,25.848c-2.671-2.593-5.931-4.423-9.437-5.297c-0.088-0.049-0.188-0.075-0.292-0.075h-0.317
		c-0.101,0-0.199,0.025-0.288,0.073c-1.058,0.568-2.51,0.895-3.982,0.895c-1.472,0-2.923-0.326-3.984-0.896
		c-0.089-0.047-0.188-0.072-0.289-0.072h-0.23c-0.048,0-0.094,0.007-0.14,0.018c-3.598,0.85-6.941,2.703-9.673,5.354
		c-0.119,0.115-0.185,0.271-0.185,0.437v2.178c0,0.336,0.273,0.609,0.609,0.609H28.89c0.336,0,0.608-0.273,0.608-0.609v-2.178
		C29.498,26.119,29.431,25.962,29.314,25.848z"/>
</g>
</svg>
