<?xml version="1.0" encoding="utf-8"?>
<!-- Generator: Adobe Illustrator 16.0.0, SVG Export Plug-In . SVG Version: 6.00 Build 0)  -->
<!DOCTYPE svg PUBLIC "-//W3C//DTD SVG 1.1//EN" "http://www.w3.org/Graphics/SVG/1.1/DTD/svg11.dtd">
<svg version="1.1" id="Calque_1" xmlns="http://www.w3.org/2000/svg" xmlns:xlink="http://www.w3.org/1999/xlink" x="0px" y="0px"
	 width="45px" height="45px" viewBox="0 0 45 45" enable-background="new 0 0 45 45" xml:space="preserve">
<path fill="#333333" d="M26.573,28.908v0.641c-1.418,1.831-3.432,3.021-5.218,3.021c-4.028,0-6.729-4.486-6.729-11.169
	c0-5.813,2.243-9.658,6.592-9.658c2.7,0,4.714,1.647,5.354,3.891V28.908z M34.355,32.615V31.7l-1.373,0.366
	c-1.51,0.367-2.518-0.137-2.518-3.936V10.599h-0.458l-2.792,2.242c-1.511-1.372-3.753-2.242-6.454-2.242
	c-6.684,0-10.116,4.761-10.116,11.855c0,7.05,3.662,11.719,9.109,11.719c2.563,0,5.264-1.282,6.819-3.251v3.479h0.688L34.355,32.615
	z"/>
</svg>
