<?xml version="1.0" encoding="utf-8"?>
<!-- Generator: Adobe Illustrator 16.0.0, SVG Export Plug-In . SVG Version: 6.00 Build 0)  -->
<!DOCTYPE svg PUBLIC "-//W3C//DTD SVG 1.1//EN" "http://www.w3.org/Graphics/SVG/1.1/DTD/svg11.dtd">
<svg version="1.1" id="Calque_1" xmlns="http://www.w3.org/2000/svg" xmlns:xlink="http://www.w3.org/1999/xlink" x="0px" y="0px"
	 width="45px" height="45px" viewBox="0 0 45 45" enable-background="new 0 0 45 45" xml:space="preserve">
<path fill="#333333" d="M25.287,22.645v7.003c-1.159,0.869-2.898,1.304-4.83,1.304c-2.222,0-3.719-1.11-3.719-2.849
	C16.738,26.025,19.636,23.948,25.287,22.645z M25.287,17.478v3.429c-8.114,1.884-12.268,4.926-12.268,8.161
	c0,2.851,2.125,4.781,5.264,4.781c2.753,0,5.361-0.966,7.148-2.945c0.435,1.835,1.979,2.945,4.152,2.945
	c1.884,0,3.671-1.062,4.396-2.606l-0.146-0.291c0,0.098-0.726,0.146-1.739,0.146c-1.738,0-2.945-0.387-2.945-0.966V16.463
	c0-3.188-2.366-5.312-7.003-5.312c-4.877,0-8.597,2.656-8.597,6.182c0,0.869,0.387,1.401,1.014,1.353h2.753l0.241-0.242v-1.352
	c0-2.125,1.449-3.719,3.381-3.719C23.79,13.372,25.287,15.014,25.287,17.478z"/>
</svg>
