<?xml version="1.0" encoding="utf-8"?>
<!-- Generator: Adobe Illustrator 16.0.0, SVG Export Plug-In . SVG Version: 6.00 Build 0)  -->
<!DOCTYPE svg PUBLIC "-//W3C//DTD SVG 1.1//EN" "http://www.w3.org/Graphics/SVG/1.1/DTD/svg11.dtd">
<svg version="1.1" id="Calque_1" xmlns="http://www.w3.org/2000/svg" xmlns:xlink="http://www.w3.org/1999/xlink" x="0px" y="0px"
	 width="45px" height="45px" viewBox="0 0 45 45" enable-background="new 0 0 45 45" xml:space="preserve">
<g>
	<path fill="#333333" d="M20.128,33.736c-5.535,0-8.615-4.369-8.615-11.236c0-6.867,3.08-11.236,8.615-11.236
		c5.493,0,8.613,4.786,8.613,11.236C28.741,28.949,25.621,33.736,20.128,33.736z M21.708,29.781c2.912,0,4.993-1.955,4.993-7.281
		c0-5.327-2.081-7.284-4.993-7.284c-2.913,0-4.994,1.957-4.994,7.284C16.714,27.826,18.796,29.781,21.708,29.781z M26.701,11.321
		h4.786V33.32h-4.786V11.321z"/>
</g>
</svg>
