<?xml version="1.0" encoding="utf-8"?>
<!-- Generator: Adobe Illustrator 16.0.0, SVG Export Plug-In . SVG Version: 6.00 Build 0)  -->
<!DOCTYPE svg PUBLIC "-//W3C//DTD SVG 1.1//EN" "http://www.w3.org/Graphics/SVG/1.1/DTD/svg11.dtd">
<svg version="1.1" id="Calque_1" xmlns="http://www.w3.org/2000/svg" xmlns:xlink="http://www.w3.org/1999/xlink" x="0px" y="0px"
	 width="45px" height="45px" viewBox="0 0 45 45" enable-background="new 0 0 45 45" xml:space="preserve">
<path fill="#333333" d="M26.176,15.735v12.537c-1.264,1.984-3.066,3.247-4.646,3.247c-3.562,0-5.953-3.697-5.953-9.29
	c0-6.043,2.029-10.102,5.096-10.102C23.199,12.127,25.454,13.796,26.176,15.735z M33.617,31.79v-0.405l-0.496-0.136
	c-2.436-0.496-2.887-1.037-2.887-3.518V11.226h-1.127l-2.211,3.382C25.814,12.579,23.424,11,20.898,11
	c-5.728,0-9.516,5.096-9.516,12.808C11.383,29.896,14.54,34,19.32,34c2.21,0,4.871-1.895,6.855-4.871v4.646V34h0.676l2.48-0.947
	L33.617,31.79z"/>
</svg>
