<?xml version="1.0" encoding="utf-8"?>
<!-- Generator: Adobe Illustrator 16.0.0, SVG Export Plug-In . SVG Version: 6.00 Build 0)  -->
<!DOCTYPE svg PUBLIC "-//W3C//DTD SVG 1.1//EN" "http://www.w3.org/Graphics/SVG/1.1/DTD/svg11.dtd">
<svg version="1.1" id="Calque_1" xmlns="http://www.w3.org/2000/svg" xmlns:xlink="http://www.w3.org/1999/xlink" x="0px" y="0px"
	 width="45px" height="45px" viewBox="0 0 45 45" enable-background="new 0 0 45 45" xml:space="preserve">
<path fill="#333333" d="M24.875,11.287v21.875c0,2.32-0.994,3.866-2.431,3.866c-1.436,0-2.375-1.546-2.375-3.866V11.287
	c0-1.989,0.939-3.314,2.431-3.314C23.937,7.972,24.875,9.298,24.875,11.287z M24.875,39.072h1.491h1.492v-0.166v-0.111V6.205V6.039
	V5.928h-1.492h-1.491v2.154c-0.718-1.712-1.933-2.707-3.479-2.707c-2.541,0-4.254,2.375-4.254,5.966v22.482
	c0,3.48,1.713,5.8,4.254,5.8c1.602,0,2.816-1.159,3.479-3.093V39.072z"/>
</svg>
