<?xml version="1.0" encoding="utf-8"?>
<!-- Generator: Adobe Illustrator 16.0.0, SVG Export Plug-In . SVG Version: 6.00 Build 0)  -->
<!DOCTYPE svg PUBLIC "-//W3C//DTD SVG 1.1//EN" "http://www.w3.org/Graphics/SVG/1.1/DTD/svg11.dtd">
<svg version="1.1" id="Calque_1" xmlns="http://www.w3.org/2000/svg" xmlns:xlink="http://www.w3.org/1999/xlink" x="0px" y="0px"
	 width="45px" height="45px" viewBox="0 0 45 45" enable-background="new 0 0 45 45" xml:space="preserve">
<path fill="#333333" d="M25.387,32.258v-6.505c1.062,1.022,1.608,2.119,1.608,3.217C26.995,30.358,26.41,31.49,25.387,32.258z
	 M21.879,33.209v-9.576c0.768,0.292,1.426,0.658,2.01,1.024v8.295c-0.549,0.184-1.169,0.257-1.863,0.257
	C21.989,33.209,21.916,33.209,21.879,33.209z M20.38,12.34v6.76c-1.206-0.95-1.828-2.082-1.828-3.581
	C18.553,14.095,19.247,12.96,20.38,12.34z M23.889,11.938v8.917c-0.109-0.073-0.256-0.11-0.364-0.146
	c-0.585-0.22-1.134-0.439-1.646-0.694v-8.15c0.256,0,0.511-0.037,0.804-0.037C23.121,11.828,23.524,11.865,23.889,11.938z
	 M25.387,7.516h-1.498v2.594c-0.291-0.036-0.584-0.036-0.877-0.036c-0.402,0-0.768,0.036-1.133,0.073V7.516H20.38v2.887
	c-3.143,0.805-5.08,3.143-5.08,6.286c0,3.07,1.717,5.008,5.08,6.36v9.94c-1.608-0.513-2.632-1.791-2.632-3.546v-0.986l-0.182-0.146
	h-1.023c-0.841,0-1.425,0.439-1.425,1.133c0,2.814,2.046,4.861,5.263,5.373v2.668h1.499v-2.558c0.037,0,0.11,0,0.146,0
	c0.658,0,1.279-0.037,1.863-0.146v2.704h1.498v-3.106c2.779-1.023,4.496-3.363,4.496-6.47c0-2.484-1.535-4.823-4.496-6.395v-9.027
	c0.842,0.511,1.316,1.316,1.316,2.266v0.951l0.183,0.145h1.022c0.842,0,1.426-0.438,1.426-1.096c0-2.192-1.499-3.8-3.947-4.386
	V7.516z"/>
</svg>
