<?xml version="1.0" encoding="utf-8"?>
<!-- Generator: Adobe Illustrator 16.0.0, SVG Export Plug-In . SVG Version: 6.00 Build 0)  -->
<!DOCTYPE svg PUBLIC "-//W3C//DTD SVG 1.1//EN" "http://www.w3.org/Graphics/SVG/1.1/DTD/svg11.dtd">
<svg version="1.1" id="Calque_1" xmlns="http://www.w3.org/2000/svg" xmlns:xlink="http://www.w3.org/1999/xlink" x="0px" y="0px"
	 width="45px" height="45px" viewBox="0 0 45 45" enable-background="new 0 0 45 45" xml:space="preserve">
<path fill="#333333" d="M24.981,22.011v-0.732l-7.08,2.346c-4.298,1.416-6.496,3.27-6.496,6.445c0,2.928,1.954,5.127,5.86,5.127
	c3.418,0,5.617-2.1,7.961-4.98l-0.245-0.637c-2.588,2.688-4.298,3.418-6.007,3.418c-1.953,0-3.174-1.219-3.174-3.418
	c0-2.439,1.367-4.395,4.396-5.615L24.981,22.011z M24.592,28.85c0,4.395,1.953,6.104,4.64,6.104c2.54,0,4.688-1.758,5.322-5.273
	l-0.635-0.148c-0.731,1.906-1.66,2.492-2.978,2.492c-1.223,0-2.198-0.977-2.198-3.174V17.373c0-5.372-2.442-7.57-6.838-7.57
	c-4.542,0-9.523,3.81-9.523,7.277c0,1.954,0.978,2.833,2.345,2.833c1.514,0,2.295-1.025,2.295-2.052
	c0-1.416-0.928-1.855-0.928-3.663c0-1.758,2.1-3.174,4.347-3.174c2.93,0,4.151,1.709,4.151,6.349V28.85z"/>
</svg>
