<?xml version="1.0" encoding="utf-8"?>
<!-- Generator: Adobe Illustrator 16.0.0, SVG Export Plug-In . SVG Version: 6.00 Build 0)  -->
<!DOCTYPE svg PUBLIC "-//W3C//DTD SVG 1.1//EN" "http://www.w3.org/Graphics/SVG/1.1/DTD/svg11.dtd">
<svg version="1.1" id="Calque_1" xmlns="http://www.w3.org/2000/svg" xmlns:xlink="http://www.w3.org/1999/xlink" x="0px" y="0px"
	 width="45px" height="45px" viewBox="0 0 45 45" enable-background="new 0 0 45 45" xml:space="preserve">
<path fill="#333333" d="M20.523,33.064h-2.75v1.398c-0.049,3.087,1.881,5.161,4.728,5.161c2.846,0,4.728-2.074,4.728-5.161V23.706
	c0-2.942-1.641-4.92-4.053-4.92c-0.965,0-1.786,0.579-2.315,1.544l0.192-1.544V7.788h5.403h0.146h0.096V6.582V5.376h-5.644h-2.749
	v13.41v4.63h1.93h0.289l0.096-0.771c0.242-0.964,0.917-1.543,1.785-1.543c1.254,0,2.075,0.82,2.075,2.075v11.673
	c0,1.399-0.771,2.364-1.978,2.364c-1.157,0-1.93-0.965-1.978-2.364V33.064z"/>
</svg>
