<?xml version="1.0" encoding="utf-8"?>
<!-- Generator: Adobe Illustrator 16.0.0, SVG Export Plug-In . SVG Version: 6.00 Build 0)  -->
<!DOCTYPE svg PUBLIC "-//W3C//DTD SVG 1.1//EN" "http://www.w3.org/Graphics/SVG/1.1/DTD/svg11.dtd">
<svg version="1.1" id="Calque_1" xmlns="http://www.w3.org/2000/svg" xmlns:xlink="http://www.w3.org/1999/xlink" x="0px" y="0px"
	 width="45px" height="45px" viewBox="0 0 45 45" enable-background="new 0 0 45 45" xml:space="preserve">
<path fill="#333333" d="M23.107,35.766V25.752c0.996,2.34,1.517,4.768,1.517,6.85C24.624,34.205,24.018,35.419,23.107,35.766z
	 M21.85,8.801v9.971c-0.997-2.298-1.474-4.639-1.474-6.937C20.375,10.275,20.939,9.191,21.85,8.801z M23.107,5.376H21.85V6.72
	c-2.167,0.39-3.555,2.471-3.555,5.462c0,3.425,1.127,7.066,3.338,10.708c0.087,0.13,0.13,0.217,0.217,0.347v12.571
	c-0.91-0.26-1.474-1.083-1.474-2.211v-3.944h-2.124v3.944c0,2.342,1.387,3.988,3.598,4.249v1.777h1.258v-1.777
	c2.211-0.347,3.641-2.472,3.641-5.636c0-2.947-1.17-6.85-3.381-10.535c-0.087-0.13-0.174-0.303-0.26-0.434V8.757
	c0.953,0.26,1.517,1.257,1.517,2.601v3.555h2.124v-3.555c0-2.601-1.43-4.378-3.641-4.639V5.376z"/>
</svg>
