<?xml version="1.0" encoding="utf-8"?>
<!-- Generator: Adobe Illustrator 16.0.0, SVG Export Plug-In . SVG Version: 6.00 Build 0)  -->
<!DOCTYPE svg PUBLIC "-//W3C//DTD SVG 1.1//EN" "http://www.w3.org/Graphics/SVG/1.1/DTD/svg11.dtd">
<svg version="1.1" id="Calque_1" xmlns="http://www.w3.org/2000/svg" xmlns:xlink="http://www.w3.org/1999/xlink" x="0px" y="0px"
	 width="45px" height="45px" viewBox="0 0 45 45" enable-background="new 0 0 45 45" xml:space="preserve">
<path fill="#333333" d="M24.655,21.616v11.545c0,2.32-0.884,3.866-2.21,3.866c-1.271,0-2.154-1.546-2.154-3.866l0.056-6.076
	c0-1.878,0.607-3.314,1.547-3.701C23.053,22.942,23.992,22.5,24.655,21.616z M17.64,11.121v5.966h2.983v-6.408
	c0-1.602,0.772-2.707,1.988-2.707c1.215,0,2.044,1.05,2.044,2.707v6.96c0,2.154-1.437,2.928-3.535,3.701
	c-2.32,0.884-3.812,3.148-3.757,5.745v6.739c0,3.48,1.547,5.8,3.922,5.8c1.547,0,2.707-1.104,3.37-2.872v2.32h1.491h1.491v-0.166
	v-0.111V11.121c0-3.425-1.988-5.745-5.026-5.745C19.628,5.376,17.64,7.696,17.64,11.121z"/>
</svg>
