<?xml version="1.0" encoding="utf-8"?>
<!-- Generator: Adobe Illustrator 16.0.0, SVG Export Plug-In . SVG Version: 6.00 Build 0)  -->
<!DOCTYPE svg PUBLIC "-//W3C//DTD SVG 1.1//EN" "http://www.w3.org/Graphics/SVG/1.1/DTD/svg11.dtd">
<svg version="1.1" id="Calque_1" xmlns="http://www.w3.org/2000/svg" xmlns:xlink="http://www.w3.org/1999/xlink" x="0px" y="0px"
	 width="45px" height="45px" viewBox="0 0 45 45" enable-background="new 0 0 45 45" xml:space="preserve">
<path fill="#333333" d="M20.474,33.064h-2.75v1.398c-0.048,3.087,1.881,5.161,4.728,5.161c2.846,0,4.728-2.074,4.728-5.161V23.706
	c0-2.942-1.641-4.92-4.052-4.92c-0.965,0-1.786,0.579-2.316,1.544l0.193-1.544V8.222c0.579,0.868,1.399,1.351,2.46,1.351
	c1.737,0,3.039-0.965,3.57-2.557V6.968c0.145-0.482,0.241-1.013,0.241-1.592h-0.146h-0.096H26.07h-1.206
	c0,1.109-0.772,1.833-1.93,1.833c-1.157,0-1.929-0.724-1.929-1.833h-0.724h-2.026v13.41v4.63h1.929h0.29l0.097-0.771
	c0.241-0.964,0.917-1.543,1.785-1.543c1.255,0,2.074,0.82,2.074,2.075v11.673c0,1.399-0.771,2.364-1.978,2.364
	c-1.158,0-1.93-0.965-1.978-2.364V33.064z"/>
</svg>
