<?xml version="1.0" encoding="utf-8"?>
<!-- Generator: Adobe Illustrator 16.0.0, SVG Export Plug-In . SVG Version: 6.00 Build 0)  -->
<!DOCTYPE svg PUBLIC "-//W3C//DTD SVG 1.1//EN" "http://www.w3.org/Graphics/SVG/1.1/DTD/svg11.dtd">
<svg version="1.1" id="Calque_1" xmlns="http://www.w3.org/2000/svg" xmlns:xlink="http://www.w3.org/1999/xlink" x="0px" y="0px"
	 width="45px" height="45px" viewBox="0 0 45 45" enable-background="new 0 0 45 45" xml:space="preserve">
<path fill="#333333" d="M27.162,34.439V23.07h-0.666h-2.047h-1.902v2.379h1.902v9.323c0,1.475-0.76,2.474-1.949,2.474
	c-1.189,0-1.951-0.904-1.951-2.283l-0.047-24.925c0-1.379,0.809-2.283,1.998-2.283c1.189,0,1.949,0.951,1.949,2.378v1.95h2.713
	v-1.522h-0.096h-0.143v-0.047l0.238,0.047c0-3.092-1.855-5.185-4.662-5.185c-2.807,0-4.662,2.045-4.662,5.09v24.069
	c0,3.043,1.855,5.089,4.662,5.089C25.307,39.624,27.162,37.531,27.162,34.439z"/>
</svg>
