<?xml version="1.0" encoding="utf-8"?>
<!-- Generator: Adobe Illustrator 16.0.0, SVG Export Plug-In . SVG Version: 6.00 Build 0)  -->
<!DOCTYPE svg PUBLIC "-//W3C//DTD SVG 1.1//EN" "http://www.w3.org/Graphics/SVG/1.1/DTD/svg11.dtd">
<svg version="1.1" id="Calque_1" xmlns="http://www.w3.org/2000/svg" xmlns:xlink="http://www.w3.org/1999/xlink" x="0px" y="0px"
	 width="45px" height="45px" viewBox="0 0 45 45" enable-background="new 0 0 45 45" xml:space="preserve">
<path fill="#333333" d="M22,39.2c-2.8,0-4.6-2-4.6-5.1V10.5c0-3.1,1.8-5.1,4.6-5.1c2.7,0,4.6,2,4.6,5.1v23.7c0,1.1-0.3,2.1-0.7,2.9
		c0.4,0.7,1,1.1,1.7,1.1v2.4c-1.2,0-2.2-0.8-2.9-2.1C23.9,39,23.1,39.2,22,39.2z M23.9,9.9c0-1.3-0.8-2.2-1.9-2.2
		c-1.2,0-1.9,0.9-1.9,2.2v24.7c0,1.3,0.8,2.2,1.9,2.2c1.1,0,1.9-0.9,1.9-2.2V9.9z"/>
</svg>
