<?xml version="1.0" encoding="utf-8"?>
<!-- Generator: Adobe Illustrator 16.0.0, SVG Export Plug-In . SVG Version: 6.00 Build 0)  -->
<!DOCTYPE svg PUBLIC "-//W3C//DTD SVG 1.1//EN" "http://www.w3.org/Graphics/SVG/1.1/DTD/svg11.dtd">
<svg version="1.1" id="Calque_1" xmlns="http://www.w3.org/2000/svg" xmlns:xlink="http://www.w3.org/1999/xlink" x="0px" y="0px"
	 width="45px" height="45px" viewBox="0 0 45 45" enable-background="new 0 0 45 45" xml:space="preserve">
<path fill="#333333" d="M32.409,33.592v-13.31c0-2.916-1.352-4.438-3.339-4.438c-2.704,0-4.268,1.76-4.268,4.438v13.31h-4.859
	v-13.31c0-2.916-1.268-4.438-3.212-4.438c-2.493,0-4.141,1.691-4.141,4.226v13.522H7.731V11.619h4.859v2.789
	c1.333-1.896,3.424-3,6.001-3c2.559,0,4.535,1.42,5.521,4.221c1.242-2.635,3.671-4.221,6.816-4.221c3.803,0,6.339,3,6.339,8.874
	v13.31H32.409z"/>
</svg>
