<?xml version="1.0" encoding="utf-8"?>
<!-- Generator: Adobe Illustrator 16.0.0, SVG Export Plug-In . SVG Version: 6.00 Build 0)  -->
<!DOCTYPE svg PUBLIC "-//W3C//DTD SVG 1.1//EN" "http://www.w3.org/Graphics/SVG/1.1/DTD/svg11.dtd">
<svg version="1.1" id="Calque_1" xmlns="http://www.w3.org/2000/svg" xmlns:xlink="http://www.w3.org/1999/xlink" x="0px" y="0px"
	 width="45px" height="45px" viewBox="0 0 45 45" enable-background="new 0 0 45 45" xml:space="preserve">
<path fill="#333333" d="M21.859,9.22v26.314c-1.084-0.345-1.774-1.479-1.774-3.104V12.374C20.085,10.698,20.775,9.564,21.859,9.22z
	 M27.23,32.281v-6.159h-2.315v6.308c0,1.626-0.69,2.76-1.774,3.104V9.22c1.084,0.345,1.774,1.527,1.774,3.203v6.455h2.315v-6.455
	c0-2.957-1.577-4.977-4.09-5.273V5.376h-1.281V7.15c-2.514,0.296-4.09,2.316-4.09,5.273v19.858c0,3.006,1.576,5.027,4.09,5.322
	v2.021h1.281v-2.021C25.653,37.309,27.23,35.238,27.23,32.281z"/>
</svg>
