<?xml version="1.0" encoding="utf-8"?>
<!-- Generator: Adobe Illustrator 16.0.0, SVG Export Plug-In . SVG Version: 6.00 Build 0)  -->
<!DOCTYPE svg PUBLIC "-//W3C//DTD SVG 1.1//EN" "http://www.w3.org/Graphics/SVG/1.1/DTD/svg11.dtd">
<svg version="1.1" id="Calque_1" xmlns="http://www.w3.org/2000/svg" xmlns:xlink="http://www.w3.org/1999/xlink" x="0px" y="0px"
	 width="45px" height="45px" viewBox="0 0 45 45" enable-background="new 0 0 45 45" xml:space="preserve">
<path fill="#333333" d="M26.71,23.07h-0.666h-2.046h-1.902v2.379h1.902v9.323c0,1.475-0.761,2.474-1.95,2.474
	s-1.95-0.904-1.95-2.283L20.05,10.038c0-1.379,0.809-2.283,1.998-2.283s1.95,0.951,1.95,2.378v1.95h2.712v-1.522
	c0-3.092-1.855-5.185-4.662-5.185s-4.661,2.045-4.661,5.09v24.069c0,3.043,1.854,5.089,4.661,5.089c1.57,0,2.807-0.618,3.615-1.76
	c0.428,0.618,0.999,1.142,1.713,1.569l0.237-0.237c-0.57-0.286-0.903-2.235-0.903-4.757V23.07z M26.472,10.561v-0.047l0.238,0.047
	h-0.096H26.472z"/>
</svg>
