<?xml version="1.0" encoding="utf-8"?>
<!-- Generator: Adobe Illustrator 16.0.0, SVG Export Plug-In . SVG Version: 6.00 Build 0)  -->
<!DOCTYPE svg PUBLIC "-//W3C//DTD SVG 1.1//EN" "http://www.w3.org/Graphics/SVG/1.1/DTD/svg11.dtd">
<svg version="1.1" id="Calque_1" xmlns="http://www.w3.org/2000/svg" xmlns:xlink="http://www.w3.org/1999/xlink" x="0px" y="0px"
	 width="45px" height="45px" viewBox="0 0 45 45" enable-background="new 0 0 45 45" xml:space="preserve">
<path fill="#333333" d="M23.015,7.515h-1.471v2.5c-3.824,0.478-6.288,3.015-6.288,6.545c0,3.31,1.985,5.295,5.847,6.692
	c3.897,1.399,5.919,3.531,5.919,5.663c0,2.574-1.985,4.267-5,4.267c-2.575,0-4.303-1.508-4.303-3.787v-0.994l-0.184-0.146h-1.029
	c-0.846,0-1.435,0.44-1.435,1.141c0,3.161,2.575,5.331,6.472,5.515v2.574h1.471v-2.609c4.192-0.367,6.913-3.091,6.913-7.024
	c0-2.979-2.17-5.736-6.398-7.245c-3.309-1.177-5.001-2.758-5.001-5.222c0-2.243,1.655-3.714,4.156-3.714
	c2.427,0,4.045,1.177,4.045,2.942v0.956l0.184,0.147h1.029c0.846,0,1.434-0.441,1.434-1.103c0-2.832-2.537-4.708-6.361-4.708V7.515z
	"/>
</svg>
