<?xml version="1.0" encoding="utf-8"?>
<!-- Generator: Adobe Illustrator 16.0.0, SVG Export Plug-In . SVG Version: 6.00 Build 0)  -->
<!DOCTYPE svg PUBLIC "-//W3C//DTD SVG 1.1//EN" "http://www.w3.org/Graphics/SVG/1.1/DTD/svg11.dtd">
<svg version="1.1" id="Calque_1" xmlns="http://www.w3.org/2000/svg" xmlns:xlink="http://www.w3.org/1999/xlink" x="0px" y="0px"
	 width="45px" height="45px" viewBox="0 0 45 45" enable-background="new 0 0 45 45" xml:space="preserve">
<path fill="#333333" d="M24.555,5.474v0.147l0.049,21.577c-0.146,1.614-0.979,2.642-2.152,2.642c-1.272,0-2.104-1.272-2.104-3.181
	c0-6.409,0.049-14.922,0.049-21.282h-1.321h-1.321v0.098v0.147v21.625c0,2.936,1.517,4.893,3.768,4.893
	c1.419,0,2.495-0.979,3.131-2.594v5.334c0,1.467-0.88,2.445-2.152,2.445s-2.104-0.93-2.104-2.299v-1.224v-0.098v-0.147h-1.321
	h-1.321v1.028c0,3.033,1.908,5.039,4.746,5.039s4.746-2.055,4.746-5.138V5.376h-1.321h-1.37V5.474z"/>
</svg>
