<?xml version="1.0" encoding="utf-8"?>
<!-- Generator: Adobe Illustrator 16.0.0, SVG Export Plug-In . SVG Version: 6.00 Build 0)  -->
<!DOCTYPE svg PUBLIC "-//W3C//DTD SVG 1.1//EN" "http://www.w3.org/Graphics/SVG/1.1/DTD/svg11.dtd">
<svg version="1.1" id="Calque_1" xmlns="http://www.w3.org/2000/svg" xmlns:xlink="http://www.w3.org/1999/xlink" x="0px" y="0px"
	 width="45px" height="45px" viewBox="0 0 45 45" enable-background="new 0 0 45 45" xml:space="preserve">
<path fill="#333333" d="M23.107,5.376H21.85V6.72c-2.167,0.39-3.555,2.471-3.555,5.462c0,3.425,1.127,7.066,3.338,10.708
	c1.994,3.208,2.991,6.806,2.991,9.711c0,1.95-0.866,3.295-2.124,3.295c-1.257,0-2.125-0.911-2.125-2.299v-3.944h-2.124v3.944
	c0,2.342,1.387,3.988,3.598,4.249v1.777h1.258v-1.777c2.211-0.347,3.641-2.472,3.641-5.636c0-2.947-1.17-6.85-3.381-10.535
	c-1.994-3.208-2.992-6.546-2.992-9.841c0-1.908,0.867-3.165,2.168-3.165c1.257,0,2.081,1.083,2.081,2.688v3.555h2.124v-3.555
	c0-2.601-1.43-4.378-3.641-4.639V5.376z"/>
</svg>
