<?xml version="1.0" encoding="utf-8"?>
<!-- Generator: Adobe Illustrator 16.0.0, SVG Export Plug-In . SVG Version: 6.00 Build 0)  -->
<!DOCTYPE svg PUBLIC "-//W3C//DTD SVG 1.1//EN" "http://www.w3.org/Graphics/SVG/1.1/DTD/svg11.dtd">
<svg version="1.1" id="Calque_1" xmlns="http://www.w3.org/2000/svg" xmlns:xlink="http://www.w3.org/1999/xlink" x="0px" y="0px"
	 width="45px" height="45px" viewBox="0 0 45 45" enable-background="new 0 0 45 45" xml:space="preserve">
<path fill="#333333" d="M20.144,23.895l3.888-0.823v6.77c0,0.183,0,0.366,0,0.549c-1.281,0.595-2.836,0.915-4.483,0.915
	c-2.012,0-3.339-1.372-3.339-3.385C16.21,25.999,17.766,24.398,20.144,23.895z M32.86,32.128l-0.458-0.549
	c-0.458,0.458-1.098,0.731-2.195,0.731c-1.418,0-1.829-1.189-1.829-2.928v-11.8c0-4.117-2.471-6.861-6.13-6.861
	c-4.94,0-8.645,2.013-9.239,5.031h4.117c0.457-2.333,2.149-3.888,4.208-3.888c1.601,0,2.699,1.921,2.699,4.803v5.352l-3.888,0.595
	c-4.803,0.731-8.004,3.293-8.004,6.449c0,2.974,2.15,4.985,5.352,4.985c2.241,0,4.666-0.961,6.679-2.516
	c0.319,1.692,1.188,2.745,3.201,2.745C29.978,34.278,31.579,33.408,32.86,32.128z"/>
</svg>
