<?xml version="1.0" encoding="utf-8"?>
<!-- Generator: Adobe Illustrator 16.0.0, SVG Export Plug-In . SVG Version: 6.00 Build 0)  -->
<!DOCTYPE svg PUBLIC "-//W3C//DTD SVG 1.1//EN" "http://www.w3.org/Graphics/SVG/1.1/DTD/svg11.dtd">
<svg version="1.1" id="Calque_1" xmlns="http://www.w3.org/2000/svg" xmlns:xlink="http://www.w3.org/1999/xlink" x="0px" y="0px"
	 width="105px" height="70px" viewBox="0 0 105 70" enable-background="new 0 0 105 70" xml:space="preserve">
<g>
	<path fill="#3C3C3B" d="M16.884,44.396H11.13L9.67,61.229H4.775l5.84-60.113h6.784l5.839,60.113h-4.895L16.884,44.396z
		 M16.541,40.104l-2.49-29.799l-2.577,29.799H16.541z"/>
	<path fill="#3C3C3B" d="M35.005,69.387c-4.638,0-8.33-2.576-8.33-8.846V59.34h4.637v1.975c0,2.49,1.631,4.037,3.693,4.037
		c2.061,0,3.692-1.547,3.692-4.037v-8.846c-1.116,3.178-3.177,4.209-5.41,4.209c-3.693,0-6.612-2.232-6.612-8.846V18.119
		c0-6.613,2.919-8.845,6.612-8.845c2.233,0,4.294,1.03,5.41,4.208V9.703h4.637v50.838C43.334,65.953,39.556,69.387,35.005,69.387z
		 M35.005,52.641c2.061,0,3.692-1.459,3.692-5.84V19.149c0-4.379-1.632-5.925-3.692-5.925c-2.062,0-3.693,1.374-3.693,5.925v27.651
		C31.312,51.268,32.943,52.641,35.005,52.641z"/>
	<path fill="#3C3C3B" d="M61.369,29.369V17.947c0-3.349-1.632-4.637-3.693-4.637c-2.061,0-3.692,1.288-3.692,4.637V53.07
		c0,3.264,1.632,4.553,3.692,4.553c2.062,0,3.693-1.289,3.693-4.553V42.078h4.637v10.734c0,5.754-3.778,8.846-8.33,8.846
		c-4.637,0-8.33-3.092-8.33-8.846V18.119c0-5.754,3.693-8.845,8.33-8.845c4.552,0,8.33,3.091,8.33,8.845v11.25H61.369z"/>
</g>
</svg>
