<?xml version="1.0" encoding="utf-8"?>
<!-- Generator: Adobe Illustrator 19.0.0, SVG Export Plug-In . SVG Version: 6.00 Build 0)  -->
<svg version="1.1" id="Calque_1" xmlns="http://www.w3.org/2000/svg" xmlns:xlink="http://www.w3.org/1999/xlink" x="0px" y="0px"
	 viewBox="0 0 12 12" style="enable-background:new 0 0 12 12;" xml:space="preserve">
<style type="text/css">
	.st0{fill:#FFFFFF;}
</style>
<path id="XMLID_3_" class="st0" d="M6,0C2.7,0,0,2.7,0,6s2.7,6,6,6c3.3,0,6-2.7,6-6S9.3,0,6,0z M8.7,6.7h-2v2c0,0.4-0.3,0.7-0.7,0.7
	S5.3,9.1,5.3,8.7v-2h-2C2.9,6.7,2.6,6.4,2.6,6c0-0.4,0.3-0.7,0.7-0.7h2v-2c0-0.4,0.3-0.7,0.7-0.7s0.7,0.3,0.7,0.7v2h2
	c0.4,0,0.7,0.3,0.7,0.7C9.4,6.4,9.1,6.7,8.7,6.7z"/>
</svg>
