<?xml version="1.0" encoding="utf-8"?>
<!-- Generator: Adobe Illustrator 16.0.0, SVG Export Plug-In . SVG Version: 6.00 Build 0)  -->
<!DOCTYPE svg PUBLIC "-//W3C//DTD SVG 1.1//EN" "http://www.w3.org/Graphics/SVG/1.1/DTD/svg11.dtd">
<svg version="1.1" id="Calque_1" xmlns="http://www.w3.org/2000/svg" xmlns:xlink="http://www.w3.org/1999/xlink" x="0px" y="0px"
	 width="24.43px" height="25px" viewBox="0 0 24.43 25" enable-background="new 0 0 24.43 25" xml:space="preserve">
<path fill="#FFFFFF" d="M24.392,14.747c-0.416-2.089-4.256-3.18-8.053-3.18c-0.055,0-0.107,0.002-0.162,0.002V9.874V6.715V3.557
	C16.177,1.221,12.109,0,8.089,0C4.068,0,0,1.221,0,3.557v3.158v3.159v3.159v3.159c0,2.335,4.068,3.557,8.089,3.557
	c0.055,0,0.108-0.001,0.162-0.001v1.694c0,2.335,4.069,3.558,8.088,3.558s8.09-1.223,8.09-3.558v-3.159v-3.159v-0.377H24.392z
	 M16.339,23.617c-4.094,0-6.705-1.288-6.705-2.175c0-0.238,0.195-0.507,0.553-0.771c1.56,0.773,3.863,1.17,6.152,1.17
	s4.594-0.396,6.154-1.17c0.357,0.265,0.553,0.533,0.553,0.771C23.046,22.329,20.433,23.617,16.339,23.617z M1.383,16.192
	c0-0.238,0.196-0.507,0.553-0.771C3.496,16.193,5.8,16.59,8.089,16.59c0.055,0,0.108-0.001,0.162-0.001v1.694v0.08
	c-0.055,0-0.106,0.003-0.162,0.003C3.995,18.366,1.383,17.079,1.383,16.192z M21.74,19.487c-0.287,0.134-0.613,0.261-0.984,0.376
	c-1.127,0.349-2.631,0.593-4.416,0.593c-1.783,0-3.287-0.244-4.414-0.593c-0.335-0.104-0.639-0.219-0.905-0.338
	c-0.028-0.012-0.053-0.024-0.08-0.038c-0.301-0.139-0.553-0.285-0.753-0.433c-0.046-0.035-0.091-0.068-0.131-0.103
	c-0.266-0.225-0.411-0.448-0.419-0.651c0-0.006-0.003-0.012-0.003-0.018c0-0.239,0.195-0.507,0.552-0.77
	c0.397,0.195,0.842,0.368,1.322,0.515c0.311,0.096,0.637,0.181,0.973,0.255c0.135,0.031,0.273,0.059,0.412,0.085
	c0.441,0.085,0.898,0.152,1.365,0.203c0.219,0.023,0.439,0.044,0.66,0.06c0.471,0.034,0.945,0.052,1.42,0.052
	s0.949-0.018,1.42-0.052c0.846-0.061,1.672-0.178,2.439-0.348c0.857-0.19,1.641-0.447,2.295-0.77c0.357,0.263,0.553,0.53,0.553,0.77
	c0,0.238-0.195,0.507-0.553,0.771C22.292,19.202,22.041,19.349,21.74,19.487z M2.689,14.238c-0.302-0.141-0.554-0.286-0.754-0.434
	c-0.356-0.265-0.553-0.532-0.553-0.771c0-0.238,0.196-0.506,0.552-0.77c0.654,0.323,1.438,0.581,2.297,0.77
	c0.768,0.171,1.594,0.286,2.439,0.348c0.47,0.033,0.943,0.051,1.418,0.051c0.353,0,0.706-0.009,1.058-0.028
	c-0.227,0.193-0.413,0.402-0.558,0.625c-0.217,0.332-0.338,0.697-0.338,1.096v0.001v0.079c-0.055,0.001-0.106,0.004-0.162,0.004
	c-1.785,0-3.288-0.246-4.416-0.596C3.302,14.498,2.976,14.371,2.689,14.238z M1.383,9.874c0-0.238,0.196-0.506,0.553-0.77
	c0.653,0.324,1.437,0.58,2.295,0.77c0.767,0.17,1.593,0.287,2.438,0.347c0.47,0.034,0.944,0.052,1.42,0.052
	c0.475,0,0.949-0.018,1.419-0.052c0.846-0.061,1.672-0.177,2.439-0.347c0.857-0.19,1.643-0.446,2.295-0.77
	c0.357,0.264,0.553,0.532,0.553,0.77c0,0.24-0.195,0.507-0.553,0.771c-0.199,0.148-0.451,0.294-0.752,0.434
	c-0.287,0.133-0.613,0.26-0.984,0.375c-1.128,0.35-2.631,0.595-4.417,0.595c-1.786,0-3.289-0.245-4.417-0.595
	c-0.371-0.115-0.697-0.242-0.982-0.375c-0.302-0.14-0.554-0.286-0.755-0.434C1.579,10.381,1.383,10.114,1.383,9.874z M1.383,6.715
	c0-0.238,0.196-0.506,0.553-0.771C2.59,6.269,3.373,6.526,4.232,6.715c0.769,0.171,1.596,0.287,2.443,0.347
	c0.468,0.034,0.94,0.052,1.413,0.052c0.472,0,0.944-0.018,1.413-0.052c0.847-0.061,1.674-0.176,2.443-0.347
	c0.859-0.189,1.645-0.446,2.297-0.771c0.357,0.265,0.553,0.532,0.553,0.771c0,0.239-0.195,0.507-0.553,0.771
	c-0.201,0.148-0.451,0.293-0.754,0.434c-0.285,0.132-0.613,0.26-0.984,0.375c-1.127,0.35-2.63,0.595-4.415,0.595
	c-1.785,0-3.288-0.245-4.416-0.595C3.302,8.181,2.976,8.053,2.689,7.92C2.388,7.78,2.136,7.635,1.936,7.487
	C1.579,7.223,1.383,6.954,1.383,6.715z"/>
</svg>
