<?xml version="1.0" encoding="utf-8"?>
<!-- Generator: Adobe Illustrator 16.0.0, SVG Export Plug-In . SVG Version: 6.00 Build 0)  -->
<!DOCTYPE svg PUBLIC "-//W3C//DTD SVG 1.1//EN" "http://www.w3.org/Graphics/SVG/1.1/DTD/svg11.dtd">
<svg version="1.1" id="Calque_1" xmlns="http://www.w3.org/2000/svg" xmlns:xlink="http://www.w3.org/1999/xlink" x="0px" y="0px"
	 width="48.857px" height="50px" viewBox="-12.214 -12.5 48.857 50" enable-background="new -12.214 -12.5 48.857 50"
	 xml:space="preserve">
<path fill="#6CEAB4" d="M36.569,16.994c-0.832-4.178-8.512-6.36-16.105-6.36c-0.109,0-0.215,0.004-0.324,0.004v-3.39V0.93v-6.315
	c0-4.672-8.136-7.114-16.175-7.114c-8.043,0-16.178,2.442-16.178,7.114V0.93v6.318v6.318v6.316c0,4.672,8.135,7.115,16.178,7.115
	c0.109,0,0.215-0.002,0.324-0.002v3.387c0,4.672,8.137,7.117,16.175,7.117c8.037,0,16.18-2.445,16.18-7.117v-6.316v-6.318v-0.754
	H36.569z M20.463,34.734c-8.187,0-13.41-2.576-13.41-4.352c0-0.475,0.391-1.012,1.105-1.541c3.121,1.545,7.726,2.34,12.304,2.34
	s9.188-0.791,12.309-2.34c0.713,0.529,1.105,1.066,1.105,1.541C33.877,32.158,28.651,34.734,20.463,34.734z M-9.448,19.883
	c0-0.475,0.393-1.012,1.105-1.541c3.121,1.545,7.729,2.338,12.307,2.338c0.109,0,0.215-0.002,0.324-0.002v3.389v0.16
	c-0.111,0-0.213,0.006-0.324,0.006C-4.224,24.232-9.448,21.658-9.448,19.883z M31.266,26.473c-0.574,0.27-1.227,0.523-1.969,0.754
	c-2.254,0.697-5.262,1.186-8.832,1.186c-3.566,0-6.574-0.488-8.828-1.186c-0.67-0.209-1.277-0.438-1.811-0.676
	c-0.055-0.023-0.105-0.049-0.16-0.078c-0.602-0.277-1.105-0.568-1.506-0.863c-0.092-0.07-0.182-0.137-0.262-0.207
	c-0.531-0.449-0.822-0.896-0.838-1.303c0-0.012-0.006-0.023-0.006-0.035c0-0.479,0.391-1.014,1.104-1.541
	c0.795,0.391,1.684,0.736,2.645,1.031c0.621,0.191,1.273,0.361,1.945,0.51c0.271,0.061,0.547,0.117,0.824,0.17
	c0.883,0.17,1.797,0.305,2.73,0.406c0.438,0.045,0.879,0.086,1.32,0.119c0.941,0.068,1.891,0.104,2.84,0.104s1.898-0.035,2.84-0.104
	c1.691-0.123,3.344-0.355,4.879-0.695c1.713-0.381,3.281-0.895,4.59-1.541c0.713,0.527,1.105,1.061,1.105,1.541
	c0,0.475-0.391,1.014-1.105,1.541C32.369,25.904,31.867,26.199,31.266,26.473z M-6.837,15.977c-0.604-0.281-1.107-0.572-1.508-0.867
	c-0.711-0.531-1.105-1.066-1.105-1.543s0.393-1.013,1.104-1.54c1.309,0.646,2.877,1.161,4.594,1.54
	c1.537,0.342,3.189,0.57,4.879,0.695c0.939,0.066,1.885,0.102,2.836,0.102c0.705,0,1.412-0.018,2.115-0.055
	c-0.453,0.387-0.826,0.805-1.115,1.25c-0.434,0.664-0.676,1.395-0.676,2.191v0.002v0.158c-0.111,0.002-0.213,0.008-0.324,0.008
	c-3.57,0-6.576-0.492-8.832-1.191C-5.611,16.496-6.263,16.242-6.837,15.977z M-9.448,7.248c0-0.477,0.393-1.012,1.105-1.54
	c1.307,0.648,2.875,1.16,4.59,1.54c1.535,0.34,3.188,0.574,4.877,0.694C2.063,8.01,3.01,8.046,3.964,8.046
	c0.949,0,1.898-0.036,2.838-0.104c1.691-0.122,3.344-0.354,4.877-0.694c1.714-0.38,3.287-0.892,4.591-1.54
	c0.713,0.528,1.105,1.063,1.105,1.54c0,0.48-0.391,1.014-1.105,1.542c-0.398,0.296-0.902,0.588-1.504,0.868
	c-0.574,0.266-1.227,0.52-1.969,0.75c-2.255,0.7-5.261,1.189-8.833,1.189s-6.578-0.489-8.834-1.189
	c-0.742-0.23-1.395-0.484-1.965-0.75c-0.604-0.28-1.107-0.572-1.51-0.868C-9.056,8.262-9.448,7.729-9.448,7.248z M-9.448,0.93
	c0-0.476,0.393-1.012,1.105-1.542c1.309,0.65,2.875,1.164,4.592,1.542c1.539,0.342,3.193,0.574,4.887,0.694
	c0.936,0.068,1.881,0.104,2.826,0.104c0.943,0,1.889-0.036,2.826-0.104c1.693-0.122,3.348-0.353,4.885-0.694
	c1.718-0.378,3.291-0.892,4.595-1.542c0.713,0.53,1.105,1.064,1.105,1.542c0,0.479-0.391,1.015-1.105,1.542
	c-0.402,0.296-0.902,0.586-1.51,0.868c-0.568,0.264-1.225,0.521-1.967,0.75c-2.253,0.7-5.259,1.19-8.83,1.19S-2.615,4.79-4.87,4.09
	c-0.74-0.228-1.393-0.483-1.967-0.75c-0.602-0.28-1.105-0.57-1.506-0.866C-9.056,1.946-9.448,1.408-9.448,0.93z"/>
</svg>
