<?xml version="1.0" encoding="utf-8"?>
<!-- Generator: Adobe Illustrator 16.0.0, SVG Export Plug-In . SVG Version: 6.00 Build 0)  -->
<!DOCTYPE svg PUBLIC "-//W3C//DTD SVG 1.1//EN" "http://www.w3.org/Graphics/SVG/1.1/DTD/svg11.dtd">
<svg version="1.1" id="Calque_1" xmlns="http://www.w3.org/2000/svg" xmlns:xlink="http://www.w3.org/1999/xlink" x="0px" y="0px"
	 width="22px" height="20px" viewBox="0 0 22 20" enable-background="new 0 0 22 20" xml:space="preserve">
<g>
	<path fill="#49E4A9" d="M15,20H3c-1.654,0-3-1.346-3-3V5c0-1.654,1.346-3,3-3h12c1.654,0,3,1.346,3,3v12C18,18.654,16.654,20,15,20
		z M3,4C2.449,4,2,4.449,2,5v12c0,0.551,0.449,1,1,1h12c0.551,0,1-0.449,1-1V5c0-0.551-0.449-1-1-1H3z"/>
</g>
</svg>
