<?xml version="1.0" encoding="utf-8"?>
<!-- Generator: Adobe Illustrator 16.0.0, SVG Export Plug-In . SVG Version: 6.00 Build 0)  -->
<!DOCTYPE svg PUBLIC "-//W3C//DTD SVG 1.1//EN" "http://www.w3.org/Graphics/SVG/1.1/DTD/svg11.dtd">
<svg version="1.1" id="Calque_1" xmlns="http://www.w3.org/2000/svg" xmlns:xlink="http://www.w3.org/1999/xlink" x="0px" y="0px"
	 width="16px" height="16px" viewBox="0 4 16 16" enable-background="new 0 4 16 16" xml:space="preserve">
<polyline fill="none" stroke="#FF725E" stroke-width="2.847" stroke-miterlimit="10" points="3.581,12.3 6.335,15.054 14.117,7.272 
	"/>
<path fill="#49E4A9" d="M11.505,14.168v3.813c0,0.393-0.319,0.712-0.712,0.712H2.252c-0.392,0-0.712-0.319-0.712-0.712V9.44
	c0-0.393,0.32-0.711,0.712-0.711h6.273l1.423-1.424H2.252c-1.177,0-2.135,0.958-2.135,2.135v8.541c0,1.178,0.958,2.136,2.135,2.136
	h8.541c1.178,0,2.136-0.958,2.136-2.136v-5.236L11.505,14.168z"/>
</svg>
