<?xml version="1.0" encoding="utf-8"?>
<!-- Generator: Adobe Illustrator 16.0.0, SVG Export Plug-In . SVG Version: 6.00 Build 0)  -->
<!DOCTYPE svg PUBLIC "-//W3C//DTD SVG 1.1//EN" "http://www.w3.org/Graphics/SVG/1.1/DTD/svg11.dtd">
<svg version="1.1" id="Calque_1" xmlns="http://www.w3.org/2000/svg" xmlns:xlink="http://www.w3.org/1999/xlink" x="0px" y="0px"
	 width="16px" height="16px" viewBox="0 4 16 16" enable-background="new 0 4 16 16" xml:space="preserve">
<g>
	<path fill="#49E4A9" d="M10.567,20H2.113C0.948,20,0,19.052,0,17.887V9.433c0-1.165,0.948-2.113,2.113-2.113h8.454
		c1.165,0,2.113,0.948,2.113,2.113v8.454C12.681,19.052,11.732,20,10.567,20z M2.113,8.729c-0.388,0-0.704,0.316-0.704,0.704v8.454
		c0,0.388,0.316,0.704,0.704,0.704h8.454c0.388,0,0.704-0.316,0.704-0.704V9.433c0-0.388-0.316-0.704-0.704-0.704H2.113z"/>
</g>
</svg>
