<?xml version="1.0" encoding="utf-8"?>
<!-- Generator: Adobe Illustrator 16.0.0, SVG Export Plug-In . SVG Version: 6.00 Build 0)  -->
<!DOCTYPE svg PUBLIC "-//W3C//DTD SVG 1.1//EN" "http://www.w3.org/Graphics/SVG/1.1/DTD/svg11.dtd">
<svg version="1.1" id="Calque_1" xmlns="http://www.w3.org/2000/svg" xmlns:xlink="http://www.w3.org/1999/xlink" x="0px" y="0px"
	 width="105px" height="70px" viewBox="0 0 105 70" enable-background="new 0 0 105 70" xml:space="preserve">
<g>
	<g id="XMLID_24_">
		<path id="XMLID_26_" fill="#F6F6F6" d="M81.375,15.312c-0.438-0.438-1.312-0.438-2.188,0L54.25,26.25l-4.375-2.188l1.312-0.875
			L70.875,14c0.875-0.438,1.312-1.75,0.875-3.062c-0.438-0.875-1.75-1.312-3.062-0.875L45.062,21.438
			c-0.875,0.438-1.312,0.875-1.312,1.75v40.25c0,0.875,0.438,1.75,1.312,1.75l9.188,4.375c0.438,0,0.438,0,0.875,0s0.438,0,0.875,0
			l25.375-11.375c0.875-0.438,1.312-1.312,1.312-1.75V17.062C82.688,16.188,82.25,15.75,81.375,15.312z"/>
		<path id="XMLID_25_" fill="#F6F6F6" d="M39.375,19.25l4.375-2.188L60.812,8.75V7.438c0-0.875-0.438-1.312-0.875-1.75
			s-1.312-0.438-2.188,0L32.812,16.625l-4.375-2.188l1.312-0.875l19.688-9.188c0.875-0.438,1.312-1.75,0.875-2.625
			C49.875,0,48.562-0.438,47.688,0L23.625,11.375c-0.875,0.438-1.312,1.312-1.312,2.188v40.25c0,0.875,0.438,1.75,1.312,1.75
			l9.188,4.375c0.438,0,0.438,0,0.875,0s0.438,0,0.875,0l5.25-2.188V24.5v-5.25H39.375z"/>
	</g>
</g>
</svg>
