<?xml version="1.0" encoding="utf-8"?>
<!-- Generator: Adobe Illustrator 19.0.0, SVG Export Plug-In . SVG Version: 6.00 Build 0)  -->
<svg version="1.1" id="Calque_1" xmlns="http://www.w3.org/2000/svg" xmlns:xlink="http://www.w3.org/1999/xlink" x="0px" y="0px"
	 viewBox="0 0 13.8 16" style="enable-background:new 0 0 13.8 16;" xml:space="preserve">
<style type="text/css">
	.st0{fill:#C7C6C6;}
</style>
<g>
	<g id="XMLID_24_">
		<path id="XMLID_26_" class="st0" d="M13.5,3.5c-0.1-0.1-0.3-0.1-0.5,0L7.3,6L6.3,5.5l0.3-0.2l4.5-2.1c0.2-0.1,0.3-0.4,0.2-0.7
			c-0.1-0.2-0.4-0.3-0.7-0.2L5.2,4.9C5,5,4.9,5.1,4.9,5.3v9.2c0,0.2,0.1,0.4,0.3,0.4l2.1,1c0.1,0,0.1,0,0.2,0c0.1,0,0.1,0,0.2,0
			l5.8-2.6c0.2-0.1,0.3-0.3,0.3-0.4v-9C13.8,3.7,13.7,3.6,13.5,3.5z"/>
		<path id="XMLID_25_" class="st0" d="M3.9,4.4l1-0.5l3.9-1.9V1.7c0-0.2-0.1-0.3-0.2-0.4c-0.1-0.1-0.3-0.1-0.5,0L2.4,3.8L1.4,3.3
			l0.3-0.2l4.5-2.1c0.2-0.1,0.3-0.4,0.2-0.6C6.3,0,6-0.1,5.8,0L0.3,2.6C0.1,2.7,0,2.9,0,3.1v9.2c0,0.2,0.1,0.4,0.3,0.4l2.1,1
			c0.1,0,0.1,0,0.2,0c0.1,0,0.1,0,0.2,0l1.2-0.5V5.6V4.4z"/>
	</g>
</g>
</svg>
