<?xml version="1.0" encoding="utf-8"?>
<!-- Generator: Adobe Illustrator 16.0.0, SVG Export Plug-In . SVG Version: 6.00 Build 0)  -->
<!DOCTYPE svg PUBLIC "-//W3C//DTD SVG 1.1//EN" "http://www.w3.org/Graphics/SVG/1.1/DTD/svg11.dtd">
<svg version="1.1" id="Calque_1" xmlns="http://www.w3.org/2000/svg" xmlns:xlink="http://www.w3.org/1999/xlink" x="0px" y="0px"
	 width="70px" height="70px" viewBox="0 0 70 70" enable-background="new 0 0 70 70" xml:space="preserve">
<g>
	<path fill="#6F6F6E" d="M23.921,31.822l1.111-1.114l-1.009-1.092l2.363-2.179c0.087-0.074,0.14-0.184,0.146-0.297l-0.035-0.217
		l-0.075-0.086c-0.08-0.09-0.195-0.14-0.318-0.14l-0.208,0.033l-2.446,2.261l-0.79-0.858l2.358-2.173
		c0.09-0.077,0.144-0.187,0.149-0.306l-0.035-0.217l-0.08-0.088c-0.08-0.085-0.194-0.134-0.314-0.134l-0.205,0.035l-2.45,2.256
		l-0.79-0.855l2.362-2.176c0.085-0.074,0.136-0.176,0.144-0.288l-0.028-0.231l-0.084-0.088c-0.08-0.088-0.193-0.138-0.312-0.138
		l-0.208,0.039l-2.448,2.259l-0.792-0.858l2.373-2.187c0.166-0.156,0.179-0.418,0.017-0.605c-0.082-0.083-0.193-0.129-0.311-0.129
		L21.8,22.285l-2.449,2.256l-0.861-0.936l4.715-4.341c0.156-0.143,0.246-0.338,0.254-0.55c0.009-0.208-0.066-0.409-0.208-0.561
		c-0.283-0.305-0.811-0.331-1.112-0.047l-4.714,4.341l-0.913-0.987l2.364-2.179c0.086-0.075,0.135-0.179,0.142-0.292l-0.032-0.229
		L18.9,18.67c-0.08-0.082-0.193-0.132-0.309-0.132l-0.205,0.039l-2.45,2.259l-0.791-0.862l2.374-2.181
		c0.167-0.156,0.18-0.417,0.021-0.599c-0.081-0.088-0.194-0.138-0.311-0.138l-0.208,0.042l-2.45,2.253l-0.787-0.853l2.37-2.187
		c0.171-0.163,0.179-0.429,0.018-0.602c-0.08-0.086-0.192-0.135-0.311-0.135l-0.208,0.039l-2.448,2.258l-0.791-0.858l2.371-2.182
		l0.133-0.178l0.004-0.121l-0.036-0.22l-0.08-0.085c-0.079-0.085-0.19-0.135-0.306-0.135l-0.209,0.042l-2.452,2.256l-0.896-0.977
		l4.715-4.343c0.315-0.292,0.337-0.79,0.046-1.112c-0.281-0.305-0.809-0.324-1.114-0.043l-4.715,4.344l-2.384-2.589l8.267-7.615
		l17.229,18.704l1.11-1.111L16.383,2.409c-0.285-0.305-0.806-0.326-1.109-0.045L5.85,11.045c-0.154,0.141-0.243,0.336-0.252,0.545
		c-0.008,0.209,0.066,0.408,0.208,0.564L23.921,31.822z"/>
	<path fill="#6F6F6E" d="M67.449,57.979L46.412,34.897L45.3,36.009l20.461,22.458l-8.268,7.612l-1.95-2.357l2.365-2.174
		c0.087-0.074,0.136-0.182,0.142-0.295l-0.029-0.228l-0.084-0.088c-0.08-0.085-0.193-0.132-0.312-0.132l-0.206,0.038l-2.45,2.253
		l-0.788-0.858l2.373-2.185c0.168-0.156,0.176-0.426,0.021-0.594c-0.08-0.088-0.195-0.141-0.314-0.141l-0.207,0.039l-2.449,2.256
		l-0.789-0.855l2.364-2.182c0.087-0.078,0.136-0.18,0.141-0.292l-0.034-0.223l-0.079-0.088c-0.083-0.085-0.194-0.135-0.313-0.135
		l-0.209,0.038l-2.448,2.254l-0.788-0.856l2.361-2.175c0.088-0.075,0.138-0.18,0.146-0.295l-0.033-0.211l-0.069-0.086
		c-0.08-0.096-0.195-0.152-0.322-0.152l-0.209,0.039l-2.449,2.253l-0.904-0.981l4.714-4.341c0.155-0.144,0.245-0.339,0.253-0.548
		c0.01-0.212-0.064-0.413-0.207-0.563c-0.276-0.309-0.807-0.331-1.109-0.05L48.9,56.511l-0.92-1.001l2.362-2.173
		c0.088-0.074,0.14-0.18,0.147-0.291l-0.033-0.232l-0.084-0.088c-0.08-0.084-0.195-0.135-0.31-0.135l-0.204,0.036l-2.453,2.259
		l-0.789-0.855l2.365-2.182c0.084-0.072,0.135-0.176,0.14-0.286l-0.033-0.226l-0.08-0.088c-0.077-0.088-0.192-0.138-0.312-0.138
		l-0.206,0.036l-2.452,2.255l-0.789-0.855l2.371-2.179c0.174-0.159,0.188-0.423,0.018-0.615c-0.082-0.08-0.19-0.127-0.305-0.127
		l-0.209,0.041l-2.45,2.253l-0.788-0.854l2.369-2.186c0.082-0.074,0.131-0.179,0.135-0.294l-0.034-0.226l-0.083-0.086
		c-0.08-0.082-0.193-0.131-0.307-0.131l-0.208,0.038l-2.446,2.255l-0.908-0.984l4.713-4.338c0.156-0.143,0.248-0.335,0.256-0.547
		c0.01-0.212-0.064-0.41-0.208-0.564c-0.284-0.309-0.806-0.33-1.114-0.047L41.339,48.3l-0.92-1.002l2.367-2.175l0.134-0.179
		l0.005-0.121l-0.031-0.223l-0.084-0.089c-0.082-0.085-0.193-0.132-0.31-0.132l-0.208,0.039l-2.451,2.255l-0.787-0.854l2.366-2.182
		c0.083-0.077,0.134-0.18,0.14-0.291l-0.033-0.225l-0.078-0.087c-0.08-0.089-0.194-0.138-0.314-0.138l-0.209,0.035l-2.447,2.26
		l-1.133-1.228l-1.114,1.111l20.64,22.647c0.141,0.151,0.331,0.242,0.559,0.256h0.016c0.197,0,0.381-0.071,0.536-0.206l9.423-8.683
		c0.152-0.145,0.244-0.338,0.252-0.544S67.591,58.143,67.449,57.979z"/>
	<path fill="#6F6F6E" d="M66.019,11.75l-8.941-9.332c-0.503-0.516-1.42-0.537-1.935-0.023L13.185,43.976L2.493,64.562
		c-0.271,0.525-0.166,1.184,0.261,1.596c0.255,0.247,0.589,0.386,0.944,0.386c0.234,0,0.456-0.059,0.665-0.174l20.079-11.213
		l0.243-0.184l41.311-41.32C66.525,13.133,66.537,12.294,66.019,11.75z M56.073,5.3l4.01,4.122L22.359,46.663l-3.999-4L56.073,5.3z
		 M22.89,52.916l-8.952,4.998c-2.055-0.698-2.848-2.36-3.147-3.491l4.514-8.739l2.198-2.173l7.395,7.396L22.89,52.916z
		 M25.75,50.058l-2.565-2.569l37.703-37.224l2.249,2.407L25.75,50.058z"/>
</g>
</svg>
