<?xml version="1.0" encoding="utf-8"?>
<!-- Generator: Adobe Illustrator 16.0.0, SVG Export Plug-In . SVG Version: 6.00 Build 0)  -->
<!DOCTYPE svg PUBLIC "-//W3C//DTD SVG 1.1//EN" "http://www.w3.org/Graphics/SVG/1.1/DTD/svg11.dtd">
<svg version="1.1" id="Calque_1" xmlns="http://www.w3.org/2000/svg" xmlns:xlink="http://www.w3.org/1999/xlink" x="0px" y="0px"
	 width="45px" height="45px" viewBox="0 0 45 45" enable-background="new 0 0 45 45" xml:space="preserve">
<g>
	<path fill="#333333" d="M12.564,27.674c0-2.607,1.036-5.753,6.211-6.831c4.14-0.87,7.037-1.242,7.037-3.312
		c0-1.448-1.241-2.277-3.726-2.277c-2.276,0-4.139,1.035-4.554,3.312l-4.347-1.448c1.242-3.934,4.347-5.796,8.9-5.796
		c6.002,0,8.487,2.484,8.487,8.279v8.694c0,1.242,0.414,1.449,1.861,1.449v3.52h-3.104c-2.482,0-3.104-0.621-3.104-3.52
		c-1.449,2.691-3.104,3.934-7.244,3.934C15.381,33.678,12.564,31.4,12.564,27.674z M25.812,24.777v-2.692
		c-0.828,0.828-1.655,1.242-4.14,1.862c-3.312,0.83-4.347,1.656-4.347,3.52c0,1.658,1.034,2.898,3.104,2.898
		C23.536,30.365,25.812,28.09,25.812,24.777z"/>
</g>
</svg>
