<?xml version="1.0" encoding="utf-8"?>
<!-- Generator: Adobe Illustrator 16.0.0, SVG Export Plug-In . SVG Version: 6.00 Build 0)  -->
<!DOCTYPE svg PUBLIC "-//W3C//DTD SVG 1.1//EN" "http://www.w3.org/Graphics/SVG/1.1/DTD/svg11.dtd">
<svg version="1.1" id="Calque_1" xmlns="http://www.w3.org/2000/svg" xmlns:xlink="http://www.w3.org/1999/xlink" x="0px" y="0px"
	 width="40px" height="40px" viewBox="0 0 40 40" enable-background="new 0 0 40 40" xml:space="preserve">
<g>
	<path fill="#FFFFFF" d="M36.051,20.702c-1.071,0-1.939,0.869-1.939,1.94v9.174H6.871v-9.174c0-1.071-0.869-1.94-1.94-1.94
		c-1.071,0-1.94,0.869-1.94,1.94v11.114c0,1.071,0.87,1.94,1.94,1.94h31.12c1.071,0,1.939-0.869,1.939-1.94V22.643
		C37.99,21.571,37.122,20.702,36.051,20.702z"/>
	<path fill="#FFFFFF" d="M19.721,27.146c0.18,0.246,0.466,0.393,0.771,0.393c0.304,0,0.59-0.146,0.769-0.393l6.358-8.754
		c0.21-0.289,0.241-0.672,0.078-0.99c-0.162-0.319-0.49-0.52-0.848-0.52h-4.139V5.275c0-1.226-0.994-2.221-2.219-2.221
		c-1.226,0-2.22,0.995-2.22,2.221v11.606h-4.14c-0.357,0.001-0.685,0.202-0.846,0.52c-0.163,0.318-0.134,0.702,0.077,0.99
		L19.721,27.146z"/>
</g>
</svg>
