<?xml version="1.0" encoding="utf-8"?>
<!-- Generator: Adobe Illustrator 16.0.0, SVG Export Plug-In . SVG Version: 6.00 Build 0)  -->
<!DOCTYPE svg PUBLIC "-//W3C//DTD SVG 1.1//EN" "http://www.w3.org/Graphics/SVG/1.1/DTD/svg11.dtd">
<svg version="1.1" id="Calque_1" xmlns="http://www.w3.org/2000/svg" xmlns:xlink="http://www.w3.org/1999/xlink" x="0px" y="0px"
	 width="32px" height="32px" viewBox="0 0 32 32" enable-background="new 0 0 32 32" xml:space="preserve">
<g>
	<path fill="#49E4A9" d="M9.233,22.617c0,0,0.145-0.152,0.347-0.397c0.062-0.05,0.082-0.151,0.1-0.261
		c0.021-0.107,0.042-0.221,0.065-0.338c0.045-0.233,0.094-0.482,0.142-0.732c0.193-0.996,0.386-1.994,0.386-1.994l2.829,2.828
		c0,0-0.988,0.203-1.976,0.405c-0.247,0.051-0.494,0.101-0.726,0.149c-0.116,0.023-0.228,0.046-0.334,0.068
		c-0.107,0.02-0.211,0.037-0.266,0.094c-0.258,0.188-0.42,0.324-0.42,0.324L9.233,22.617z"/>
	
		<rect x="13.712" y="11.299" transform="matrix(-0.7072 -0.707 0.707 -0.7072 15.3094 38.9085)" fill="#49E4A9" width="4" height="9.97"/>
	
		<rect x="19.513" y="9.978" transform="matrix(0.7086 -0.7056 0.7056 0.7086 -2.8836 17.5103)" fill="#49E4A9" width="0.491" height="4.537"/>
	
		<rect x="18.472" y="10.286" transform="matrix(0.707 0.7072 -0.7072 0.707 14.153 -11.0983)" fill="#49E4A9" width="4" height="2.494"/>
</g>
</svg>
