<?xml version="1.0" encoding="utf-8"?>
<!-- Generator: Adobe Illustrator 16.0.0, SVG Export Plug-In . SVG Version: 6.00 Build 0)  -->
<!DOCTYPE svg PUBLIC "-//W3C//DTD SVG 1.1//EN" "http://www.w3.org/Graphics/SVG/1.1/DTD/svg11.dtd">
<svg version="1.1" id="Calque_1" xmlns="http://www.w3.org/2000/svg" xmlns:xlink="http://www.w3.org/1999/xlink" x="0px" y="0px"
	 width="105px" height="70px" viewBox="0 0 105 70" enable-background="new 0 0 105 70" xml:space="preserve">
<g id="XMLID_54_">
	<path id="XMLID_58_" fill="#C7C6C6" d="M65.566,18.083c1.867-6.067,3.5-7.467,7.233-7.467h0.7v-1.4H57.633v1.633h2.334
		c3.5,0,4.9,1.867,3.267,7.233l-9.567,32.2H55.3L39.9,8.517h-1.867l-13.3,41.767H25.9L14,15.05c-0.934-2.8-0.233-4.433,2.333-4.433
		h3.033v-1.4H0v1.633h1.167c2.333,0,3.5,0.7,4.667,4.2l16.1,45.5H23.8l12.833-40.133H35.7L50.633,60.55H52.5L65.566,18.083z"/>
	<path id="XMLID_55_" fill="#C7C6C6" d="M71.633,30.683H78.4c0.699-4.9,3.033-6.533,6.533-6.533s5.366,1.867,5.366,7.233V54.95
		c0,4.2,2.567,6.533,6.534,6.533c3.5,0,6.766-2.101,8.166-3.5l-0.7-0.934c-0.7,0.7-1.866,1.167-3.033,1.167
		c-2.333,0-3.733-1.633-3.733-4.9V33.25c0-6.533-3.033-10.733-10.967-10.733C80.033,22.517,72.566,27.417,71.633,30.683
		L71.633,30.683z M90.3,40.717l-7.933,1.867c-9.101,2.1-12.134,5.6-12.134,10.266c0,4.9,3.5,8.4,9.101,8.4
		c4.899,0,8.399-2.566,10.966-6.066v-1.167c-1.634,1.399-4.2,2.567-7.7,2.567S77,54.717,77,50.983c0-3.5,2.334-5.366,9.566-7.7
		l3.733-1.166V40.717z"/>
</g>
</svg>
