<?xml version="1.0" encoding="utf-8"?>
<!-- Generator: Adobe Illustrator 19.0.0, SVG Export Plug-In . SVG Version: 6.00 Build 0)  -->
<svg version="1.1" id="Calque_1" xmlns="http://www.w3.org/2000/svg" xmlns:xlink="http://www.w3.org/1999/xlink" x="0px" y="0px"
	 viewBox="0 0 45 28.5" style="enable-background:new 0 0 45 28.5;" xml:space="preserve">
<style type="text/css">
	.st0{fill:#3C3C3B;}
	.st1{fill:#C7C6C6;}
</style>
<g id="XMLID_54_">
	<path id="XMLID_58_" class="st0" d="M28.1,7c0.8-2.6,1.5-3.2,3.1-3.2h0.3V3.2h-6.8v0.7h1c1.5,0,2.1,0.8,1.4,3.1l-4.1,13.8h0.7
		L17.1,2.9h-0.8l-5.7,17.9h0.5L6,5.7C5.6,4.5,5.9,3.8,7,3.8h1.3V3.2H0v0.7h0.5c1,0,1.5,0.3,2,1.8l6.9,19.5h0.8l5.5-17.2h-0.4
		l6.4,17.2h0.8L28.1,7z"/>
	<path id="XMLID_55_" class="st0" d="M30.7,12.4h2.9c0.3-2.1,1.3-2.8,2.8-2.8c1.5,0,2.3,0.8,2.3,3.1v10.1c0,1.8,1.1,2.8,2.8,2.8
		c1.5,0,2.9-0.9,3.5-1.5l-0.3-0.4c-0.3,0.3-0.8,0.5-1.3,0.5c-1,0-1.6-0.7-1.6-2.1v-8.6c0-2.8-1.3-4.6-4.7-4.6
		C34.3,8.9,31.1,11,30.7,12.4L30.7,12.4z M38.7,16.7l-3.4,0.8c-3.9,0.9-5.2,2.4-5.2,4.4c0,2.1,1.5,3.6,3.9,3.6
		c2.1,0,3.6-1.1,4.7-2.6v-0.5c-0.7,0.6-1.8,1.1-3.3,1.1c-1.5,0-2.4-0.8-2.4-2.4c0-1.5,1-2.3,4.1-3.3l1.6-0.5V16.7z"/>
</g>
<g id="XMLID_53_">
	<path id="XMLID_60_" class="st1" d="M57.4,23.2c0,6.4,4.2,9.5,8.5,9.5c2.8,0,4.4-0.9,5.9-1.9v-5.9h-8v-3.8h12.5v11.9
		c-2.9,2.1-6.2,3.5-10.4,3.5c-8.5,0-13.5-6.2-13.5-13.3c0-7.1,4.8-13.3,12.8-13.3c4.8,0,8.5,2.3,10.7,5.6l-3.4,2.9
		c-1.9-3.3-4.2-4.7-7.3-4.7C61.3,13.7,57.4,16.8,57.4,23.2z"/>
	<path id="XMLID_59_" class="st1" d="M79.2,36.2c0-4.2,1.1-6.9,6.8-10.7c4.8-3.3,6.2-4.8,6.2-7.6c0-2.6-1.9-4.2-4.2-4.2
		c-2.3,0-4.2,1.6-4.2,4c0,1.2,0.3,2.1,1.2,3.1l-4.2,2.1c-1-1.6-1.6-3.1-1.6-5.2c0-4.2,3.5-7.8,8.7-7.8c5.9,0,8.8,3.6,8.8,8.3
		c0,3.8-2.3,5.9-5.4,8.1c-2.8,2-6.2,4-6.2,5.4h12.1v4.5H79.2L79.2,36.2z"/>
</g>
<path id="XMLID_61_" class="st0" d="M62.4,4.2c5.4,1.9,10,2.9,17.5,2.9c1.7,0,3.3,0,4.5-0.2l0.1,0.5C81.1,8.4,78,8.9,74,8.9
	c-13.7,0-24.8-7.2-24.8-16.2c0-7.5,5.4-12.2,11.9-12.2c6.5,0,11.9,4.8,11.9,12.2c0,7.2-5.2,12.1-12.2,12.1L62.4,4.2z"/>
</svg>
