<?xml version="1.0" encoding="utf-8"?>
<!-- Generator: Adobe Illustrator 16.0.0, SVG Export Plug-In . SVG Version: 6.00 Build 0)  -->
<!DOCTYPE svg PUBLIC "-//W3C//DTD SVG 1.1//EN" "http://www.w3.org/Graphics/SVG/1.1/DTD/svg11.dtd">
<svg version="1.1" id="Calque_1" xmlns="http://www.w3.org/2000/svg" xmlns:xlink="http://www.w3.org/1999/xlink" x="0px" y="0px"
	 width="167.947px" height="91.293px" viewBox="0 0 167.947 91.293" enable-background="new 0 0 167.947 91.293"
	 xml:space="preserve">
<g>
	<path d="M104.521,20.788c2.877-9.47,5.395-11.747,11.389-11.747h1.197V6.644H91.936v2.397h3.596c5.395,0,7.912,2.877,5.275,11.507
		L85.582,71.373h2.398L64.006,5.445h-2.997L40.032,71.373h1.798L23.25,15.874c-1.438-4.435-0.6-6.833,3.596-6.833h4.794V6.644H1.075
		v2.397h1.798c3.596,0,5.514,1.199,7.432,6.593l25.532,71.921h2.997l20.258-63.411h-1.318l23.614,63.411h2.996L104.521,20.788z"/>
	<path d="M114.369,40.723h10.789c1.199-7.792,4.795-10.189,10.189-10.189c5.393,0,8.391,2.997,8.391,11.388v37.159
		c0,6.593,4.195,10.189,10.188,10.189c5.395,0,10.549-3.236,12.947-5.634l-1.08-1.438c-1.197,0.959-2.996,1.678-4.674,1.678
		c-3.596,0-5.994-2.397-5.994-7.791V44.319c0-10.189-4.795-16.782-17.381-16.782C127.555,27.537,115.568,35.329,114.369,40.723
		L114.369,40.723z M143.738,56.305l-12.586,2.997c-14.385,3.356-19.18,8.99-19.18,16.183c0,7.791,5.395,13.186,14.385,13.186
		c7.791,0,13.186-4.195,17.381-9.59v-1.798c-2.398,2.397-6.594,4.195-11.988,4.195c-5.393,0-8.988-2.996-8.988-8.99
		c0-5.394,3.596-8.631,14.982-11.986l5.994-1.799V56.305z"/>
</g>
</svg>
