<?xml version="1.0" encoding="utf-8"?>
<!-- Generator: Adobe Illustrator 16.0.0, SVG Export Plug-In . SVG Version: 6.00 Build 0)  -->
<!DOCTYPE svg PUBLIC "-//W3C//DTD SVG 1.1//EN" "http://www.w3.org/Graphics/SVG/1.1/DTD/svg11.dtd">
<svg version="1.1" id="Calque_1" xmlns="http://www.w3.org/2000/svg" xmlns:xlink="http://www.w3.org/1999/xlink" x="0px" y="0px"
	 width="29.996px" height="29.996px" viewBox="0 0 29.996 29.996" enable-background="new 0 0 29.996 29.996" xml:space="preserve">
<g>
	<path fill="#FFFFFF" d="M13.309,6.53c-0.234-0.235-0.564-0.342-0.892-0.289c-0.326,0.055-0.606,0.262-0.753,0.558L4.163,21.968
		l-1.397,1.396L0.784,24.68c-0.258,0.169-0.424,0.446-0.455,0.752c-0.03,0.306,0.078,0.609,0.295,0.827l3.208,3.209
		c0.194,0.191,0.456,0.3,0.726,0.3c0.034,0,0.069-0.001,0.102-0.004c0.307-0.032,0.583-0.197,0.753-0.455l1.334-2.012l1.268-1.268
		c0.037,0.055,0.079,0.106,0.127,0.155l3.3,3.3c0.192,0.192,0.447,0.299,0.72,0.299c0.272,0,0.527-0.106,0.718-0.298l0.475-0.475
		c0.396-0.397,0.395-1.042-0.001-1.438l-2.834-2.834l12.77-6.315c0.296-0.147,0.502-0.427,0.557-0.753
		c0.054-0.327-0.054-0.659-0.288-0.892L13.309,6.53z M4.528,27.894l-2.304-2.306l1.879-1.06l1.485,1.486L4.528,27.894z"/>
	<path fill="#FFFFFF" d="M29.315,11.607c-0.536-3.032-1.832-5.585-3.76-7.512c-1.924-1.927-4.477-3.222-7.508-3.759
		c-0.358-0.063-0.817,0.22-1.027,0.626c-0.213,0.406-0.098,0.789,0.259,0.851l-0.004,0.003c2.845,0.502,5.229,1.72,7.033,3.524
		c1.807,1.807,3.026,4.191,3.526,7.035c0.061,0.355,0.444,0.473,0.855,0.259c0.111-0.061,0.214-0.137,0.299-0.223
		C29.225,12.178,29.359,11.865,29.315,11.607z"/>
	<path fill="#FFFFFF" d="M22.079,7.557c-1.136-1.136-2.547-2-4.186-2.519c-0.331-0.104-0.801,0.135-1.046,0.534
		c-0.25,0.396-0.183,0.806,0.148,0.911c1.498,0.477,2.796,1.269,3.843,2.314c1.051,1.052,1.844,2.364,2.33,3.875
		c0.106,0.33,0.517,0.396,0.915,0.146c0.083-0.052,0.158-0.112,0.225-0.179c0.259-0.259,0.393-0.609,0.31-0.873
		C24.084,10.129,23.223,8.702,22.079,7.557z"/>
</g>
</svg>
