<?xml version="1.0" encoding="utf-8"?>
<!-- Generator: Adobe Illustrator 16.0.0, SVG Export Plug-In . SVG Version: 6.00 Build 0)  -->
<!DOCTYPE svg PUBLIC "-//W3C//DTD SVG 1.1//EN" "http://www.w3.org/Graphics/SVG/1.1/DTD/svg11.dtd">
<svg version="1.1" id="Calque_1" xmlns="http://www.w3.org/2000/svg" xmlns:xlink="http://www.w3.org/1999/xlink" x="0px" y="0px"
	 width="29.996px" height="29.996px" viewBox="0 0 29.996 29.996" enable-background="new 0 0 29.996 29.996" xml:space="preserve">
<g>
	<polygon fill="#FFFFFF" points="14.97,11.939 13.605,15.783 16.319,15.783 14.999,11.939 	"/>
	<path fill="#FFFFFF" d="M29.519,14.627l-2.18-0.305c-0.066-1.492-0.388-2.923-0.956-4.268l1.811-1.365
		c0.116-0.089,0.194-0.223,0.215-0.368c0.021-0.147-0.019-0.296-0.108-0.415l-2.518-3.331c-0.089-0.118-0.222-0.195-0.368-0.216
		c-0.148-0.021-0.295,0.018-0.412,0.108l-1.67,1.262c-1.106-1.021-2.37-1.822-3.768-2.385l0.298-2.137
		c0.021-0.147-0.019-0.295-0.106-0.414c-0.089-0.118-0.222-0.195-0.367-0.216l-4.133-0.574c-0.154-0.021-0.296,0.018-0.414,0.108
		C14.725,0.2,14.648,0.333,14.626,0.48l-0.274,1.983c-1.542,0.065-3.021,0.404-4.406,1.009l-1.26-1.665
		C8.5,1.562,8.152,1.514,7.905,1.698L4.577,4.213C4.459,4.302,4.381,4.435,4.361,4.581C4.341,4.728,4.379,4.875,4.469,4.994
		l1.192,1.579c-1.033,1.145-1.829,2.436-2.372,3.85l-2.086-0.289c-0.148-0.02-0.294,0.019-0.413,0.107
		c-0.117,0.089-0.196,0.221-0.215,0.368l-0.572,4.132c-0.042,0.305,0.169,0.586,0.474,0.627l2.018,0.282
		c0.091,1.508,0.447,2.962,1.063,4.335l-1.756,1.327c-0.243,0.185-0.294,0.534-0.107,0.78l2.516,3.328
		c0.185,0.246,0.534,0.292,0.778,0.108l1.715-1.295c1.106,0.976,2.385,1.754,3.741,2.278l-0.313,2.278
		c-0.042,0.305,0.171,0.585,0.475,0.627l4.131,0.574c0.025,0.004,0.052,0.006,0.078,0.006c0.273,0,0.512-0.201,0.551-0.479
		l0.312-2.215c1.46-0.085,2.871-0.419,4.203-0.997l1.423,1.883c0.187,0.246,0.536,0.291,0.78,0.108l3.331-2.512
		c0.119-0.089,0.195-0.224,0.216-0.369c0.021-0.146-0.019-0.295-0.106-0.413L24.163,23.2c0.98-1.083,1.75-2.312,2.293-3.661
		l2.332,0.324c0.295,0.037,0.586-0.17,0.629-0.475l0.575-4.133C30.035,14.951,29.823,14.668,29.519,14.627z M17.714,19.832
		l-0.793-2.333h-3.917l-0.822,2.333H9.864l3.961-10.475h2.362l3.917,10.475H17.714z"/>
</g>
</svg>
