<?xml version="1.0" encoding="utf-8"?>
<!-- Generator: Adobe Illustrator 16.0.0, SVG Export Plug-In . SVG Version: 6.00 Build 0)  -->
<!DOCTYPE svg PUBLIC "-//W3C//DTD SVG 1.1//EN" "http://www.w3.org/Graphics/SVG/1.1/DTD/svg11.dtd">
<svg version="1.1" id="Calque_1" xmlns="http://www.w3.org/2000/svg" xmlns:xlink="http://www.w3.org/1999/xlink" x="0px" y="0px"
	 width="29.996px" height="29.996px" viewBox="0 0 29.996 29.996" enable-background="new 0 0 29.996 29.996" xml:space="preserve">
<g>
	<path fill="#FFFFFF" d="M5.994,11.989H24c3.312,0,5.995-2.684,5.995-5.995S27.312,0,24,0H5.994C2.683,0-0.001,2.684-0.001,5.995
		S2.683,11.989,5.994,11.989z M6.041,1.663c2.356,0,4.265,1.91,4.265,4.265s-1.909,4.265-4.265,4.265
		c-2.355,0-4.265-1.91-4.265-4.265S3.686,1.663,6.041,1.663z"/>
	<path fill="#FFFFFF" d="M24,18.008H5.994c-3.311,0-5.995,2.684-5.995,5.994s2.684,5.994,5.995,5.994H24
		c3.312,0,5.995-2.684,5.995-5.994S27.312,18.008,24,18.008z M17.825,28.201c-2.355,0-4.265-1.91-4.265-4.266
		s1.91-4.266,4.265-4.266c2.356,0,4.265,1.91,4.265,4.266S20.182,28.201,17.825,28.201z"/>
</g>
</svg>
