<?xml version="1.0" encoding="utf-8"?>
<!-- Generator: Adobe Illustrator 19.0.0, SVG Export Plug-In . SVG Version: 6.00 Build 0)  -->
<svg version="1.1" id="Calque_1" xmlns="http://www.w3.org/2000/svg" xmlns:xlink="http://www.w3.org/1999/xlink" x="0px" y="0px"
	 viewBox="-295.8 412.3 17.1 17.1" style="enable-background:new -295.8 412.3 17.1 17.1;" xml:space="preserve">
<style type="text/css">
	.st0{fill:#7F7F7F;}
</style>
<g>
	<path id="XMLID_27_" class="st0" d="M-292.2,429.4h-3.1l6.3-17.1h3.1l6.5,17.1h-2.9l-1-2.6c-0.2-0.9-0.2-1.4,0-1.5l-0.5-0.3
		c-0.2,0.3-0.7,0.5-1.7,0.5h-3.6c-0.9,0-1.4-0.2-1.7-0.5l-0.3,0.3c0.2,0.2,0.2,0.7-0.2,1.5L-292.2,429.4z M-289.5,421.6
		c-0.3,0.9-0.7,1.4-1,1.5l0.3,0.5c0.3-0.3,0.9-0.5,1.7-0.5h2.1c0.9,0,1.5,0.2,1.9,0.3l0.3-0.3c-0.3-0.2-0.7-0.7-1-1.5l-1.5-5
		c-0.3-0.9-0.3-1.9-0.3-2.2h-0.5c0,0.3,0,1.4-0.3,2.2L-289.5,421.6z"/>
</g>
</svg>
