<?xml version="1.0" encoding="utf-8"?>
<!-- Generator: Adobe Illustrator 16.0.0, SVG Export Plug-In . SVG Version: 6.00 Build 0)  -->
<!DOCTYPE svg PUBLIC "-//W3C//DTD SVG 1.1//EN" "http://www.w3.org/Graphics/SVG/1.1/DTD/svg11.dtd">
<svg version="1.1" id="Calque_1" xmlns="http://www.w3.org/2000/svg" xmlns:xlink="http://www.w3.org/1999/xlink" x="0px" y="0px"
	 width="105px" height="70px" viewBox="0 0 105 70" enable-background="new 0 0 105 70" xml:space="preserve">
<g>
	<path fill="#24D390" d="M11.667,34.883c0,14.933,9.8,22.167,19.833,22.167c6.533,0,10.267-2.1,13.767-4.433V38.85H26.6v-8.866
		h29.167V57.75C49,62.65,41.3,65.916,31.5,65.916C11.667,66.15,0,51.45,0,34.883C0,18.317,11.2,3.85,29.867,3.85
		c11.2,0,19.833,5.367,24.967,13.066L46.9,23.684c-4.433-7.7-9.8-10.967-17.033-10.967C21,12.717,11.667,19.95,11.667,34.883z"/>
	<path fill="#24D390" d="M62.533,65.217c0-9.801,2.566-16.1,15.633-24.967c11.201-7.7,14.467-11.2,14.467-17.733
		c0-6.066-4.433-9.8-9.799-9.8c-5.367,0-9.801,3.733-9.801,9.333c0,2.8,0.7,4.9,2.801,7.233l-9.101,4.9
		C64.4,30.45,63,26.95,63,22.05c0-9.8,8.166-18.2,20.3-18.2c13.767,0,20.534,8.4,20.534,19.367c0,8.867-5.367,13.767-12.601,18.9
		c-6.533,4.666-14.467,9.333-14.467,12.6H105v10.5H62.533L62.533,65.217z"/>
</g>
</svg>
