<?xml version="1.0" encoding="utf-8"?>
<!-- Generator: Adobe Illustrator 19.0.0, SVG Export Plug-In . SVG Version: 6.00 Build 0)  -->
<svg version="1.1" id="Calque_1" xmlns="http://www.w3.org/2000/svg" xmlns:xlink="http://www.w3.org/1999/xlink" x="0px" y="0px"
	 viewBox="0 0 45.1 28.5" style="enable-background:new 0 0 45.1 28.5;" xml:space="preserve">
<style type="text/css">
	.st0{fill:#3C3C3B;}
</style>
<g id="XMLID_33_">
	<path id="XMLID_35_" class="st0" d="M5.1,14.2c0,6.4,4.2,9.5,8.5,9.5c2.8,0,4.4-0.9,5.9-1.9V16h-8v-3.8H24v11.9
		c-2.9,2.1-6.2,3.5-10.4,3.5c-8.5,0-13.5-6.2-13.5-13.3c0-7.1,4.8-13.3,12.8-13.3c4.8,0,8.5,2.3,10.7,5.6l-3.4,2.9
		c-1.9-3.3-4.2-4.7-7.3-4.7C9.1,4.7,5.1,7.8,5.1,14.2z"/>
	<path id="XMLID_34_" class="st0" d="M26.9,27.2c0-4.2,1.1-6.9,6.8-10.7c4.8-3.3,6.2-4.8,6.2-7.6c0-2.6-1.9-4.2-4.2-4.2
		c-2.3,0-4.2,1.6-4.2,4c0,1.2,0.3,2.1,1.2,3.1l-4.2,2.1c-1-1.6-1.6-3.1-1.6-5.2c0-4.2,3.5-7.8,8.7-7.8c5.9,0,8.8,3.6,8.8,8.3
		c0,3.8-2.3,5.9-5.4,8.1c-2.8,2-6.2,4-6.2,5.4h12.1v4.5H26.9L26.9,27.2z"/>
</g>
<path id="XMLID_55_" class="st0" d="M-19.9,41.9c5.4,1.9,10,2.9,17.5,2.9c1.7,0,3.3,0,4.5-0.2l0.1,0.5c-3.4,1-6.5,1.4-10.5,1.4
	c-13.7,0-24.8-7.2-24.8-16.2c0-7.5,5.4-12.2,11.9-12.2c6.5,0,11.9,4.8,11.9,12.2c0,7.2-5.2,12.1-12.2,12.1L-19.9,41.9z"/>
</svg>
