<?xml version="1.0" encoding="utf-8"?>
<!-- Generator: Adobe Illustrator 19.0.0, SVG Export Plug-In . SVG Version: 6.00 Build 0)  -->
<svg version="1.1" id="Calque_1" xmlns="http://www.w3.org/2000/svg" xmlns:xlink="http://www.w3.org/1999/xlink" x="0px" y="0px"
	 viewBox="0 0 45 26.7" style="enable-background:new 0 0 45 26.7;" xml:space="preserve">
<style type="text/css">
	.st0{fill:#50BD8A;}
</style>
<g>
	<path class="st0" d="M5,13.3c0,6.4,4.2,9.5,8.5,9.5c2.8,0,4.4-0.9,5.9-1.9v-5.9h-8v-3.8h12.5v11.9c-2.9,2.1-6.2,3.5-10.4,3.5
		C5,26.7,0,20.4,0,13.3C0,6.2,4.8,0,12.8,0c4.8,0,8.5,2.3,10.7,5.6l-3.4,2.9c-1.9-3.3-4.2-4.7-7.3-4.7C9,3.8,5,6.9,5,13.3z"/>
	<path class="st0" d="M26.8,26.3c0-4.2,1.1-6.9,6.7-10.7c4.8-3.3,6.2-4.8,6.2-7.6c0-2.6-1.9-4.2-4.2-4.2c-2.3,0-4.2,1.6-4.2,4
		c0,1.2,0.3,2.1,1.2,3.1L28.6,13c-1-1.6-1.6-3.1-1.6-5.2C27,3.6,30.5,0,35.7,0c5.9,0,8.8,3.6,8.8,8.3c0,3.8-2.3,5.9-5.4,8.1
		c-2.8,2-6.2,4-6.2,5.4H45v4.5H26.8L26.8,26.3z"/>
</g>
<g>
	<path class="st0" d="M19.4,49.1c0.8-2.6,1.5-3.2,3.1-3.2h0.3v-0.7H16v0.7h1c1.5,0,2.1,0.8,1.4,3.1l-4.1,13.8h0.7L8.4,44.9H7.6
		L1.9,62.8h0.5l-5-15.1c-0.4-1.2-0.2-1.9,1-1.9h1.3v-0.7h-8.3v0.7h0.5c1,0,1.5,0.3,2,1.8l6.9,19.5h0.8L7.1,50H6.7l6.4,17.2h0.8
		L19.4,49.1z"/>
	<path class="st0" d="M22.1,54.5H25c0.3-2.1,1.3-2.8,2.8-2.8c1.5,0,2.3,0.8,2.3,3.1v10.1c0,1.8,1.1,2.8,2.8,2.8
		c1.5,0,2.9-0.9,3.5-1.5L36,65.7c-0.3,0.3-0.8,0.5-1.3,0.5c-1,0-1.6-0.7-1.6-2.1v-8.6c0-2.8-1.3-4.6-4.7-4.6
		C25.6,50.9,22.4,53,22.1,54.5L22.1,54.5z M30,58.7l-3.4,0.8c-3.9,0.9-5.2,2.4-5.2,4.4c0,2.1,1.5,3.6,3.9,3.6c2.1,0,3.6-1.1,4.7-2.6
		v-0.5c-0.7,0.6-1.8,1.1-3.3,1.1c-1.5,0-2.4-0.8-2.4-2.4c0-1.5,1-2.3,4.1-3.3l1.6-0.5V58.7z"/>
</g>
</svg>
