<?xml version="1.0" encoding="utf-8"?>
<!-- Generator: Adobe Illustrator 16.0.0, SVG Export Plug-In . SVG Version: 6.00 Build 0)  -->
<!DOCTYPE svg PUBLIC "-//W3C//DTD SVG 1.1//EN" "http://www.w3.org/Graphics/SVG/1.1/DTD/svg11.dtd">
<svg version="1.1" id="Calque_1" xmlns="http://www.w3.org/2000/svg" xmlns:xlink="http://www.w3.org/1999/xlink" x="0px" y="0px"
	 width="105px" height="70px" viewBox="0 0 105 70" enable-background="new 0 0 105 70" xml:space="preserve">
<g id="XMLID_33_">
	<path id="XMLID_35_" fill="#24D390" d="M11.874,34.884c0,14.899,9.778,22.117,19.79,22.117c6.519,0,10.244-2.095,13.736-4.423
		V39.074H26.774v-8.847h29.102v27.705c-6.752,4.889-14.435,8.148-24.213,8.148c-19.79,0-31.43-14.435-31.43-30.965
		c0-16.53,11.175-30.964,29.8-30.964c11.175,0,19.79,5.355,24.911,13.038l-7.916,6.752c-4.423-7.683-9.778-10.942-16.996-10.942
		C21.186,12.766,11.874,19.983,11.874,34.884z"/>
	<path id="XMLID_34_" fill="#24D390" d="M62.627,65.15c0-9.779,2.562-16.064,15.832-24.912
		c11.176-7.683,14.435-11.175,14.435-17.694c0-6.053-4.423-9.778-9.778-9.778c-5.354,0-9.778,3.725-9.778,9.312
		c0,2.794,0.698,4.889,2.794,7.217l-9.778,4.889c-2.328-3.725-3.726-7.217-3.726-12.106c0-9.778,8.148-18.16,20.256-18.16
		c13.736,0,20.487,8.381,20.487,19.324c0,8.847-5.354,13.736-12.571,18.859c-6.52,4.656-14.436,9.312-14.436,12.571h28.171v10.477
		L62.627,65.15L62.627,65.15z"/>
</g>
</svg>
