<?xml version="1.0" encoding="utf-8"?>
<!-- Generator: Adobe Illustrator 16.0.0, SVG Export Plug-In . SVG Version: 6.00 Build 0)  -->
<!DOCTYPE svg PUBLIC "-//W3C//DTD SVG 1.1//EN" "http://www.w3.org/Graphics/SVG/1.1/DTD/svg11.dtd">
<svg version="1.1" id="Calque_1" xmlns="http://www.w3.org/2000/svg" xmlns:xlink="http://www.w3.org/1999/xlink" x="0px" y="0px"
	 width="29.996px" height="29.996px" viewBox="0 0 29.996 29.996" enable-background="new 0 0 29.996 29.996" xml:space="preserve">
<path fill="#FFFFFF" d="M19.621,0.637h-9.246c-5.722,0-10.377,5.038-10.377,11.229c0,5.659,3.799,10.312,8.845,11.106v5.147
	c0,0.506,0.309,0.963,0.778,1.15c0.15,0.06,0.307,0.089,0.463,0.089c0.33,0,0.656-0.133,0.895-0.382l5.632-5.881h3.011
	c5.721,0,10.377-5.038,10.377-11.23C29.998,5.675,25.342,0.637,19.621,0.637z M16.64,17.983c0,0.292-0.127,0.559-0.376,0.79
	c-0.247,0.229-0.576,0.346-0.981,0.346c-0.418,0-0.762-0.115-1.021-0.343c-0.267-0.231-0.402-0.499-0.402-0.793v-0.51
	c0-0.295,0.136-0.562,0.402-0.793c0.259-0.228,0.603-0.341,1.021-0.341c0.405,0,0.734,0.115,0.981,0.343
	c0.248,0.233,0.376,0.499,0.376,0.791V17.983z M19.438,10.374c-0.163,0.319-0.372,0.601-0.62,0.837
	c-0.244,0.23-0.511,0.439-0.794,0.619c-0.27,0.172-0.523,0.357-0.754,0.553c-0.227,0.19-0.416,0.404-0.564,0.635
	c-0.142,0.22-0.213,0.494-0.213,0.816v0.318c0,0.212-0.104,0.434-0.309,0.661c-0.209,0.229-0.485,0.352-0.824,0.366l-0.069,0.001
	c-0.345,0-0.624-0.099-0.833-0.293c-0.223-0.209-0.336-0.444-0.336-0.697c0-0.593,0.082-1.097,0.245-1.501
	c0.161-0.399,0.362-0.747,0.596-1.033c0.232-0.284,0.493-0.533,0.778-0.739c0.271-0.196,0.522-0.391,0.745-0.576
	c0.215-0.18,0.4-0.372,0.551-0.569c0.138-0.182,0.205-0.403,0.205-0.676c0-0.447-0.121-0.769-0.373-0.98
	c-0.254-0.215-0.605-0.323-1.045-0.323c-0.292,0-0.543,0.018-0.745,0.054c-0.198,0.035-0.381,0.094-0.544,0.175
	c-0.161,0.081-0.313,0.192-0.452,0.331c-0.145,0.145-0.298,0.328-0.455,0.546c-0.141,0.198-0.351,0.349-0.621,0.446
	c-0.279,0.101-0.587,0.073-0.91-0.081C11.808,9.118,11.631,8.93,11.57,8.7c-0.057-0.21-0.057-0.43-0.001-0.653
	c0.042-0.189,0.155-0.425,0.349-0.712c0.189-0.282,0.46-0.556,0.804-0.814c0.342-0.258,0.775-0.483,1.287-0.67
	c0.515-0.186,1.132-0.28,1.835-0.28c0.691,0,1.293,0.104,1.784,0.312c0.493,0.208,0.897,0.485,1.197,0.826
	c0.302,0.339,0.522,0.729,0.66,1.16c0.136,0.426,0.203,0.87,0.203,1.321C19.688,9.649,19.604,10.048,19.438,10.374z"/>
</svg>
