<svg xmlns="http://www.w3.org/2000/svg" width="512" height="512" viewBox="0 0 56.48 56.48">
  <path fill="#F0F0F0" d="M15.05 25.8c-1.06 0-1.87.35-1.87.35l-.22 1.33s.67-.27 1.68-.27c.57 0 1 .07 1 .54 0 .3-.06.4-.06.4s-.45-.05-.66-.05c-1.33 0-2.74.56-2.74 2.28 0 1.35.92 1.66 1.5 1.66 1.08 0 1.55-.7 1.58-.7l-.05.6h1.37l.6-4.26c0-1.8-1.57-1.87-2.12-1.87zm-.76 4.95c-.5 0-.62-.36-.62-.58 0-.43.23-.93 1.37-.93.26 0 .3.03.33.03.03.26-.16 1.48-1.1 1.48zm4.8-3c0 .76 1.85.38 1.85 2.3 0 2.05-2 1.96-2.34 1.96-1.28 0-1.68-.17-1.72-.18l.2-1.35s.66.24 1.38.24c.42 0 .96-.03.96-.53 0-.74-1.94-.56-1.94-2.33 0-1.56 1.16-2.02 2.3-2.02.9 0 1.43.12 1.43.12L21 27.3s-.82-.06-1.04-.06c-.55 0-.85.12-.85.5zm3.67 2.34c-.03.2.03.5.57.5.13 0 .3-.06.4-.06l-.2 1.3c-.15.06-.6.2-1.16.22-.72 0-1.23-.4-1.23-1.3 0-.62.88-5.67.9-5.7h1.56l-.15.9h.77l-.2 1.45h-.8l-.45 2.7zm5.96-.65s.2-1 .2-1.4c0-1.02-.5-2.26-2.2-2.26-1.55 0-2.7 1.66-2.7 3.55 0 2.18 1.44 2.7 2.66 2.7 1.13 0 1.63-.25 1.63-.25l.27-1.5s-.86.4-1.64.4c-1.66 0-1.37-1.25-1.37-1.25h3.13zm-2-2.28c.88 0 .7.98.7 1.06h-1.7c0-.1.16-1.06 1-1.06zm-14-2.6l-1.2 7.36h-1.6l.9-5.54-2 5.53H7.78l-.13-5.54-.94 5.53H5.2l1.24-7.35H8.7l.07 4.5 1.52-4.5h2.44zm19.53-.96h-8c.06-.14.34-.74.77-1.54h6.6c.24.5.45 1.02.63 1.55zm-1.46-3.06h-4.9c.3-.52.65-1.05 1.02-1.55h2.75c.4.48.8 1 1.13 1.54zM28.23 39c-.53-.5-1.02-1.03-1.48-1.6h3c-.46.56-.95 1.08-1.48 1.56l-.04.03zm2.6-3.1h-5.16c-.3-.5-.6-1-.85-1.54h6.84c-.25.54-.53 1.05-.84 1.55zm1.82-10c-.2.42-.38.8-.57 1.8-1.07-.38-1.16 1.7-1.6 4.25h-1.6l.97-6h1.44l-.15.88s.5-.94 1.2-.94h.3zm2.86 4.65c.53 0 1.28-.38 1.28-.38l-.27 1.68s-.82.2-1.34.2c-1.84 0-2.78-1.26-2.78-3.18 0-2.9 1.73-4.45 3.5-4.45.82 0 1.75.38 1.75.38l-.25 1.63s-.63-.44-1.42-.44c-1.04 0-2 1-2 2.8 0 .9.45 1.75 1.55 1.75zm15.07.53c-.07.04-.13.1-.17.18-.04.07-.06.15-.06.23s.02.15.06.22c.04.08.1.14.17.18.08.04.15.06.23.06.1 0 .16-.02.24-.06.07-.04.13-.1.17-.18.05-.07.07-.15.07-.23 0-.1-.02-.17-.06-.24-.03-.08-.1-.14-.17-.18-.07-.04-.15-.06-.23-.06-.07 0-.15.02-.23.06zm.57.2c.04.08.06.14.06.2s-.02.14-.06.2c-.03.06-.08.1-.14.15-.06.03-.13.05-.2.05-.06 0-.13-.02-.2-.05-.05-.04-.1-.08-.13-.15s-.06-.13-.06-.2.03-.12.07-.2c.03-.05.08-.1.15-.13s.12-.05.2-.05.12 0 .18.05c.06.03.1.08.14.14zm-6.26-1.76c0 1.26.63 2.5 1.9 2.5.93 0 1.45-.64 1.45-.64l-.07.55h1.5l1.18-7.34H49.3l-.34 2.06s-.58-.8-1.5-.8c-1.4 0-2.58 1.7-2.58 3.66zm3.7-.9c0 .8-.4 1.9-1.24 1.9-.56 0-.82-.46-.82-1.2 0-1.2.54-1.98 1.22-1.98.55 0 .84.38.84 1.28zm2.5 7.73l-.04-.03c.05 0 .08-.02.1-.05.03-.02.05-.05.05-.1 0-.02-.02-.04-.04-.06l-.06-.04-.13-.02h-.17v.5h.08v-.2H51c0 .03.04.07.08.13l.04.08h.1l-.06-.1-.07-.1zm-.1-.1h-.1v-.14h.1c.03 0 .06 0 .07.02.02 0 .03 0 .04.03v.04s0 .03-.03.04l-.1.02zm4.05-26.3H1.45c-.8 0-1.45.64-1.45 1.44v33.7c0 .8.65 1.44 1.45 1.44h53.58c.8 0 1.45-.65 1.45-1.45V11.4c0-.8-.65-1.46-1.45-1.46zM51.4 36.5c-.03.07-.1.13-.16.17s-.16.06-.24.06c-.08 0-.16-.03-.23-.07-.07-.05-.13-.1-.17-.18-.05-.07-.07-.15-.07-.23s.02-.17.07-.25c.04-.07.1-.13.17-.17.08-.04.15-.06.23-.06.08 0 .16.02.23.06.08.04.14.1.18.17.05.08.07.16.07.24s-.02.15-.06.22zm1.06-8.28c0 8-6.5 14.5-14.5 14.5-3.74 0-7.15-1.42-9.72-3.75-2.58 2.32-5.98 3.74-9.72 3.74-8 0-14.5-6.5-14.5-14.5 0-7.97 6.45-14.44 14.4-14.5h.1c3.74 0 7.15 1.42 9.72 3.75 2.57-2.34 5.98-3.76 9.72-3.76 8 0 14.5 6.5 14.5 14.5zm-1.86 3v.5h.08v-.2H50.8l.08.13.04.08h.1l-.06-.1-.07-.1c-.02 0-.04-.02-.05-.03.04 0 .07 0 .1-.04.03-.03.04-.06.04-.1l-.03-.07-.07-.04-.12-.02h-.18zm.3.1v.05s0 .03-.02.04c-.02.02-.05.02-.1.02h-.1v-.15h.1l.08.02s.02 0 .03.03zm-10.83-5.53c-1.06 0-1.87.35-1.87.35l-.23 1.33s.67-.27 1.7-.27c.56 0 .98.07.98.54 0 .3-.05.4-.05.4s-.45-.05-.66-.05c-1.34 0-2.74.56-2.74 2.28 0 1.35.92 1.66 1.5 1.66 1.08 0 1.55-.7 1.57-.7l-.05.6h1.36l.6-4.26c0-1.8-1.56-1.87-2.1-1.87zm-.76 4.95c-.47 0-.6-.36-.6-.58 0-.43.23-.93 1.36-.93.27 0 .3.03.34.03.03.26-.16 1.48-1.1 1.48zm5.73-3.06c-1.07-.4-1.15 1.7-1.6 4.24h-1.58l.96-5.98h1.45l-.14.87s.52-.94 1.2-.94h.3c-.2.42-.38.8-.57 1.8z"/>
</svg>
