<?xml version="1.0" encoding="utf-8"?>
<!-- Generator: Adobe Illustrator 16.0.0, SVG Export Plug-In . SVG Version: 6.00 Build 0)  -->
<!DOCTYPE svg PUBLIC "-//W3C//DTD SVG 1.1//EN" "http://www.w3.org/Graphics/SVG/1.1/DTD/svg11.dtd">
<svg version="1.1" id="Calque_1" xmlns="http://www.w3.org/2000/svg" xmlns:xlink="http://www.w3.org/1999/xlink" x="0px" y="0px"
	 width="24px" height="24px" viewBox="0 0 24 24" enable-background="new 0 0 24 24" xml:space="preserve">
<g>
	<g>
		<path fill="#999999" d="M18.796,14.989h-5.719c-0.172,0-0.309,0.137-0.309,0.306c0,0.171,0.137,0.308,0.309,0.308h5.719
			c0.17,0,0.308-0.137,0.308-0.308C19.104,15.126,18.966,14.989,18.796,14.989z"/>
		<path fill="#999999" d="M21.062,4.226H2.938C1.87,4.226,1,5.096,1,6.163v11.674c0,1.067,0.87,1.938,1.938,1.938h18.124
			c1.068,0,1.938-0.87,1.938-1.938V6.163C23,5.096,22.131,4.226,21.062,4.226z M2.938,5.764h18.124c0.222,0,0.4,0.179,0.4,0.399
			v1.813H2.537V6.163C2.537,5.942,2.718,5.764,2.938,5.764z M21.062,18.237H2.938c-0.221,0-0.401-0.182-0.401-0.4v-6.514h18.926
			v6.514C21.463,18.056,21.284,18.237,21.062,18.237z"/>
	</g>
</g>
</svg>
