<?xml version="1.0" encoding="utf-8"?>
<!-- Generator: Adobe Illustrator 16.0.0, SVG Export Plug-In . SVG Version: 6.00 Build 0)  -->
<!DOCTYPE svg PUBLIC "-//W3C//DTD SVG 1.1//EN" "http://www.w3.org/Graphics/SVG/1.1/DTD/svg11.dtd">
<svg version="1.1" id="Calque_1" xmlns="http://www.w3.org/2000/svg" xmlns:xlink="http://www.w3.org/1999/xlink" x="0px" y="0px"
	 width="24px" height="24px" viewBox="0 0 24 24" enable-background="new 0 0 24 24" xml:space="preserve">
<g>
	<path fill="#24D390" d="M22.159,11.594l-5.717-3.592c-0.341-0.214-0.789-0.111-1.004,0.229c-0.214,0.34-0.111,0.79,0.229,1.003
		l4.706,2.958l-4.689,2.774c-0.347,0.204-0.461,0.65-0.256,0.996c0.136,0.23,0.378,0.358,0.627,0.358
		c0.126,0,0.254-0.033,0.37-0.102l5.717-3.382c0.218-0.129,0.354-0.363,0.357-0.617C22.503,11.966,22.374,11.729,22.159,11.594z"/>
	<path fill="#24D390" d="M8.332,14.976l-4.706-2.957l4.69-2.774c0.346-0.205,0.46-0.651,0.255-0.997
		c-0.204-0.346-0.65-0.46-0.997-0.256l-5.716,3.382c-0.219,0.13-0.355,0.363-0.358,0.617s0.126,0.49,0.341,0.625l5.717,3.592
		c0.121,0.076,0.255,0.112,0.387,0.112c0.242,0,0.479-0.121,0.617-0.341C8.775,15.639,8.674,15.189,8.332,14.976z"/>
	<path fill="#24D390" d="M14.038,5.736c-0.46-0.144-0.95,0.113-1.093,0.573L9.55,17.169c-0.144,0.461,0.113,0.951,0.573,1.095
		c0.088,0.027,0.176,0.04,0.262,0.04c0.371,0,0.716-0.239,0.833-0.613l3.395-10.86C14.756,6.37,14.499,5.88,14.038,5.736z"/>
</g>
</svg>
