<svg xmlns="http://www.w3.org/2000/svg" width="512" height="512" viewBox="0 0 56.48 56.48">
  <g fill="#F0F0F0">
    <path d="M55.03 9.94H1.45C.65 9.94 0 10.6 0 11.4v33.7c0 .8.65 1.44 1.45 1.44h53.58c.8 0 1.45-.65 1.45-1.45V11.4c0-.8-.65-1.46-1.45-1.46zM4.37 21h6.03c.8.03 1.47.3 1.7 1.16l1.3 6.3c-1.28-3.3-4.4-6.04-9.08-7.17l.05-.3zm7.3 14.38L8.2 23.48c2.5 1.6 4.62 4.15 5.37 5.92l.4 1.47 3.82-9.73h4.1L15.8 35.38h-4.1zm13.26 0h-3.88l2.43-14.26h3.9L24.92 35.4zm6.77.22c-1.74 0-3.42-.36-4.33-.76l.54-3.2.52.24c1.27.53 2.1.75 3.66.75 1.1 0 2.3-.44 2.32-1.4 0-.62-.5-1.07-2-1.77-1.5-.68-3.44-1.82-3.42-3.87.02-2.8 2.73-4.72 6.57-4.72 1.5 0 2.72.3 3.5.6l-.54 3.1-.34-.17c-.72-.28-1.64-.56-2.9-.54-1.53 0-2.24.63-2.24 1.23 0 .65.82 1.1 2.18 1.76 2.25 1 3.28 2.25 3.27 3.87-.03 2.96-2.68 4.87-6.77 4.87zm16.85-.2l-.47-2.14H43.1l-.82 2.14H38.2l5.77-13.08c.4-.93 1.1-1.18 2.04-1.18h3l3.16 14.26h-3.6z"/>
    <path d="M46.28 24.98l-.52 1.37-1.55 3.98h3.24l-.9-4.1-.26-1.25z"/>
  </g>
</svg>
