<svg xmlns="http://www.w3.org/2000/svg" viewBox="0 0 41.301 41.301" width="512" height="512">
  <path d="M20.642 0C26.34 0 31.5 2.317 35.244 6.047c3.73 3.746 6.047 8.905 6.047 14.603s-2.314 10.857-6.044 14.603C31.5 38.983 26.34 41.3 20.643 41.3S9.786 38.983 6.056 35.253C2.31 31.507.008 26.35.008 20.65c0-5.698 2.3-10.857 6.047-14.603C9.785 2.317 14.945 0 20.642 0zm10.524 19.523c.62 0 1.11.508 1.11 1.127 0 .62-.49 1.127-1.11 1.127H20.642c-.413 0-.778-.238-.968-.57l-.016-.017-.016-.032v-.016l-.016-.032-.016-.032v-.016l-.016-.032-.016-.016v-.032l-.016-.032v-.016l-.016-.032v-.064l-.016-.016V7.206c0-.62.492-1.11 1.11-1.11.62 0 1.128.49 1.128 1.11v12.317h9.398zm2.49-11.888c-3.332-3.333-7.935-5.38-13.014-5.38S10.96 4.3 7.627 7.635c-3.317 3.332-5.38 7.935-5.38 13.014 0 5.08 2.062 9.68 5.38 13.014 3.333 3.333 7.936 5.38 13.015 5.38s9.682-2.047 13.015-5.38c3.333-3.333 5.397-7.936 5.397-13.016s-2.063-9.683-5.397-13.016z" fill="#303030"/>
</svg>
