<svg xmlns="http://www.w3.org/2000/svg" width="512" height="512" viewBox="0 0 56.48 56.48">
  <path fill="#F0F0F0" d="M10.93 25.05c.45.4.72 1.02.72 1.65 0 .64-.27 1.28-.72 1.68-.4.37-.94.53-1.77.53H8.8v-4.4h.36c.83 0 1.34.16 1.77.55zm37.6-1.3c0-.22.18-.4.4-.4.23 0 .4.2.4.4s-.17.43-.4.43c-.2 0-.4-.18-.4-.4zm.2.3h.13v-.22l.17.23h.17l-.2-.24c.1-.02.13-.08.13-.16 0-.12-.08-.2-.22-.2h-.18v.6zm7.75-12.66v33.7c0 .8-.65 1.44-1.45 1.44H1.45C.65 46.54 0 45.9 0 45.1V11.4c0-.8.65-1.46 1.45-1.46h53.58c.8 0 1.45.65 1.45 1.45zm-8.05 12.36c0 .3.23.5.5.5.3 0 .5-.22.5-.5 0-.27-.2-.5-.5-.5-.27 0-.5.22-.5.5zm-4.34 6.27h1.3v-2.67h.15l1.8 2.67h1.6l-2.1-2.8c.97-.2 1.5-.86 1.5-1.88 0-1.24-.84-1.96-2.34-1.96h-1.9v6.63zm-4.55 0h3.68V28.9h-2.38v-1.8h2.3V26h-2.3v-1.5h2.38v-1.1h-3.67v6.63zm-6.97-6.64l2.82 6.8h.7l2.87-6.8h-1.4l-1.8 4.45L34 23.4h-1.42zm-6.66 3.33c0 1.96 1.58 3.54 3.53 3.54 1.6 0 2.93-1.05 3.38-2.5l.05-.17.03-.15c.06-.23.1-.47.1-.72 0-1.95-1.6-3.53-3.55-3.53-1.46 0-2.72.9-3.25 2.16-.18.42-.28.9-.28 1.37zm-5.56-.02c0 1.97 1.54 3.48 3.5 3.48.57 0 1.05-.1 1.64-.4v-1.5c-.52.5-.98.72-1.57.72-1.3 0-2.23-.95-2.23-2.3 0-1.27.96-2.28 2.17-2.28.62 0 1.1.22 1.63.75v-1.52c-.57-.3-1.04-.4-1.6-.4-1.96 0-3.54 1.53-3.54 3.46zm-7.38.02c0-1.97-1.46-3.33-3.56-3.33h-1.9v6.63h1.9c1 0 1.72-.24 2.36-.77.76-.62 1.2-1.57 1.2-2.55zm1.9-3.33h-1.3v6.63h1.3V23.4zm5.08 4.6c0-1.05-.44-1.52-1.9-2.06-.8-.3-1.02-.48-1.02-.84 0-.42.4-.74.97-.74.4 0 .7.17 1.05.54l.68-.88c-.56-.5-1.23-.74-1.96-.74-1.17 0-2.07.82-2.07 1.9 0 .92.42 1.4 1.64 1.82.5.18.76.3.9.38.25.17.38.4.38.7 0 .53-.43.93-1 .93-.62 0-1.12-.3-1.42-.88l-.84.8c.6.88 1.32 1.27 2.3 1.27 1.35 0 2.3-.9 2.3-2.2zm35.5 4.8S43.02 41.6 20.2 45.54h35.27V32.8zm-8.43-7.38c0-.65-.44-1-1.25-1h-.4v2.03h.38c.83 0 1.27-.36 1.27-1.03zM49 23.66c0-.05-.04-.08-.1-.08h-.04v.15h.03c.06 0 .1-.02.1-.07z"/>
</svg>
