<?xml version="1.0" encoding="utf-8"?>
<!-- Generator: Adobe Illustrator 16.0.0, SVG Export Plug-In . SVG Version: 6.00 Build 0)  -->
<!DOCTYPE svg PUBLIC "-//W3C//DTD SVG 1.1//EN" "http://www.w3.org/Graphics/SVG/1.1/DTD/svg11.dtd">
<svg version="1.1" id="Calque_1" xmlns="http://www.w3.org/2000/svg" xmlns:xlink="http://www.w3.org/1999/xlink" x="0px" y="0px"
	 width="22px" height="22px" viewBox="0 0 22 22" enable-background="new 0 0 22 22" xml:space="preserve">
<path fill="#B3B3B3" d="M9.47,7.894C9.458,7.893,9.449,7.896,9.439,7.896l0-0.766V6.353c0-0.044-0.007-0.087-0.018-0.128
	C9.418,6.213,9.414,6.202,9.411,6.19C9.4,6.158,9.387,6.129,9.371,6.1C9.366,6.091,9.362,6.082,9.356,6.073
	c-0.021-0.032-0.043-0.062-0.07-0.089C9.284,5.981,9.282,5.981,9.279,5.979C9.243,5.943,9.201,5.912,9.155,5.889
	C8.98,5.8,8.771,5.815,8.613,5.931L4.646,9.41C4.511,9.509,4.431,9.665,4.431,9.832c0,0.167,0.081,0.322,0.215,0.421l3.968,3.479
	c0.096,0.07,0.212,0.099,0.328,0.094h0c0.035-0.002,0.069-0.004,0.103-0.013c0.038-0.009,0.075-0.021,0.111-0.038
	c0.175-0.089,0.284-0.269,0.284-0.464l0-1.6c3.214,0.212,5.544,1.585,5.544,3.271c0,0.998-0.808,1.951-2.214,2.614
	c-0.145,0.068-0.21,0.238-0.149,0.386c0.048,0.115,0.159,0.185,0.277,0.185c0.033,0,0.067-0.006,0.101-0.018
	c2.863-1.024,4.572-2.796,4.572-4.736C17.569,10.689,14.163,8.367,9.47,7.894z"/>
</svg>
