<svg xmlns="http://www.w3.org/2000/svg" width="512" height="512" viewBox="0 0 56.48 56.48">
  <path fill="#F0F0F0" d="M55.03 9.94H1.45C.65 9.94 0 10.6 0 11.4v33.7c0 .8.65 1.44 1.45 1.44h53.58c.8 0 1.45-.65 1.45-1.45V11.4c0-.8-.65-1.46-1.45-1.46zm-33.3 26.8c0 .2-.02.37-.05.55 0 .08-.02.16-.04.25 0 .06-.02.13-.04.2 0 .04-.03.1-.04.15 0 .04-.03.1-.04.13 0 .05-.03.1-.04.13l-.04.1-.05.1-.05.1c0 .04-.02.07-.04.1 0 .02 0 .05-.03.08 0 .03-.03.06-.04.08 0 .03-.03.05-.04.08l-.05.07-.04.07-.03.06-.05.07c0 .02-.02.04-.04.06 0 .02-.02.04-.04.06l-.04.04c0 .03-.03.04-.04.06 0 .02-.03.04-.04.06l-.04.05-.04.06c-.02 0-.03.03-.04.05l-.04.05-.05.05-.03.04c0 .02-.02.03-.04.05l-.04.03c-.02 0-.04.03-.05.04l-.04.04-.03.05c-.02 0-.03.02-.04.04-.02 0-.03 0-.05.03l-.04.03-.04.04-.04.03-.04.03-.04.04-.04.03c-.02 0-.03.02-.04.03-.02 0-.03.02-.04.03-.02 0-.03 0-.05.02 0 0 0 .02-.03.02l-.04.03-.04.03-.05.02-.04.03-.03.02c-.02 0-.03.02-.04.03l-.05.02-.04.03-.04.02-.04.02h-.04c0 .02-.03.02-.04.03 0 0-.03 0-.04.02l-.04.02-.04.02h-.05c0 .02 0 .03-.03.03l-.04.02-.04.02c-.02 0-.04 0-.05.02H19l-.03.02c-.02 0-.03 0-.04.02s-.03 0-.05 0l-.04.03h-.04l-.04.02h-.04l-.04.02h-.04l-.04.02c-.02 0-.03 0-.05.02h-.04s-.02 0-.03.02h-.04l-.04.02h-.05c-.02 0-.03 0-.04.02s-.02 0-.03 0h-.05l-.04.02h-.04-.04c0 .02-.03.02-.04.02h-.08c-.02 0-.03 0-.04.02h-.14-.03-.04l-.04.02h-.05-.04-.12H11.23v-8.96l.1.02h.04l.04.02h.04l.04.02h.04l.04.02h.05l.05.02h.04l.03.02h.04l.04.02h.09l.04.02h.04l.04.02h.04l.04.02h.08l.04.02h.09l.05.02h.04l.03.02h.08l.05.02h.08l.04.02h.08l.04.02h.13l.04.02h.09l.04.02H13.2l.05.02h.13l.04.02h.12l.04.02h.13l.05.02H13.9l.06.02H14.2l.04.02h.26l.03.02H14.9l.04.02H16.37l.03-.02H16.72l.04-.02h.16l.04-.02h.16l.04-.02h.09l.04-.02H17.4l.04-.02h.04l.04-.02h.08c.02 0 .03 0 .04-.02h.08l.05-.02h.03l.04-.02h.04c.02 0 .04 0 .05-.02h.07l.04-.02h.04l.06-.03.04-.02h.04l.04-.02h.04l.04-.02c.02 0 .03 0 .04-.02h.04l.05-.02h.03l.04-.03h.04l.05-.03h.04l.03-.03h.04l.05-.02.04-.02h.04l.04-.03s.03 0 .04-.02h.04l.04-.03.04-.02c.02 0 .03 0 .05-.02l.04-.02h.03l.04-.03s.03 0 .04-.02l.05-.02c.02 0 .03-.02.04-.03 0 0 .02 0 .03-.02.02 0 .03 0 .05-.02l.04-.03.04-.02.04-.02.04-.03.04-.02.04-.03c.02 0 .03-.02.04-.03.02 0 .03-.03.04-.03l.05-.04.04-.03s0-.02.03-.04l.04-.03c0-.02.03-.03.04-.04.03 0 .04-.03.05-.04l.04-.04c0-.02.02-.03.03-.05.02 0 .03-.03.05-.04l.04-.06c0-.02.02-.03.04-.05 0-.03.02-.04.04-.06l.04-.06c0-.02.03-.04.04-.06 0-.02.03-.04.04-.06l.04-.06.04-.07.04-.08.05-.08c0-.03 0-.06.03-.1l.04-.1c0-.03.03-.06.04-.1.03-.04.04-.08.05-.12l.04-.16c0-.07.02-.13.03-.2l.04-.3c.02-.13.02-.27.02-.42v-4.93h-3.73v4.93l-.02.23c0 .1-.02.2-.04.3l-.05.15-.05.13c0 .04-.02.07-.04.1 0 .03 0 .06-.03.1l-.04.07c0 .03-.03.05-.04.07l-.05.07-.04.05c0 .02-.02.04-.03.05l-.05.05c0 .02-.02.04-.04.05 0 .02-.02.03-.04.05l-.04.04s-.03 0-.04.03l-.04.03-.04.04c-.02 0-.03.02-.04.03-.02 0-.03.02-.05.03-.02 0-.03.02-.05.03l-.04.02s0 .02-.03.02l-.04.03s-.03 0-.04.02h-.05l-.04.03-.03.02-.05.02-.04.02h-.04l-.04.02-.04.02h-.04l-.04.03h-.04c-.02.02-.03.02-.05.02h-.05l-.04.02h-.07l-.04.02h-.05l-.04.02h-.08-.04l-.04.02h-.04-.04-.04-.18H14.43l-.04-.02H14.2l-.03-.02h-.13L14 31.1h-.14l-.04-.02h-.05l-.04-.02h-.09l-.04-.02h-.07l-.04-.02h-.06L13.4 31h-.04l-.04-.02h-.04l-.04-.02h-.04l-.04-.02h-.04l-.05-.02-.04-.02H13l-.05-.02h-.04l-.03-.02-.04-.02h-.04l-.06-.02h-.04l-.04-.03h-.08l-.04-.03h-.04l-.04-.03h-.05l-.03-.03h-.04l-.04-.02h-.05l-.04-.03h-.03l-.04-.03-.05-.02h-.04l-.04-.03-.04-.02-.04-.02h-.04l-.04-.03-.04-.02-.05-.02h-.04l-.03-.03-.04-.02h-.04l-.05-.03-.04-.02-.03-.02h-.03l-.04-.03-.04-.02-.04-.02-.1-.04V19.74c0-.3.04-.6.1-.87 0-.06.02-.12.04-.18 0-.06.02-.1.04-.16 0-.04.02-.1.04-.13 0-.03.03-.07.04-.1l.04-.12.04-.1.04-.1.05-.08c0-.03.02-.06.04-.08 0-.03 0-.06.03-.08 0-.03.03-.05.04-.08l.04-.07.05-.08.04-.06c0-.03.02-.05.03-.07l.05-.07c0-.02.02-.04.04-.06 0-.02.02-.03.04-.05 0-.02.02-.04.04-.06 0-.02.03-.03.04-.05l.04-.04c0-.02.03-.04.04-.05.02 0 .03-.02.04-.04l.05-.05c.02 0 .03-.02.05-.03l.04-.05.03-.04.04-.04.04-.04.05-.04.04-.04.04-.04.04-.04.04-.03s.03 0 .04-.03l.04-.03.04-.03.04-.03c.02 0 .03-.02.04-.03.02 0 .03-.02.05-.03l.04-.02c.02 0 .03-.02.05-.03l.04-.03.03-.02.04-.03.04-.03c.03 0 .04 0 .05-.02.02 0 .03-.02.04-.03 0-.02.02-.02.04-.03l.04-.03.04-.02s.03 0 .04-.02l.04-.02.04-.02.04-.02.04-.03h.05l.04-.03h.05c0-.02.02-.03.04-.03 0 0 .02 0 .03-.02 0 0 .03 0 .04-.02l.04-.02h.04l.04-.03h.04l.04-.02c.02 0 .03 0 .04-.02h.05l.04-.02h.03l.04-.02s.03 0 .04-.02h.05l.04-.02h.03l.05-.02h.04l.04-.02h.04s.03 0 .04-.02h.08l.05-.02h.09l.04-.02H15l.05-.02H15.3l.04-.02H21.75v21.27h-.02zm11.75 0c0 .2 0 .37-.03.55 0 .08-.02.16-.04.25l-.03.2-.04.15-.04.13c-.03.04-.04.1-.06.13 0 .03-.02.07-.04.1 0 .04-.02.08-.04.1 0 .04-.02.07-.04.1 0 .04-.03.07-.04.1l-.04.08c0 .03-.03.05-.04.08l-.04.08-.05.07c0 .02 0 .04-.03.07 0 .02-.02.04-.04.06l-.04.07-.05.06c0 .02-.03.04-.04.06l-.03.05c-.02 0-.03.03-.04.05l-.04.06c-.03 0-.04.03-.05.05l-.05.06-.04.05c0 .02-.02.04-.04.05 0 .02-.02.03-.04.05 0 .02-.03.03-.04.04 0 .02-.03.03-.04.05-.02 0-.03 0-.04.03-.02 0-.03.03-.04.04-.02 0-.03.03-.05.04l-.04.05-.04.04c-.02 0-.03 0-.05.02 0 .02-.03.03-.04.04l-.03.03c-.02 0-.03.02-.04.03-.02 0-.03.02-.04.03-.03 0-.04.02-.06.03l-.04.03-.04.03-.04.03h-.04c0 .02-.03.03-.04.04-.02 0-.03.02-.04.03-.02 0-.03.02-.04.03l-.05.02s0 .02-.03.03l-.04.02-.04.03-.05.02-.04.02-.03.03-.04.02h-.04l-.05.03c-.02 0-.03 0-.05.02l-.04.02-.04.02h-.04c0 .02-.03.03-.04.03l-.04.02-.04.02-.04.02h-.05l-.04.02-.04.02h-.05l-.04.02-.03.02h-.04l-.04.03-.06.02h-.04l-.04.02h-.04c0 .02-.03.02-.04.03h-.04c-.02 0-.03 0-.04.02h-.08c-.02 0-.03 0-.05.02H30l-.05.02h-.04-.03l-.04.02h-.14l-.04.02h-.08-.08l-.04.02h-.05-.03-.04-.09-6.28v-9.82l.1.08.04.03c.02 0 .03 0 .04.02.02 0 .03.02.04.03.02 0 .03.02.04.03.02 0 .03.02.05.03 0 .02 0 .03.03.04l.04.02.04.03.05.02.04.02.03.03.05.02.04.02.04.02.04.02.04.02.04.03.04.03c.02 0 .03 0 .04.02l.04.02.05.02H24c0 .02 0 .03.03.03l.04.02.04.02.05.02h.04l.03.03h.04l.05.03.04.02h.04l.04.03c0 .02.03.02.04.03h.04l.04.03h.04l.05.03h.04l.03.02h.04l.04.02.05.02h.04l.03.02h.04l.05.03.04.02h.04l.04.02h.04l.04.02h.04l.04.02h.05l.04.02h.03l.04.02h.04l.05.02h.04l.03.02h.09l.04.02h.04l.04.02h.08l.04.02h.1l.04.02H26.2l.05.02h.07l.04.02h.13l.04.02h.16l.04.02H26.95l.04.02h.28l.04.02H29.16l.04-.02h.26l.04-.02h.21l.05-.02H29.86l.04-.02h.14l.04-.02h.12l.04-.02h.13l.04-.02h.09l.03-.02h.08l.05-.02h.09l.04-.02h.08l.04-.02h.08l.05-.02h.08l.05-.02h.04l.03-.02h.08l.05-.02h.05l.04-.02h.08l.04-.02h.04l.04-.02h.09l.04-.02h.04l.05-.02h.04l.03-.02h.04l.04-.02h.06l.04-.02h.04l.04-.02h.04l.04-.02h.04l.04-.02v-1.8l-.04.03-.04.02h-.04l-.04.02-.04.02-.04.02-.04.02-.04.02-.05.02-.04.02-.04.02-.05.02-.04.02h-.03l-.04.03-.04.02-.06.02-.04.02h-.04l-.04.02-.04.02h-.04l-.04.03-.04.02h-.04l-.05.02h-.04l-.04.03h-.05l-.04.03h-.03l-.04.03-.04.02h-.06l-.04.03h-.04l-.04.02-.04.02h-.08l-.04.02h-.05l-.03.03h-.04l-.04.02h-.05l-.04.02h-.07l-.05.02h-.04l-.04.02h-.04l-.04.02h-.08l-.04.02h-.04l-.05.02h-.07l-.04.02h-.09l-.03.02h-.13l-.04.02h-.12l-.04.02h-.2l-.04.02H28.66h-.36l-.04-.02h-.04-.04-.08l-.04-.02h-.13c0-.02 0-.02-.03-.02h-.04-.04c-.02-.02-.04-.02-.05-.02h-.04l-.03-.02h-.04c-.02 0-.03 0-.05-.02h-.04l-.04-.02h-.04l-.04-.02h-.04c0-.02-.03-.02-.04-.02-.02 0-.03 0-.04-.02h-.04c-.02-.02-.03-.02-.05-.02 0 0 0-.02-.03-.02l-.04-.02h-.04l-.05-.03H27l-.03-.03h-.04l-.04-.04c-.03 0-.04 0-.06-.02h-.04l-.04-.03s-.03 0-.04-.02l-.04-.02-.04-.03-.04-.02c-.02 0-.03-.02-.04-.03l-.04-.02c-.02 0-.03-.02-.05-.03l-.04-.03-.04-.03-.05-.04-.04-.03-.03-.04c-.02 0-.03-.02-.04-.03l-.04-.04-.05-.04-.05-.05-.04-.04c0-.02-.02-.03-.04-.05 0-.02-.02-.03-.04-.05 0-.02-.03-.04-.04-.05 0-.02-.03-.04-.04-.06l-.04-.06-.04-.06-.05-.07c0-.03-.02-.05-.04-.08l-.04-.08-.05-.08c0-.05-.03-.08-.04-.1 0-.05-.02-.08-.03-.12l-.04-.13-.04-.14c-.03-.06-.04-.12-.05-.2l-.05-.3v-.36-.37c0-.1.03-.2.05-.3 0-.06.02-.13.04-.2 0-.04 0-.1.03-.14 0-.04.02-.1.04-.13 0-.03.02-.07.04-.1l.05-.1c0-.03.03-.06.04-.1l.03-.07.04-.08.05-.06c0-.04.02-.06.04-.08 0-.02.02-.04.04-.06 0-.02.03-.04.04-.05l.04-.05c.02 0 .03-.03.04-.05.02 0 .03-.03.04-.05.02 0 .03-.03.04-.04.02 0 .03-.02.05-.03 0-.02.02-.03.04-.04 0-.02 0-.03.03-.04 0-.03.02-.04.04-.05l.04-.04c.02 0 .04 0 .05-.02l.04-.03c0-.02.02-.03.03-.04.02 0 .03 0 .04-.02.02 0 .03-.02.05-.03l.04-.02.04-.03.04-.03.04-.02.04-.02.04-.03s.03 0 .04-.02c.02 0 .03 0 .04-.02.02 0 .03 0 .05-.02l.03-.02.04-.02.04-.02h.05c0-.02.03-.03.04-.03 0 0 .02 0 .03-.02s.03 0 .04 0l.04-.03h.06c0-.02.02-.02.04-.02l.04-.02h.04l.04-.02h.04c0-.02.03-.02.04-.02h.04l.04-.02h.05c0-.02.02-.02.04-.02h.04c.02 0 .04 0 .05-.02h.07l.04-.02h.1l.04-.02h.16l.04-.02H29.2l.03.02h.17l.04.02h.12l.04.02h.08l.04.02h.09l.05.02h.07l.04.02H30l.05.02h.09l.04.02h.04l.04.02h.04l.04.02h.04l.05.02h.04l.04.02h.05l.04.02h.03l.04.03h.1l.04.02.04.02h.04l.04.02.04.02H31l.04.02.04.02h.04l.05.03h.04l.05.03h.04l.03.03.04.02.04.02.05.02h.04l.04.03h.04l.04.02.04.02.04.02.04.02.04.02.05.02.04.02.04.02h.05l.04.03h.03l.04.03.04.02.05.02.05.02h.04l.04.03.04.03v-1.8h-.04l-.04-.02h-.04l-.05-.02h-.04l-.03-.02h-.04l-.04-.02h-.05l-.04-.02-.05-.02h-.04l-.03-.02h-.08l-.05-.02h-.05l-.04-.02h-.04l-.04-.02h-.08l-.04-.02h-.04l-.05-.02h-.08l-.05-.02h-.07l-.04-.02h-.09l-.05-.02h-.04l-.04-.02h-.12l-.04-.02h-.09l-.04-.02h-.09l-.04-.02H30.3l-.06-.02h-.08l-.04-.02H30l-.04-.02h-.17l-.05-.02h-.1l-.04-.02H29.4l-.05-.02H29.1l-.04-.02h-.48l-.04-.02H27.3l-.04.02H26.93l-.04.02h-.17l-.04.02h-.16l-.04.02h-.14l-.04.02h-.07l-.03.02h-.09l-.03.02H26l-.05.02h-.07l-.04.02h-.09l-.04.02h-.04l-.04.02h-.04l-.04.02h-.08l-.05.02h-.03l-.04.02h-.04l-.05.02h-.04l-.03.02h-.04l-.04.02h-.05l-.04.03h-.07l-.05.02h-.04l-.04.03h-.04l-.04.02-.04.02h-.04l-.04.02h-.05c0 .02-.02.02-.04.03h-.03l-.04.03h-.04l-.05.03-.04.02-.03.02-.04.02-.05.02h-.04l-.04.03-.04.03-.04.02s-.03 0-.04.02l-.04.02h-.04l-.05.03-.04.02s0 .02-.03.02l-.04.03-.04.02c-.02 0-.04 0-.05.02l-.04.03s-.02 0-.03.02h-.04l-.04.04-.06.02-.04.03-.04.02-.04.03-.04.03c-.02 0-.03.02-.04.03-.02 0-.03.02-.04.04-.02 0-.03.02-.04.03-.02 0-.03.02-.05.03 0 0 0 .02-.03.03l-.08.07v-5.56c0-.3.02-.6.07-.87l.04-.17.06-.16c0-.04.02-.08.04-.13 0-.03.02-.07.04-.1 0-.04.02-.08.04-.12 0-.03.03-.06.04-.1 0-.03.03-.06.04-.1l.04-.08.04-.08.05-.08c0-.03 0-.05.03-.08l.04-.07c0-.03.02-.05.04-.08l.05-.06.04-.07c0-.03.02-.05.03-.07l.04-.06.04-.05c.03-.02.04-.04.05-.06l.05-.05.04-.04c0-.02.02-.04.04-.05l.04-.04c0-.02.03-.03.04-.05.02 0 .03-.02.04-.03l.04-.05c.02 0 .03-.03.04-.04.02 0 .03-.03.05-.04 0-.02.02-.03.04-.04 0-.02.02-.03.04-.04l.05-.04.04-.04.03-.04c.02 0 .03-.02.04-.03.02 0 .03-.02.04-.03l.05-.03c.02 0 .03-.02.05-.03l.04-.03.04-.03.04-.03s.03 0 .04-.02l.04-.03c.02 0 .03-.02.04-.03l.04-.02c.02 0 .03-.02.05-.03l.04-.03.04-.02c.02 0 .03-.02.05-.03 0-.02.03-.02.04-.03l.03-.03c.02 0 .03 0 .04-.02.02 0 .03 0 .04-.02l.06-.02.04-.02.04-.02.04-.03h.04l.04-.03h.04l.04-.03c.02 0 .03 0 .04-.02.02 0 .03 0 .05-.02h.04c0-.02.02-.03.04-.03s.04 0 .05-.02h.04c0-.02.02-.02.03-.03h.04l.04-.03.06-.02H26c0-.02.02-.02.04-.02 0 0 .03 0 .04-.02h.04l.04-.02h.04l.04-.02h.04l.05-.02h.04l.04-.02h.09l.03-.02h.08c.03 0 .04-.02.05-.02h.13l.04-.02h.25l.04-.02H33.56v21.27h-.02zm11.77 0c0 .13 0 .26-.02.38 0 .1-.02.22-.04.33l-.05.2c0 .07-.02.12-.04.18l-.03.15c0 .04-.03.08-.04.13 0 .04-.03.08-.04.12l-.05.1-.05.1c0 .04-.02.07-.04.1 0 .03-.02.06-.04.08 0 .03-.02.06-.04.1l-.04.06-.04.08-.04.07-.04.08-.04.06-.05.06c0 .02-.02.04-.04.06l-.05.06c0 .02-.02.04-.04.06 0 .02-.02.04-.03.05l-.04.06c-.02 0-.03.02-.04.04-.03 0-.04.03-.05.05-.02 0-.03.02-.05.04l-.04.04c0 .02-.02.03-.04.05l-.04.04c0 .02-.03.03-.04.04 0 .03-.03.04-.04.05 0 .02-.03.03-.04.04-.02 0-.03.02-.04.03l-.04.04-.05.04c0 .02-.02.03-.04.05-.02 0-.03.02-.05.03l-.04.04-.03.03-.04.03c-.02 0-.03.02-.04.03l-.05.05-.05.02s-.02.03-.04.03l-.04.03-.04.03-.04.03h-.04l-.04.04-.04.02-.05.03-.03.02s-.03 0-.04.02l-.04.02-.04.02-.04.02c-.02 0-.03.02-.05.03l-.04.02-.05.02-.04.02h-.03l-.04.03c-.02 0-.03 0-.04.02-.03 0-.04 0-.05.02s-.03 0-.05 0c0 .02-.02.03-.04.03l-.04.02h-.04l-.04.03h-.04l-.04.03h-.04l-.04.03c-.02 0-.03 0-.05.02h-.04c-.02.02-.04.02-.05.02h-.04c0 .02-.02.02-.03.03h-.04l-.04.02h-.1l-.04.02h-.08l-.04.02h-.08l-.05.02h-.03-.04l-.04.02h-.09H41.3l-.06.02h-.04H34.75v-8.67H41.75l.04-.02h.2s.03 0 .04-.02h.09l.03-.02h.04l.03-.02h.04l.04-.02h.04s.03 0 .04-.02h.04l.04-.02.04-.02h.05c0-.02.02-.02.04-.02l.04-.02h.05c0-.02.03-.03.04-.03 0-.02.02-.02.03-.03.02 0 .03 0 .04-.02.02 0 .03 0 .04-.02.03 0 .04 0 .06-.02h.04l.04-.03.04-.02.04-.02.04-.02s.03 0 .04-.02l.04-.02.05-.03s0-.02.03-.03l.04-.03.04-.03c.02 0 .04-.02.05-.03l.04-.03.03-.03.04-.04.05-.04c0-.02.02-.03.04-.04 0-.02.02-.03.04-.05 0-.02.03-.03.04-.05l.04-.05.04-.06c.02 0 .03-.03.04-.05l.04-.06.05-.08c0-.03.02-.06.04-.08 0-.04.02-.07.03-.1 0-.03.03-.07.04-.1 0-.05.03-.1.04-.15.03-.08.04-.15.05-.22l.02-.28c0-.1 0-.18-.02-.26 0-.07-.02-.14-.04-.2 0-.05-.02-.1-.03-.14 0-.04-.03-.07-.04-.1 0-.04-.03-.07-.04-.1l-.05-.08-.05-.07c0-.02-.02-.04-.04-.06 0-.03-.02-.05-.04-.07 0-.02-.02-.03-.04-.05 0-.02-.03-.04-.04-.05 0-.02-.03-.03-.04-.05l-.04-.04-.04-.04-.05-.04-.04-.04-.04-.03-.05-.05-.04-.03-.03-.03-.04-.04c-.02 0-.03-.02-.04-.03-.03 0-.04 0-.06-.02l-.04-.02-.04-.02s-.03 0-.04-.02l-.04-.02-.04-.02-.04-.02-.04-.02-.05-.02s0-.02-.03-.02l-.04-.02s-.03 0-.04-.02h-.05l-.04-.03h-.03l-.04-.03h-.05l-.04-.02-.04-.02h-.04l-.04-.02h-.04l-.04-.02h-.04l-.05-.02h-.04l-.03-.02h-.04H42l-.05-.02H41.83l-.04-.02h-.16v-.06h.08c0-.02.03-.02.04-.02h.04c.02 0 .03 0 .04-.02h.05l.04-.02h.05L42 28h.03l.04-.02c.02 0 .03 0 .04-.02h.05c.02-.02.03-.02.05-.02l.04-.02.04-.02h.04c0-.02.03-.02.04-.03l.04-.03c.02 0 .03 0 .04-.02.02 0 .03 0 .04-.02.02 0 .03 0 .05-.02h.04c0-.02.02-.03.04-.04.02 0 .03 0 .05-.02l.04-.03h.03l.04-.04c.02 0 .03-.02.04-.03.03 0 .04-.02.06-.03l.04-.04.04-.03.04-.04c0-.02.03-.03.04-.05l.04-.04c.02 0 .03-.02.04-.04.02 0 .03-.03.04-.04l.05-.05c0-.02 0-.04.03-.06l.04-.05c0-.02.02-.04.04-.06l.05-.1.04-.07.03-.1.04-.1.05-.15c0-.08.03-.16.04-.24v-.2-.2c0-.1-.02-.17-.04-.25l-.05-.16c0-.04-.02-.07-.04-.1 0-.04-.02-.07-.04-.1l-.05-.08c0-.03-.03-.05-.04-.07 0-.04-.02-.06-.03-.08 0-.02-.03-.04-.04-.06-.02 0-.03-.03-.04-.05-.03 0-.04-.02-.06-.04l-.04-.04c0-.02-.02-.03-.04-.05l-.04-.04-.04-.04-.04-.04c-.02 0-.03-.02-.04-.04-.02 0-.03-.02-.04-.03l-.05-.04s0-.02-.03-.03l-.04-.02s-.03 0-.04-.02c-.02 0-.04-.02-.05-.03-.02 0-.03 0-.04-.02 0 0-.02 0-.03-.02h-.04l-.05-.03-.04-.02-.04-.02-.04-.02h-.04l-.04-.02c-.02 0-.03 0-.04-.02s-.03 0-.04 0l-.05-.03h-.04c0-.02 0-.02-.03-.02h-.04l-.04-.02h-.05l-.04-.02h-.03l-.05-.02h-.04l-.04-.02h-.08l-.04-.02h-.2l-.04-.02h-.25l-.04-.02h-6.35v-4.42c0-.3.04-.6.1-.87 0-.06.02-.12.04-.18 0-.06.02-.1.03-.16 0-.04.03-.1.04-.13l.04-.1.05-.12.05-.1c0-.03.02-.06.04-.1l.04-.08c0-.03.02-.06.04-.08 0-.03.03-.06.04-.08l.04-.08.04-.07.04-.08.05-.06c0-.03.02-.05.04-.07 0-.03.02-.05.04-.07l.05-.06c0-.02.03-.04.04-.05l.03-.06c0-.02.03-.03.04-.05.02 0 .03-.03.04-.04l.06-.05.04-.04c0-.02.02-.03.04-.05l.04-.03.04-.05.04-.04.04-.04.04-.04.05-.04c0-.02 0-.03.03-.04l.04-.04.04-.04c.02 0 .04-.02.05-.03.02 0 .03 0 .04-.03l.03-.03c.02 0 .03-.02.04-.03l.04-.03.06-.03.04-.03.04-.02.04-.03.04-.03.04-.02.04-.03c.02 0 .03-.02.04-.03l.05-.02s0-.02.03-.03c0-.02.02-.02.04-.03l.04-.03c.02 0 .04 0 .05-.02 0 0 .03 0 .04-.02l.03-.02.04-.02.05-.02.04-.03h.04l.04-.03h.04c0-.02.03-.03.04-.03.02 0 .03 0 .04-.02s.03 0 .04-.02.03 0 .04 0l.05-.03.03-.02h.04c0-.02.03-.02.04-.03h.05l.04-.02.03-.02h.05l.04-.02h.04c0-.02.03-.02.04-.03h.04l.04-.02h.08c.02 0 .03 0 .05-.02h.09c0-.02.02-.02.03-.02h.04s.03 0 .04-.02h.09s.02 0 .03-.02h.17l.04-.02H45.26v21.25zm-8.4-7.98H39.5s.02 0 .03.02H39.62l.04.02h.04c0 .02.03.02.04.03h.04c0 .02.03.03.04.03l.04.02.04.02c.02 0 .03.02.05.03l.04.02s0 .02.03.03l.04.03c0 .03.03.04.04.05.02 0 .04.02.05.04l.04.03c0 .02.02.04.04.05 0 .02 0 .04.03.06l.04.07.05.08c0 .04.03.07.04.1 0 .05.02.1.03.14.02.08.03.17.03.26 0 .1 0 .18-.03.26 0 .05-.02.1-.04.14l-.05.1-.04.08-.03.06-.04.06-.05.05c0 .02-.02.03-.04.04 0 .02-.02.03-.04.04 0 .03-.03.04-.04.05l-.04.03c-.02 0-.03.02-.04.03l-.05.04-.04.02c-.02 0-.03 0-.05.02l-.04.02s-.02 0-.03.02-.03 0-.04.02h-.04l-.05.02h-.04V31h-.04-.04-.04c0 .02-.02.02-.04.02h-.04H36.84v-2.24h.02zm0-1.27V25.4H39.3c0 .02 0 .02.02.02h.05l.04.02h.06l.04.02.04.02s.03 0 .04.02c0 0 .03 0 .04.02.02 0 .03 0 .04.02l.04.02c.02 0 .03.02.04.03l.05.04s0 .02.03.03c0 .02.03.03.04.04 0 .02.03.04.04.05l.05.05.04.05.03.06.04.1.05.08c0 .05.03.1.04.14l.02.24c0 .08 0 .16-.02.24 0 .05-.03.1-.04.14l-.05.1-.04.07c0 .03-.02.05-.04.07l-.05.05c0 .02-.03.03-.04.05l-.03.04c0 .02-.03.03-.04.05-.02 0-.03.02-.04.03-.03 0-.04.02-.06.03 0 .02-.02.03-.04.03l-.04.03-.04.02s-.03 0-.04.02c0 0-.03 0-.04.02h-.04l-.04.03h-.05l-.03.02h-.08c-.02 0-.03 0-.05.02H36.83z"/>
</svg>
