<?xml version="1.0" encoding="utf-8"?>
<!-- Generator: Adobe Illustrator 16.0.0, SVG Export Plug-In . SVG Version: 6.00 Build 0)  -->
<!DOCTYPE svg PUBLIC "-//W3C//DTD SVG 1.1//EN" "http://www.w3.org/Graphics/SVG/1.1/DTD/svg11.dtd">
<svg version="1.1" id="Calque_1" xmlns="http://www.w3.org/2000/svg" xmlns:xlink="http://www.w3.org/1999/xlink" x="0px" y="0px"
	 width="24px" height="24px" viewBox="0 0 24 24" enable-background="new 0 0 24 24" xml:space="preserve">
<g>
	<g>
		<path fill="#24D390" d="M16.318,15.119h-8.98c-0.162,0-0.295,0.132-0.295,0.296c0,0.163,0.133,0.295,0.295,0.295h8.98
			c0.164,0,0.297-0.132,0.297-0.295C16.615,15.251,16.482,15.119,16.318,15.119z"/>
		<path fill="#24D390" d="M16.318,12.676h-8.98c-0.162,0-0.295,0.133-0.295,0.295c0,0.164,0.133,0.297,0.295,0.297h8.98
			c0.164,0,0.297-0.133,0.297-0.297C16.615,12.809,16.482,12.676,16.318,12.676z"/>
		<path fill="#24D390" d="M16.318,10.231h-8.98c-0.162,0-0.295,0.133-0.295,0.297c0,0.162,0.133,0.294,0.295,0.294h8.98
			c0.164,0,0.297-0.132,0.297-0.294C16.615,10.364,16.482,10.231,16.318,10.231z"/>
		<path fill="#24D390" d="M7.338,8.435h4.109c0.162,0,0.295-0.131,0.295-0.294c0-0.164-0.133-0.295-0.295-0.295H7.338
			c-0.162,0-0.295,0.131-0.295,0.295C7.043,8.304,7.176,8.435,7.338,8.435z"/>
		<path fill="#24D390" d="M20.414,4.512l-3.186-3.139c-0.14-0.137-0.324-0.212-0.521-0.212H4.105c-0.408,0-0.738,0.33-0.738,0.738
			v17.967c0,0.198,0.081,0.392,0.226,0.53l2.233,2.151c0.286,0.276,0.738,0.276,1.024,0l2.277-2.194l2.363,2.277
			c0.287,0.275,0.738,0.275,1.025,0l2.362-2.277l2.363,2.277c0.143,0.139,0.327,0.207,0.512,0.207c0.187,0,0.371-0.068,0.515-0.207
			l2.141-2.062c0.143-0.139,0.225-0.33,0.225-0.53v-15C20.633,4.839,20.555,4.649,20.414,4.512z M17.754,21.074l-2.363-2.278
			c-0.285-0.276-0.738-0.276-1.024,0l-2.361,2.278L9.64,18.796c-0.144-0.139-0.327-0.207-0.513-0.207s-0.369,0.068-0.513,0.207
			l-2.276,2.196l-1.494-1.44V2.637h11.424v2.408c0,0.245,0.196,0.442,0.44,0.442h2.446v14.236L17.754,21.074z"/>
	</g>
</g>
</svg>
