<?xml version="1.0" encoding="utf-8"?>
<!-- Generator: Adobe Illustrator 16.0.0, SVG Export Plug-In . SVG Version: 6.00 Build 0)  -->
<!DOCTYPE svg PUBLIC "-//W3C//DTD SVG 1.1//EN" "http://www.w3.org/Graphics/SVG/1.1/DTD/svg11.dtd">
<svg version="1.1" id="Calque_1" xmlns="http://www.w3.org/2000/svg" xmlns:xlink="http://www.w3.org/1999/xlink" x="0px" y="0px"
	 width="24px" height="24px" viewBox="2.012 0 24 24" enable-background="new 2.012 0 24 24" xml:space="preserve">
<g>
	<path fill="#999999" d="M25.951,12.79c-0.903-0.873-2.002-1.49-3.186-1.785c-0.029-0.016-0.062-0.025-0.097-0.025H22.56
		c-0.033,0-0.066,0.01-0.096,0.025c-0.358,0.191-0.847,0.303-1.345,0.303c-0.496,0-0.985-0.111-1.343-0.303
		c-0.03-0.016-0.063-0.025-0.097-0.025h-0.079c-0.015,0-0.032,0.002-0.047,0.006c-0.526,0.125-1.035,0.317-1.519,0.563
		c-0.251,0.867-0.729,1.695-1.375,2.33h9.147c0.112,0,0.204-0.09,0.204-0.204v-0.733C26.011,12.884,25.991,12.83,25.951,12.79z"/>
	<path fill="#999999" d="M18.808,7.724c0,0.221,0.169,0.4,0.376,0.4c0.003,0,0.005,0,0.008,0c0.078,1.056,0.911,2.113,1.927,2.113
		c1.017,0,1.849-1.058,1.927-2.113c0.002,0,0.005,0,0.007,0c0.208,0,0.377-0.18,0.377-0.4c0-0.162-0.091-0.303-0.223-0.367
		c0.076-0.235,0.117-0.49,0.117-0.756c0-1.291-0.985-2.338-2.205-2.338c-1.219,0-2.206,1.047-2.206,2.338
		c0,0.266,0.042,0.52,0.119,0.756C18.899,7.421,18.808,7.562,18.808,7.724z"/>
	<path fill="#999999" d="M9.859,11.48c-0.42-0.203-0.858-0.363-1.308-0.476c-0.03-0.016-0.064-0.025-0.098-0.025H8.345
		c-0.034,0-0.067,0.01-0.096,0.025c-0.358,0.191-0.848,0.302-1.344,0.302c-0.498,0-0.988-0.111-1.344-0.303
		c-0.03-0.016-0.063-0.024-0.098-0.024H5.385c-0.016,0-0.032,0.001-0.047,0.005c-1.214,0.288-2.341,0.913-3.265,1.806
		c-0.039,0.039-0.061,0.093-0.061,0.148v0.734c0,0.114,0.091,0.205,0.206,0.205h9.034C10.589,13.228,10.103,12.371,9.859,11.48z"/>
	<path fill="#999999" d="M4.593,7.724c0,0.221,0.17,0.4,0.377,0.4c0.002,0,0.005,0,0.008,0c0.078,1.056,0.909,2.113,1.927,2.113
		c1.016,0,1.848-1.058,1.928-2.113c0.001,0,0.003,0,0.005,0c0.21,0,0.378-0.18,0.378-0.4c0-0.162-0.091-0.303-0.223-0.367
		C9.069,7.121,9.11,6.866,9.11,6.602c0-1.291-0.987-2.339-2.205-2.339c-1.219,0-2.207,1.048-2.207,2.339
		c0,0.266,0.042,0.52,0.118,0.756C4.685,7.421,4.593,7.562,4.593,7.724z"/>
	<path fill="#999999" d="M10.008,9.792c0,0.379,0.289,0.686,0.644,0.686c0.005,0,0.008,0,0.012,0
		c0.05,0.678,0.282,1.353,0.644,1.937c0.143,0.23,0.308,0.441,0.488,0.636c0.579,0.625,1.333,1.037,2.16,1.037
		c0.883,0,1.684-0.471,2.276-1.165c0.072-0.084,0.141-0.173,0.205-0.266c0.455-0.63,0.751-1.403,0.81-2.179c0.003,0,0.007,0,0.012,0
		c0.356,0,0.646-0.307,0.646-0.686c0-0.276-0.158-0.517-0.382-0.624c0.128-0.405,0.2-0.839,0.2-1.291
		c0-2.206-1.686-3.995-3.767-3.995c-2.082,0-3.767,1.789-3.767,3.995c0,0.453,0.071,0.886,0.202,1.291
		C10.165,9.275,10.008,9.516,10.008,9.792z"/>
	<path fill="#999999" d="M16.766,15.21c-0.051-0.027-0.107-0.043-0.166-0.043h-0.184c-0.057,0-0.115,0.016-0.165,0.042
		c-0.61,0.328-1.447,0.515-2.295,0.515c-0.849,0-1.685-0.188-2.295-0.515c-0.052-0.026-0.108-0.042-0.166-0.042h-0.135
		c-0.026,0-0.054,0.004-0.08,0.01c-2.073,0.491-4,1.558-5.573,3.085c-0.068,0.065-0.107,0.158-0.107,0.251v1.255
		c0,0.195,0.156,0.351,0.353,0.351h16.007c0.192,0,0.35-0.156,0.35-0.351v-1.255c0-0.093-0.038-0.186-0.106-0.251
		C20.666,16.769,18.787,15.715,16.766,15.21z"/>
</g>
</svg>
