<svg xmlns="http://www.w3.org/2000/svg" width="512" height="512" viewBox="0 0 56.48 56.48">
  <path fill="#F0F0F0" d="M24.25 26.3h-4.28v-5.36h4.28v1.12h-3v.96h2.93v1.1h-2.93v1.07h3v1.1zm-9.55 0l-1.86-4.2v4.2h-2.6l-.5-1.2H7.07l-.5 1.2h-1.4l2.3-5.36h1.9l2.2 5.08v-5.08h2.08l1.68 3.64 1.54-3.64H19v5.37h-1.3v-4.2l-1.87 4.2H14.7zM9.27 24l-.87-2.15L7.52 24h1.75zm20.75 7.94c0 1.5-1.1 1.8-2.23 1.8h-1.6v1.8h-2.5l-1.58-1.77-1.65 1.77H15.4v-5.36h5.15l1.58 1.75 1.63-1.75h4.1c1.02 0 2.16.28 2.16 1.76zm-8.73.9l-1.4-1.55h-3.23v.96h2.82v1.1h-2.83v1.07h3.16l1.46-1.58zm3.6-2.1l-1.96 2.13 1.97 2.2v-4.32zm3.75 1.2c0-.47-.32-.66-.8-.66H26.2v1.37h1.65c.5 0 .8-.24.8-.7zm-2.23-5.64h-1.28v-5.36h2.95c.64 0 1.13 0 1.54.25.4.24.65.6.65 1.18 0 .86-.58 1.3-.9 1.43.27.12.5.3.62.47.2.26.22.5.22.98v1.05h-1.3v-.67c0-.32.03-.8-.2-1.05-.2-.18-.48-.23-.94-.23h-1.38v1.95zm0-3.05h1.56c.25 0 .46 0 .64-.1.16-.1.26-.3.26-.52 0-.23-.1-.4-.27-.48-.14-.08-.37-.1-.6-.1h-1.58v1.2zm5.92-2.3h-1.3v5.36h1.3v-5.36zm1.32 4.76c-.45-.44-.7-1.06-.7-2.04 0-.8.15-1.52.7-2.1.42-.42 1.07-.62 1.95-.62h1.25v1.15h-1.2c-.48 0-.75.06-1 .3-.22.23-.37.66-.37 1.22 0 .58.1 1 .35 1.26.2.22.56.28.9.28h.57l1.8-4.22h1.94L42 26.02v-5.08h1.96l2.26 3.74v-3.74h1.3v5.37h-1.8l-2.44-4.02v4.03h-2.6l-.5-1.2H37.5l-.48 1.2h-1.5c-.63 0-1.4-.13-1.86-.6zm4.3-1.7h1.77l-.9-2.15-.87 2.14zm-2.7-.96c0 .02-.1.2-.1.58 0 .37.07.55.1.63l.26.02.56-1.3h-.44c-.3 0-.33.04-.37.07zM56.5 11.4v33.7c0 .8-.65 1.44-1.45 1.44H1.45C.65 46.54 0 45.9 0 45.1V11.4c0-.8.65-1.46 1.45-1.46h53.58c.8 0 1.45.65 1.45 1.45zM14.7 27.2h1.13c.35 0 .67-.2.8-.54l.18-.38v.03c0 .5.4.9.9.9H19c.2 0 .35-.08.5-.17.13.1.3.16.47.16h4.28c.17 0 .3-.07.45-.15.13.08.27.14.44.14h1.28c.5 0 .9-.4.9-.9v-1.06h.73v1.07c0 .5.4.9.9.9h1.3c.13 0 .26-.05.38-.12.13.07.26.1.4.1h1.3c.44 0 .78-.3.87-.7.73.6 1.75.7 2.32.7h1.5c.36 0 .7-.2.82-.54l.26-.65h1.48l.27.65c.14.33.46.54.82.54h2.6c.5 0 .9-.4.9-.9v-.84l.78 1.3c.16.27.45.43.76.43h1.83c.5 0 .9-.4.9-.9v-5.36c0-.5-.4-.9-.9-.9h-1.3c-.5 0-.9.4-.9.9v.55l-.6-1.02c-.17-.27-.46-.43-.77-.43H42c-.48 0-.88.4-.88.9v.74l-.47-1.1c-.14-.34-.46-.55-.8-.55H37.9c-.2 0-.4.07-.53.18-.16-.1-.35-.18-.54-.18h-1.24c-1.06 0-1.84.26-2.4.76-.08-.42-.43-.75-.87-.75h-1.3c-.36 0-.66.2-.8.5-.06-.04-.1-.1-.16-.12-.6-.35-1.25-.38-2-.38h-2.96c-.16 0-.3.06-.44.14-.13-.1-.28-.15-.45-.15h-4.28c-.18 0-.34.07-.48.16-.15-.08-.3-.15-.5-.15h-2.13c-.35 0-.67.22-.8.54l-.77 1.8-.84-1.83c-.15-.32-.46-.52-.8-.52h-2.1c-.5 0-.9.4-.9.9v.76l-.47-1.1c-.15-.34-.47-.55-.82-.55h-1.9c-.36 0-.68.2-.82.54l-2.3 5.36c-.1.27-.1.58.08.83.16.24.44.4.74.4h1.4c.35 0 .67-.23.8-.56l.28-.65h1.48l.27.64c.15.33.47.55.83.55h2.6c.5 0 .9-.4.9-.9v-.02l.16.38c.13.32.45.53.8.53zm37.5 6.65c0-.75-.2-1.3-.65-1.76 0-.02-.02-.03-.03-.04.25-.16.4-.43.4-.74v-1.15c0-.5-.4-.88-.88-.88h-2.57c-.8 0-1.4.22-1.84.58-.12-.34-.44-.6-.83-.6h-2.57c-.7 0-1.26.18-1.7.47-.14-.27-.42-.46-.75-.46H36.5c-.35 0-.64.2-.78.48-.06-.05-.1-.1-.17-.14-.62-.33-1.28-.35-1.96-.35H30.6c-.34 0-.63.2-.78.48-.45-.3-1.08-.5-1.98-.5h-4.1c-.24 0-.48.1-.65.3l-.96 1.04-.93-1.04c-.16-.2-.4-.3-.65-.3H15.4c-.5 0-.9.4-.9.9v5.36c0 .5.4.9.9.9h5.07c.25 0 .5-.1.65-.3l.98-1.06.93 1.05c.17.2.4.3.67.3h2.5c.48 0 .88-.4.88-.9v-.9h.7c.87 0 1.5-.18 1.96-.45v1.36c0 .5.4.9.88.9h1.3c.48 0 .88-.4.88-.9v-1.07h.74v1.07c0 .5.4.9.9.9h1.28c.14 0 .27-.05.4-.1.1.05.24.1.38.1h4.28c.14 0 .27-.05.4-.1.1.05.23.1.37.1h2.5c.8 0 1.44-.2 1.93-.55.13.3.45.53.8.53h2.5c1.83 0 2.9-.97 2.9-2.58zm-7.98-1.57l-.7-.02c-.2 0-.36 0-.5-.06-.15-.06-.27-.2-.27-.4 0-.17.05-.3.2-.4.12-.07.27-.08.5-.08h2.36v-1.15h-2.56c-1.35 0-1.84.82-1.84 1.6 0 1.7 1.5 1.62 2.7 1.66.23 0 .36.04.46.12.1.08.16.2.16.36 0 .15-.07.27-.15.36-.1.1-.28.13-.53.13h-2.48v1.14h2.5c1.3 0 2-.54 2-1.7 0-.55-.13-.87-.38-1.13-.3-.28-.77-.4-1.46-.42zm-9.34.77c.28.1.52.3.63.45.2.26.22.5.22.98v1.06h-1.3v-.67c0-.32.05-.8-.2-1.05-.18-.2-.47-.24-.93-.24H31.9v1.96h-1.3v-5.36h2.97c.64 0 1.1.02 1.53.25.4.24.66.58.66 1.2 0 .85-.58 1.3-.92 1.42zm-.5-1.18c0-.23-.1-.4-.27-.5-.15-.08-.38-.08-.6-.08h-1.6v1.2h1.57c.25 0 .47-.02.64-.12.17-.1.27-.3.27-.5zm2.12 3.67h4.28v-1.1l-3-.02v-1.06h2.93v-1.1H37.8v-.98h3v-1.1H36.5v5.36zm12.96-3.26l-.7-.02c-.2 0-.36 0-.5-.06-.15-.06-.27-.2-.27-.4 0-.17.04-.3.18-.4.13-.07.28-.08.52-.08h2.35v-1.15h-2.57c-1.35 0-1.84.82-1.84 1.6 0 1.7 1.5 1.62 2.7 1.66.23 0 .36.04.46.12.1.08.16.2.16.36 0 .15-.07.27-.15.36-.1.1-.27.13-.52.13H46.8v1.14h2.5c1.3 0 2-.54 2-1.7 0-.55-.12-.87-.38-1.13-.3-.28-.77-.4-1.46-.42z"/>
</svg>
