<svg xmlns="http://www.w3.org/2000/svg" width="512" height="512" viewBox="0 0 330 330">
  <g fill="#F0F0F0">
    <path d="M315 42.86H15c-8.28 0-15 6.7-15 15v214.28c0 8.3 6.72 15 15 15h300c8.28 0 15-6.7 15-15V57.86c0-8.3-6.72-15-15-15zm-88.13 169.32c-13.1 12.27-30.6 19.3-48.02 19.3H148.84c-36.8 0-66.72-29.58-66.72-65.95 0-38.2 28.8-67.02 66.98-67.02h29.44c17.82 0 35.37 6.78 48.2 18.6 13.63 12.55 21.13 29.75 21.13 48.43 0 17.4-7.45 33.96-21 46.65z"/>
    <path d="M149.3 111.68c-29.35 0-53.2 23.87-53.2 53.2 0 29.35 23.85 53.2 53.2 53.2 29.3 0 53.17-23.85 53.17-53.2 0-29.33-23.86-53.2-53.18-53.2zm-13 87.04c-13.6-5.23-23.23-18.4-23.26-33.83.03-15.45 9.65-28.6 23.26-33.88v67.7zm25.96 0v-67.7c13.6 5.24 23.26 18.43 23.3 33.87-.04 15.43-9.7 28.6-23.3 33.82z"/>
  </g>
</svg>
