<?xml version="1.0" encoding="utf-8"?>
<!-- Generator: Adobe Illustrator 16.0.0, SVG Export Plug-In . SVG Version: 6.00 Build 0)  -->
<!DOCTYPE svg PUBLIC "-//W3C//DTD SVG 1.1//EN" "http://www.w3.org/Graphics/SVG/1.1/DTD/svg11.dtd">
<svg version="1.1" id="Calque_1" xmlns="http://www.w3.org/2000/svg" xmlns:xlink="http://www.w3.org/1999/xlink" x="0px" y="0px"
	 width="841.889px" height="595.281px" viewBox="0 0 841.889 595.281" enable-background="new 0 0 841.889 595.281"
	 xml:space="preserve">
<g>
	<path fill="#EA4335" d="M242.958,556.333V38.14h212.397c97.316,0,173.755,69.078,173.755,182.139
		c0,112.295-76.438,181.373-173.755,181.373H412.09c-23.142,0-34.745-4.699-49.428-19.625l-16.979,17.29
		c13.143,13.333,19.306,22.761,19.306,42.388v114.628H242.958z M364.988,261.899c0,15.697-5.407,22.759-17.766,36.121l14.685,15.696
		c13.898-14.129,24.715-18.061,44.021-18.061h26.255c42.479,0,74.927-30.624,74.927-75.375c0-45.518-32.448-76.141-74.927-76.141
		h-33.991c-16.224,0-23.929-4.731-36.286-17.293l-14.685,14.129c12.359,12.562,17.766,20.426,17.766,36.12V261.899z"/>
</g>
</svg>
