<?xml version="1.0" encoding="utf-8"?>
<!-- Generator: Adobe Illustrator 16.0.0, SVG Export Plug-In . SVG Version: 6.00 Build 0)  -->
<!DOCTYPE svg PUBLIC "-//W3C//DTD SVG 1.1//EN" "http://www.w3.org/Graphics/SVG/1.1/DTD/svg11.dtd">
<svg version="1.1" id="Calque_1" xmlns="http://www.w3.org/2000/svg" xmlns:xlink="http://www.w3.org/1999/xlink" x="0px" y="0px"
	 width="24px" height="24px" viewBox="0 0 24 24" enable-background="new 0 0 24 24" xml:space="preserve">
<g>
	<g>
		<path fill="#24D390" d="M18.796,14.989h-5.719c-0.173,0-0.31,0.137-0.31,0.306c0,0.171,0.137,0.309,0.31,0.309h5.719
			c0.17,0,0.308-0.138,0.308-0.309C19.104,15.126,18.966,14.989,18.796,14.989z"/>
		<path fill="#24D390" d="M21.062,4.226H2.938C1.87,4.226,1,5.096,1,6.163v11.674c0,1.067,0.87,1.938,1.938,1.938h18.125
			c1.067,0,1.938-0.871,1.938-1.938V6.163C23,5.096,22.131,4.226,21.062,4.226z M2.938,5.764h18.125
			c0.222,0,0.399,0.179,0.399,0.399v1.813H2.537V6.163C2.537,5.942,2.718,5.764,2.938,5.764z M21.062,18.236H2.938
			c-0.221,0-0.401-0.182-0.401-0.399v-6.514h18.926v6.514C21.463,18.057,21.284,18.236,21.062,18.236z"/>
	</g>
</g>
</svg>
