<?xml version="1.0" encoding="utf-8"?>
<!-- Generator: Adobe Illustrator 16.0.0, SVG Export Plug-In . SVG Version: 6.00 Build 0)  -->
<!DOCTYPE svg PUBLIC "-//W3C//DTD SVG 1.1//EN" "http://www.w3.org/Graphics/SVG/1.1/DTD/svg11.dtd">
<svg version="1.1" id="Calque_1" xmlns="http://www.w3.org/2000/svg" xmlns:xlink="http://www.w3.org/1999/xlink" x="0px" y="0px"
	 width="512px" height="512px" viewBox="0 0 512 512" enable-background="new 0 0 512 512" xml:space="preserve">
<g>
	<path fill="#6F6F6E" stroke="#6F6F6E" stroke-width="12" stroke-miterlimit="10" d="M256.652,54.422
		c-111.297,0-201.858,90.545-201.858,201.841c0,111.304,90.561,201.857,201.858,201.857c111.295,0,201.841-90.554,201.841-201.857
		C458.493,144.968,367.947,54.422,256.652,54.422z M256.652,426.99c-94.15,0-170.728-76.592-170.728-170.727
		c0-94.126,76.577-170.711,170.728-170.711c94.134,0,170.711,76.584,170.711,170.711C427.363,350.398,350.786,426.99,256.652,426.99
		z"/>
	<path fill="#6F6F6E" stroke="#6F6F6E" stroke-width="12" stroke-miterlimit="10" d="M345.564,248.042h-79.012V135.584
		c0-6.806-5.518-12.34-12.332-12.34c-6.806,0-12.34,5.534-12.34,12.34v128.917c0,2.601,0.814,5.011,2.198,6.995
		c2.632,5.574,8.261,9.455,14.837,9.455h86.648c9.091,0,16.45-7.367,16.45-16.45C362.015,255.417,354.655,248.042,345.564,248.042z"
		/>
</g>
</svg>
