<?xml version="1.0" encoding="utf-8"?>
<!-- Generator: Adobe Illustrator 19.0.0, SVG Export Plug-In . SVG Version: 6.00 Build 0)  -->
<svg version="1.1" id="Calque_1" xmlns="http://www.w3.org/2000/svg" xmlns:xlink="http://www.w3.org/1999/xlink" x="0px" y="0px"
	 viewBox="0 0 45 28.5" style="enable-background:new 0 0 45 28.5;" xml:space="preserve">
<style type="text/css">
	.st0{fill:#3C3C3B;}
	.st1{fill:#50BD8A;}
</style>
<g>
	<path class="st0" d="M13.2,23.9c5.4,1.9,10,2.9,17.5,2.9c1.7,0,3.3,0,4.5-0.2l0.1,0.5c-3.4,1-6.5,1.4-10.5,1.4
		C11.1,28.5,0,21.3,0,12.2C0,4.8,5.4,0,11.9,0c6.5,0,11.9,4.8,11.9,12.2c0,7.2-5.2,12.1-12.2,12.1L13.2,23.9z M11.9,23.7
		c4.9,0,8.4-4.7,8.4-11.4S16.9,0.8,11.9,0.8C7,0.8,3.5,5.5,3.5,12.2S7,23.7,11.9,23.7z"/>
	<path class="st0" d="M27.5,10.5h-0.6V10l4.8-1.7h0.5v15.9h-2.7V12.7C29.4,10.8,29.1,10.5,27.5,10.5z M26.9,23.5h2.1
		c0.3,0,0.5-0.2,0.5-0.5v1.1h-2.5V23.5L26.9,23.5z M42.5,24.2h-2.7V13.7c0-2.5-1-3.7-3.3-3.7c-1.7,0-3.2,0.9-4.5,2.8v-0.8
		c1.4-2.3,3.5-4,6-4c2.7,0,4.5,1.9,4.5,5.6V24.2L42.5,24.2z M32.1,24.2v-1.1c0,0.3,0.2,0.5,0.5,0.5h2.1v0.6H32.1z M37.2,23.5h2.1
		c0.3,0,0.5-0.2,0.5-0.5v1.1h-2.5V23.5z M42.5,24.2v-1.1c0,0.3,0.2,0.5,0.5,0.5H45v0.6H42.5z"/>
</g>
<g id="XMLID_54_">
	<path id="XMLID_58_" class="st1" d="M30.9,41.6c0.8-2.6,1.5-3.2,3.1-3.2h0.3v-0.7h-6.8v0.7h1c1.5,0,2.1,0.8,1.4,3.1l-4.1,13.8h0.7
		l-6.5-17.9h-0.8l-5.7,17.9h0.5l-5-15.1c-0.4-1.2-0.2-1.9,1-1.9h1.3v-0.7H2.8v0.7h0.5c1,0,1.5,0.3,2,1.8l6.9,19.5H13l5.5-17.2h-0.4
		l6.4,17.2h0.8L30.9,41.6z"/>
	<path id="XMLID_55_" class="st1" d="M33.5,47.1h2.9c0.3-2.1,1.3-2.8,2.8-2.8c1.5,0,2.3,0.8,2.3,3.1v10.1c0,1.8,1.1,2.8,2.8,2.8
		c1.5,0,2.9-0.9,3.5-1.5l-0.3-0.4c-0.3,0.3-0.8,0.5-1.3,0.5c-1,0-1.6-0.7-1.6-2.1V48c0-2.8-1.3-4.6-4.7-4.6
		C37.1,43.5,33.9,45.6,33.5,47.1L33.5,47.1z M41.5,51.3l-3.4,0.8c-3.9,0.9-5.2,2.4-5.2,4.4c0,2.1,1.5,3.6,3.9,3.6
		c2.1,0,3.6-1.1,4.7-2.6V57c-0.7,0.6-1.8,1.1-3.3,1.1c-1.5,0-2.4-0.8-2.4-2.4c0-1.5,1-2.3,4.1-3.3l1.6-0.5V51.3z"/>
</g>
<path id="XMLID_61_" class="st0" d="M65.1,39.7c5.4,1.9,10,2.9,17.5,2.9c1.7,0,3.3,0,4.5-0.2l0.1,0.5c-3.4,1-6.5,1.4-10.5,1.4
	c-13.7,0-24.8-7.2-24.8-16.2c0-7.5,5.4-12.2,11.9-12.2c6.5,0,11.9,4.8,11.9,12.2c0,7.2-5.2,12.1-12.2,12.1L65.1,39.7z"/>
</svg>
