<?xml version="1.0" encoding="utf-8"?>
<!-- Generator: Adobe Illustrator 16.0.0, SVG Export Plug-In . SVG Version: 6.00 Build 0)  -->
<!DOCTYPE svg PUBLIC "-//W3C//DTD SVG 1.1//EN" "http://www.w3.org/Graphics/SVG/1.1/DTD/svg11.dtd">
<svg version="1.1" id="Calque_1" xmlns="http://www.w3.org/2000/svg" xmlns:xlink="http://www.w3.org/1999/xlink" x="0px" y="0px"
	 width="144.332px" height="91.294px" viewBox="0 0 144.332 91.294" enable-background="new 0 0 144.332 91.294"
	 xml:space="preserve">
<g>
	<path d="M42.332,76.504c17.341,6.12,32.131,9.282,56.103,9.282c5.61,0,10.507-0.102,14.587-0.612l0.204,1.53
		c-10.915,3.06-20.911,4.59-33.662,4.59C35.702,91.294,0,68.343,0,39.272C0,15.301,17.341,0,38.252,0
		c20.911,0,38.252,15.301,38.252,39.272c0,22.951-16.831,38.762-39.272,38.762L42.332,76.504z M38.252,75.994
		c15.811,0,27.031-14.995,27.031-36.722S54.062,2.55,38.252,2.55c-15.811,0-27.031,14.995-27.031,36.722
		S22.441,75.994,38.252,75.994z"/>
	<path d="M88.229,33.662h-2.04v-1.53l15.301-5.61h1.53v51.002h-8.67V40.802C94.349,34.682,93.329,33.662,88.229,33.662z
		 M86.188,75.484h6.63c1.02,0,1.53-0.51,1.53-1.53v3.57h-8.161V75.484z M136.171,77.524h-8.67V43.862
		c0-8.161-3.366-11.935-10.71-11.935c-5.61,0-10.2,2.754-14.281,8.875v-2.55c4.59-7.344,11.221-12.75,19.381-12.75
		c8.67,0,14.281,6.12,14.281,17.851V77.524z M103.02,77.524v-3.57c0,1.02,0.51,1.53,1.53,1.53h6.63v2.04H103.02z M119.34,75.484
		h6.63c1.02,0,1.53-0.51,1.53-1.53v3.57h-8.16V75.484z M136.171,77.524v-3.57c0,1.02,0.51,1.53,1.53,1.53h6.63v2.04H136.171z"/>
</g>
</svg>
