<?xml version="1.0" encoding="utf-8"?>
<!-- Generator: Adobe Illustrator 16.0.0, SVG Export Plug-In . SVG Version: 6.00 Build 0)  -->
<!DOCTYPE svg PUBLIC "-//W3C//DTD SVG 1.1//EN" "http://www.w3.org/Graphics/SVG/1.1/DTD/svg11.dtd">
<svg version="1.1" id="Calque_1" xmlns="http://www.w3.org/2000/svg" xmlns:xlink="http://www.w3.org/1999/xlink" x="0px" y="0px"
	 width="105px" height="70px" viewBox="0 0 105 70" enable-background="new 0 0 105 70" xml:space="preserve">
<g>
	<path fill="#C7C6C6" d="M30.8,57.517c12.6,4.434,23.333,6.767,40.833,6.767c3.967,0,7.701,0,10.5-0.467l0.234,1.167
		c-7.934,2.333-15.167,3.267-24.5,3.267C25.9,68.25,0,51.45,0,30.217C0,12.95,12.6,1.75,27.767,1.75s27.767,11.2,27.767,28.467
		c0,16.8-12.133,28.233-28.467,28.233L30.8,57.517z M27.767,57.05c11.434,0,19.6-10.966,19.6-26.6
		c0-15.633-7.934-26.833-19.6-26.833c-11.433,0-19.6,10.967-19.6,26.6C8.167,45.85,16.333,57.05,27.767,57.05z"/>
	<path fill="#C7C6C6" d="M64.166,26.25h-1.399v-1.167l11.2-3.967h1.166v37.1h-6.299V31.383C68.6,26.95,67.9,26.25,64.166,26.25z
		 M62.767,56.584h4.899c0.701,0,1.168-0.467,1.168-1.168v2.567H63v-1.399H62.767z M99.166,58.217h-6.299v-24.5
		c0-5.833-2.334-8.633-7.701-8.633c-3.966,0-7.466,2.1-10.5,6.533V29.75c3.268-5.367,8.168-9.333,14-9.333
		c6.301,0,10.5,4.434,10.5,13.067V58.217L99.166,58.217z M74.9,58.217V55.65c0,0.699,0.467,1.166,1.166,1.166h4.9v1.4H74.9z
		 M86.8,56.584h4.9c0.7,0,1.167-0.467,1.167-1.168v2.567h-5.834v-1.399H86.8z M99.166,58.217V55.65c0,0.699,0.467,1.166,1.168,1.166
		H105v1.4H99.166z"/>
</g>
</svg>
