<?xml version="1.0" encoding="utf-8"?>
<!-- Generator: Adobe Illustrator 16.0.0, SVG Export Plug-In . SVG Version: 6.00 Build 0)  -->
<!DOCTYPE svg PUBLIC "-//W3C//DTD SVG 1.1//EN" "http://www.w3.org/Graphics/SVG/1.1/DTD/svg11.dtd">
<svg version="1.1" id="Calque_1" xmlns="http://www.w3.org/2000/svg" xmlns:xlink="http://www.w3.org/1999/xlink" x="0px" y="0px"
	 width="18.215px" height="6.968px" viewBox="0 0 18.215 6.968" enable-background="new 0 0 18.215 6.968" xml:space="preserve">
<g>
	<g>
		<path fill="#F5E462" d="M16.631,0h-5.383c-0.875,0-1.584,0.711-1.584,1.585v0.084h1.271V1.585c0-0.173,0.139-0.312,0.312-0.312
			h5.383c0.172,0,0.312,0.14,0.312,0.312v3.797c0,0.172-0.141,0.312-0.312,0.312h-5.383c-0.174,0-0.312-0.141-0.312-0.312V5.298
			H9.664v0.084c0,0.875,0.709,1.586,1.584,1.586h5.383c0.873,0,1.584-0.711,1.584-1.586V1.585C18.215,0.711,17.504,0,16.631,0z"/>
		<path fill="#F5E462" d="M7.281,5.382c0,0.172-0.142,0.312-0.312,0.312H1.586c-0.175,0-0.314-0.141-0.314-0.312V1.585
			c0-0.173,0.14-0.312,0.314-0.312H6.97c0.17,0,0.312,0.14,0.312,0.312v0.084h1.271V1.585C8.552,0.711,7.841,0,6.97,0H1.586
			C0.713,0,0,0.711,0,1.585v3.797c0,0.875,0.713,1.586,1.586,1.586H6.97c0.871,0,1.582-0.711,1.582-1.586V5.298H7.281V5.382z"/>
		<path fill="#F5E462" d="M4.758,3.065v0.836c0,0.351,0.283,0.636,0.635,0.636h7.496c0.351,0,0.633-0.285,0.633-0.636V3.065
			c0-0.351-0.282-0.634-0.633-0.634H5.393C5.041,2.432,4.758,2.715,4.758,3.065z"/>
	</g>
</g>
</svg>
