<?xml version="1.0" encoding="utf-8"?>
<!-- Generator: Adobe Illustrator 16.0.0, SVG Export Plug-In . SVG Version: 6.00 Build 0)  -->
<!DOCTYPE svg PUBLIC "-//W3C//DTD SVG 1.1//EN" "http://www.w3.org/Graphics/SVG/1.1/DTD/svg11.dtd">
<svg version="1.1" id="Calque_1" xmlns="http://www.w3.org/2000/svg" xmlns:xlink="http://www.w3.org/1999/xlink" x="0px" y="0px"
	 width="10px" height="7.302px" viewBox="0 0 10 7.302" enable-background="new 0 0 10 7.302" xml:space="preserve">
<g>
	<path fill="#6F6F6E" d="M9.583,6.469H0.417C0.188,6.469,0,6.655,0,6.885s0.188,0.417,0.417,0.417h9.166
		C9.813,7.302,10,7.116,10,6.885S9.813,6.469,9.583,6.469z"/>
	<path fill="#6F6F6E" d="M9.583,3.235H0.417C0.188,3.235,0,3.421,0,3.651c0,0.23,0.188,0.417,0.417,0.417h9.166
		C9.813,4.068,10,3.881,10,3.651C10,3.421,9.813,3.235,9.583,3.235z"/>
	<path fill="#6F6F6E" d="M0.417,0.833h9.166C9.813,0.833,10,0.647,10,0.417S9.813,0,9.583,0H0.417C0.188,0,0,0.187,0,0.417
		S0.188,0.833,0.417,0.833z"/>
</g>
</svg>
