<?xml version="1.0" encoding="utf-8"?>
<!-- Generator: Adobe Illustrator 16.0.0, SVG Export Plug-In . SVG Version: 6.00 Build 0)  -->
<!DOCTYPE svg PUBLIC "-//W3C//DTD SVG 1.1//EN" "http://www.w3.org/Graphics/SVG/1.1/DTD/svg11.dtd">
<svg version="1.1" id="Calque_1" xmlns="http://www.w3.org/2000/svg" xmlns:xlink="http://www.w3.org/1999/xlink" x="0px" y="0px"
	 width="32px" height="32px" viewBox="0 0 32 32" enable-background="new 0 0 32 32" xml:space="preserve">
<g>
	<path fill="#49E4A9" d="M25.335,12.769h-1.619c0.007-0.067,0.021-0.133,0.021-0.202V9.077C23.737,4.624,20.114,1,15.661,1
		c-4.453,0-8.076,3.624-8.076,8.077v3.489c0,0.069,0.014,0.135,0.021,0.202H6.651c-1.484,0-2.693,1.209-2.693,2.693v12.845
		C3.958,29.791,5.167,31,6.651,31h18.685c1.485,0,2.693-1.209,2.693-2.693V15.462C28.029,13.978,26.821,12.769,25.335,12.769z
		 M11.708,12.566V9.077c0-2.181,1.773-3.955,3.954-3.955s3.955,1.774,3.955,3.955v3.489c0,0.069,0.013,0.135,0.02,0.202h-7.949
		C11.694,12.701,11.708,12.635,11.708,12.566z M25.967,28.307c0,0.349-0.283,0.632-0.632,0.632H6.651
		c-0.348,0-0.632-0.283-0.632-0.632V15.462c0-0.348,0.284-0.632,0.632-0.632h18.685c0.349,0,0.632,0.285,0.632,0.632V28.307z"/>
	<path fill="#49E4A9" d="M15.993,21.201c-0.853,0-1.543,0.691-1.543,1.543v2.971h3.087v-2.971
		C17.537,21.893,16.845,21.201,15.993,21.201z"/>
</g>
</svg>
