<?xml version="1.0" encoding="utf-8"?>
<!-- Generator: Adobe Illustrator 16.0.0, SVG Export Plug-In . SVG Version: 6.00 Build 0)  -->
<!DOCTYPE svg PUBLIC "-//W3C//DTD SVG 1.1//EN" "http://www.w3.org/Graphics/SVG/1.1/DTD/svg11.dtd">
<svg version="1.1" id="Calque_1" xmlns="http://www.w3.org/2000/svg" xmlns:xlink="http://www.w3.org/1999/xlink" x="0px" y="0px"
	 width="20px" height="20px" viewBox="0 0 20 20" enable-background="new 0 0 20 20" xml:space="preserve">
<path fill="#CCCCCC" d="M15.44,8.029h-0.917V4.524C14.523,2.03,12.494,0,10,0C7.505,0,5.476,2.03,5.476,4.524v3.505H4.559
	c-0.997,0-1.809,0.812-1.809,1.81v8.351C2.75,19.188,3.562,20,4.559,20H15.44c0.997,0,1.81-0.812,1.81-1.811V9.838
	C17.25,8.841,16.438,8.029,15.44,8.029z M10.947,17.071H9.053L8.697,14.06c0-0.719,0.583-1.302,1.302-1.302
	c0.719,0,1.303,0.583,1.303,1.302L10.947,17.071z M12.586,8.029H7.413V4.524c0-1.426,1.16-2.586,2.586-2.586
	c1.427,0,2.586,1.16,2.586,2.586V8.029z"/>
</svg>
