<?xml version="1.0" encoding="utf-8"?>
<!-- Generator: Adobe Illustrator 16.0.0, SVG Export Plug-In . SVG Version: 6.00 Build 0)  -->
<!DOCTYPE svg PUBLIC "-//W3C//DTD SVG 1.1//EN" "http://www.w3.org/Graphics/SVG/1.1/DTD/svg11.dtd">
<svg version="1.1" id="Calque_1" xmlns="http://www.w3.org/2000/svg" xmlns:xlink="http://www.w3.org/1999/xlink" x="0px" y="0px"
	 width="25px" height="25px" viewBox="0 0 25 25" enable-background="new 0 0 25 25" xml:space="preserve">
<path fill="#3B3B3B" d="M19.376,12.298l-2.192-1.593c-0.093-0.067-0.211-0.076-0.312-0.025c-0.101,0.052-0.164,0.155-0.164,0.268
	v0.895h-3.469V8.292h0.895c0.113,0,0.217-0.062,0.268-0.163c0.051-0.1,0.041-0.221-0.025-0.312l-1.592-2.194
	C12.727,5.545,12.637,5.5,12.542,5.5c-0.097,0-0.187,0.045-0.243,0.123l-1.594,2.194C10.64,7.908,10.63,8.029,10.68,8.129
	c0.052,0.101,0.155,0.163,0.269,0.163h0.893v3.549H8.294v-0.895c0-0.112-0.064-0.216-0.164-0.268
	c-0.102-0.05-0.221-0.042-0.312,0.025l-2.193,1.593C5.547,12.354,5.5,12.444,5.5,12.54c0,0.096,0.047,0.187,0.124,0.243l2.193,1.593
	c0.053,0.038,0.114,0.058,0.176,0.058c0.046,0,0.094-0.012,0.137-0.033c0.1-0.052,0.164-0.154,0.164-0.268V13.24h3.547v3.468h-0.893
	c-0.113,0-0.217,0.062-0.269,0.163c-0.05,0.1-0.04,0.221,0.025,0.312l1.594,2.192c0.056,0.079,0.146,0.124,0.243,0.124
	c0.095,0,0.184-0.045,0.242-0.124l1.592-2.192c0.066-0.092,0.076-0.213,0.025-0.312c-0.051-0.102-0.154-0.163-0.268-0.163h-0.895
	V13.24h3.469v0.893c0,0.113,0.063,0.216,0.164,0.268c0.041,0.021,0.09,0.033,0.135,0.033c0.062,0,0.125-0.02,0.177-0.058
	l2.192-1.593c0.079-0.057,0.124-0.147,0.124-0.243C19.5,12.444,19.455,12.354,19.376,12.298z"/>
</svg>
