<?xml version="1.0" encoding="utf-8"?>
<!-- Generator: Adobe Illustrator 16.0.0, SVG Export Plug-In . SVG Version: 6.00 Build 0)  -->
<!DOCTYPE svg PUBLIC "-//W3C//DTD SVG 1.1//EN" "http://www.w3.org/Graphics/SVG/1.1/DTD/svg11.dtd">
<svg version="1.1" id="Calque_1" xmlns="http://www.w3.org/2000/svg" xmlns:xlink="http://www.w3.org/1999/xlink" x="0px" y="0px"
	 width="20px" height="20px" viewBox="0 0 20 20" enable-background="new 0 0 20 20" xml:space="preserve">
<path fill="#7E7E7E" d="M11.396,4.179c-0.101,0.003-0.189,0.052-0.248,0.132l-0.828,1.148c-0.039,0.054-0.06,0.119-0.06,0.185v1.008
	c-0.788,1.34-1.915,0.947-2.044,0.896C8.102,7.5,7.965,7.528,7.875,7.618l-1.01,1.01C6.793,8.701,6.76,8.805,6.778,8.907
	c0.191,1.094,0.613,1.905,1.127,2.507L4.563,14.68c-0.011,0.01-0.019,0.021-0.025,0.032l-0.515,0.871
	c-0.037,0.062-0.027,0.142,0.024,0.192c0.031,0.029,0.071,0.047,0.112,0.047c0.028,0,0.056-0.008,0.082-0.022l0.792-0.476
	c0.011-0.006,0.021-0.014,0.03-0.023l3.386-3.347c1.322,1.112,2.9,1.192,2.925,1.194c0.005,0,0.009,0,0.013,0
	c0.084,0,0.164-0.033,0.225-0.092l0.893-0.894c0.074-0.074,0.105-0.181,0.087-0.282c-0.229-1.238,0.706-1.947,1.013-2.142
	l1.129,0.233c0.104,0.021,0.213-0.01,0.287-0.086l0.893-0.891c0.066-0.067,0.1-0.16,0.091-0.255
	C15.539,4.104,11.439,4.181,11.396,4.179z M4.854,15.062l-0.24,0.144L4.8,14.891l3.287-3.211l0.071,0.117L4.854,15.062z"/>
</svg>
