<svg xmlns="http://www.w3.org/2000/svg" width="119" height="26">
  <path fill="#424770" fill-rule="evenodd" d="M113 26H6c-3.3 0-6-2.7-6-6V6c0-3.3 2.7-6 6-6h107c3.3 0 6 2.7 6 6v14c0 3.3-2.7 6-6 6zm5-20c0-2.76-2.24-5-5-5H6C3.24 1 1 3.24 1 6v14c0 2.76 2.24 5 5 5h107c2.76 0 5-2.24 5-5V6z" opacity=".35"/>
  <path fill="#424770" fill-rule="evenodd" d="M60.7 18.44h-1.3l1-2.5-2-5.07h1.37l1.27 3.45 1.27-3.45h1.4l-3 7.57zm-5-2.18c-.46 0-.93-.17-1.35-.5v.37H53V8.57h1.35v2.66c.42-.32.9-.5 1.34-.5 1.4 0 2.37 1.15 2.37 2.77s-.97 2.76-2.38 2.76zm-.3-4.36c-.36 0-.73.16-1.05.48v2.25c.32.3.7.47 1.06.47.76 0 1.3-.65 1.3-1.6 0-.95-.54-1.6-1.3-1.6zm-7.85 3.86c-.4.33-.87.5-1.33.5-1.4 0-2.38-1.14-2.38-2.76 0-1.62.98-2.76 2.38-2.76.46 0 .92.17 1.33.5V8.56h1.36v7.56h-1.35v-.37zm0-3.38c-.3-.32-.67-.48-1.04-.48-.76 0-1.28.65-1.28 1.6 0 .95.52 1.6 1.3 1.6.36 0 .73-.16 1.03-.47v-2.25zm-8.02 1.5c.1.8.72 1.34 1.6 1.34.5 0 1.02-.18 1.57-.5v1.13c-.6.27-1.2.4-1.8.4-1.58 0-2.7-1.15-2.7-2.8 0-1.58 1.1-2.7 2.6-2.7 1.4 0 2.32 1.08 2.32 2.63 0 .14 0 .3-.02.5h-3.57zm1.23-2.1c-.66 0-1.16.5-1.23 1.22h2.3c-.04-.72-.47-1.2-1.07-1.2zm-4.77.84v3.5h-1.36v-5.25H36v.53c.37-.42.83-.66 1.28-.66.15 0 .3.02.44.06V12c-.14-.04-.3-.07-.47-.07-.44 0-.9.25-1.26.7zm-6.02 1.25c.08.8.7 1.35 1.6 1.35.48 0 1.02-.18 1.57-.5v1.13c-.6.27-1.2.4-1.8.4-1.58 0-2.7-1.15-2.7-2.8 0-1.58 1.1-2.7 2.6-2.7 1.38 0 2.32 1.08 2.32 2.63 0 .14 0 .3-.02.5h-3.57zm1.22-2.08c-.65 0-1.16.47-1.22 1.2h2.3c-.05-.72-.48-1.2-1.08-1.2zm-5.93 4.33l-1.07-3.57-1.06 3.57h-1.2l-1.82-5.26h1.34l1.07 3.58 1.06-3.58h1.2l1.07 3.58 1.07-3.58h1.34l-1.8 5.26h-1.2zm-8.23.13c-1.6 0-2.7-1.15-2.7-2.76 0-1.62 1.1-2.76 2.7-2.76s2.7 1.14 2.7 2.76c0 1.6-1.1 2.76-2.7 2.76zm0-4.4c-.8 0-1.33.67-1.33 1.64 0 .97.55 1.63 1.34 1.63.78 0 1.33-.66 1.33-1.63 0-.97-.55-1.63-1.33-1.63zm-5.9 1.67H9.9v2.6H8.57V8.9h2.56c1.47 0 2.52.95 2.52 2.32 0 1.37-1.05 2.3-2.52 2.3zm-.2-3.54H9.92v2.44h1.02c.78 0 1.33-.5 1.33-1.22 0-.74-.55-1.23-1.33-1.23z" opacity=".5"/>
  <path fill="#424770" fill-rule="evenodd" d="M111.12 14.05h-5.56c.12 1.33 1.1 1.72 2.2 1.72 1.13 0 2.02-.23 2.8-.62v2.28c-.78.43-1.8.74-3.15.74-2.76 0-4.7-1.73-4.7-5.16 0-2.88 1.65-5.17 4.35-5.17 2.7 0 4.1 2.3 4.1 5.2l-.03 1.02zm-4.1-3.9c-.7 0-1.5.53-1.5 1.8h2.95c0-1.27-.74-1.8-1.44-1.8zm-8.9 8.02c-1 0-1.6-.42-2.02-.72v3.2l-2.85.62V8h2.5l.15.7c.4-.35 1.1-.87 2.22-.87 2 0 3.88 1.8 3.88 5.1 0 3.6-1.86 5.24-3.9 5.24zm-.67-7.83c-.66 0-1.06.24-1.36.56v4.22c.28.3.68.54 1.35.54 1.05 0 1.75-1.14 1.75-2.67 0-1.5-.72-2.66-1.75-2.66zM89.15 8H92v9.97h-2.85V8zm0-3.16l2.85-.6v2.3l-2.85.6v-2.3zm-3.04 6.38v6.75h-2.83V8h2.46l.17.85c.67-1.22 2-.97 2.38-.83v2.6c-.37-.1-1.5-.28-2.17.6zm-6.08 3.25c0 1.68 1.8 1.16 2.16 1v2.32c-.38.2-1.07.37-2 .37-1.68 0-2.94-1.24-2.94-2.92v-9.1l2.78-.6V8h2.16v2.44h-2.16v4.04zm-3.53.5c-.02 2.03-1.64 3.2-4 3.2-.98 0-2.05-.2-3.1-.65v-2.7c.94.5 2.16.9 3.1.9.63 0 1.1-.17 1.1-.7 0-1.35-4.33-.84-4.33-3.98 0-2 1.54-3.2 3.84-3.2.95 0 1.9.13 2.83.5v2.68c-.86-.47-1.96-.73-2.82-.73-.6 0-.96.16-.96.6 0 1.28 4.34.67 4.34 4.06z" opacity=".5"/>
</svg>
