<?xml version="1.0" encoding="utf-8"?>
<!-- Generator: Adobe Illustrator 16.0.0, SVG Export Plug-In . SVG Version: 6.00 Build 0)  -->
<!DOCTYPE svg PUBLIC "-//W3C//DTD SVG 1.1//EN" "http://www.w3.org/Graphics/SVG/1.1/DTD/svg11.dtd">
<svg version="1.1" id="Calque_1" xmlns="http://www.w3.org/2000/svg" xmlns:xlink="http://www.w3.org/1999/xlink" x="0px" y="0px"
	 width="22.323px" height="25px" viewBox="0 0 22.323 25" enable-background="new 0 0 22.323 25" xml:space="preserve">
<g>
	<path fill="#FFFFFF" d="M15.227,21.587c-0.104-0.372-0.441-0.628-0.827-0.628h-1.822V17.86c-0.462,0.077-0.935,0.12-1.417,0.12
		c-0.483,0-0.957-0.042-1.418-0.12v3.099h-1.82c-0.386,0-0.724,0.256-0.827,0.628l-0.647,2.324C6.377,24.17,6.43,24.447,6.592,24.66
		C6.755,24.874,7.008,25,7.276,25h7.77c0.002,0,0.004,0,0.007,0c0.474,0,0.858-0.385,0.858-0.858c0-0.119-0.023-0.231-0.066-0.333
		L15.227,21.587z"/>
	<path fill="#FFFFFF" d="M19.885,3.172c-0.238-0.062-0.479-0.093-0.719-0.093c-0.111,0-0.221,0.008-0.332,0.02v-2.29
		C18.834,0.362,18.474,0,18.027,0H4.296C3.85,0,3.488,0.362,3.488,0.809v2.29c-0.111-0.012-0.221-0.02-0.331-0.02
		c-0.24,0-0.481,0.031-0.719,0.093C0.554,3.675-0.45,6.049,0.195,8.477c0.565,2.122,2.204,3.582,3.866,3.582
		c0.084,0,0.168-0.008,0.253-0.017c0.061,0.133,0.126,0.264,0.195,0.392c0.013,0.024,0.025,0.048,0.038,0.07
		c0.101,0.186,0.208,0.366,0.321,0.541c0.013,0.02,0.025,0.04,0.039,0.059c0.119,0.179,0.242,0.354,0.373,0.523
		c0.003,0.004,0.007,0.009,0.011,0.014c0.273,0.353,0.576,0.68,0.901,0.98c0.006,0.005,0.011,0.012,0.016,0.016
		c0.161,0.147,0.327,0.287,0.498,0.419c0.008,0.006,0.016,0.012,0.024,0.018c0.706,0.542,1.5,0.959,2.354,1.219
		c0.003,0.001,0.005,0.002,0.008,0.003c0.214,0.064,0.431,0.12,0.651,0.166c0.001,0,0.001,0,0.001,0l0,0
		c0.229,0.046,0.46,0.082,0.694,0.106c0.006,0.001,0.011,0.001,0.016,0.001c0.233,0.023,0.47,0.037,0.708,0.037
		c0.238,0,0.473-0.013,0.706-0.037c0.006,0,0.012,0,0.018-0.001c0.234-0.023,0.464-0.06,0.692-0.106c0.001,0,0.001,0,0.001,0
		c0.001,0,0.001,0,0.002,0c0.22-0.045,0.437-0.101,0.65-0.165c0.003-0.001,0.006-0.002,0.01-0.003
		c0.854-0.26,1.647-0.677,2.353-1.219c0.008-0.006,0.016-0.013,0.023-0.019c0.172-0.132,0.338-0.272,0.498-0.419
		c0.005-0.005,0.011-0.01,0.017-0.016c0.325-0.299,0.628-0.628,0.902-0.982c0.004-0.003,0.007-0.007,0.01-0.012
		c0.131-0.17,0.255-0.345,0.374-0.524c0.013-0.019,0.026-0.039,0.039-0.058c0.113-0.176,0.221-0.356,0.321-0.542
		c0.012-0.022,0.024-0.045,0.037-0.069c0.068-0.129,0.133-0.26,0.196-0.394c0.084,0.008,0.169,0.017,0.253,0.017
		c1.662,0,3.3-1.46,3.865-3.582C22.773,6.049,21.769,3.675,19.885,3.172z M1.523,8.123C1.081,6.459,1.662,4.801,2.792,4.5
		c0.119-0.032,0.242-0.047,0.366-0.047c0.11,0,0.22,0.015,0.331,0.038v3.813c0,0.232,0.011,0.463,0.029,0.691
		c0.002,0.03,0.003,0.062,0.006,0.092c0.019,0.216,0.046,0.43,0.08,0.642C3.609,9.767,3.615,9.803,3.621,9.84
		c0.037,0.21,0.081,0.417,0.132,0.621c0.007,0.032,0.016,0.063,0.024,0.095c0.009,0.036,0.018,0.07,0.027,0.105
		C2.832,10.502,1.88,9.466,1.523,8.123z M15.356,6.559l-2.28,1.711l0.829,2.708c0.033,0.105-0.006,0.219-0.094,0.284
		c-0.045,0.033-0.099,0.05-0.152,0.05c-0.051,0-0.103-0.016-0.146-0.046l-2.352-1.618l-2.352,1.618
		c-0.089,0.063-0.21,0.06-0.299-0.004c-0.088-0.065-0.125-0.179-0.093-0.284L9.245,8.27L6.965,6.559
		C6.877,6.493,6.84,6.377,6.875,6.272c0.034-0.104,0.13-0.176,0.24-0.178l2.863-0.058l0.94-2.675
		c0.036-0.103,0.133-0.172,0.243-0.172c0.11,0,0.207,0.069,0.243,0.172l0.94,2.675l2.861,0.058c0.111,0.002,0.208,0.074,0.241,0.178
		C15.48,6.377,15.444,6.493,15.356,6.559z M20.8,8.123c-0.358,1.343-1.308,2.379-2.282,2.538c0.01-0.035,0.019-0.069,0.028-0.105
		c0.009-0.032,0.017-0.062,0.024-0.095c0.051-0.204,0.094-0.411,0.13-0.621c0.007-0.037,0.013-0.074,0.019-0.112
		c0.034-0.212,0.062-0.425,0.081-0.642c0.003-0.031,0.004-0.061,0.006-0.091c0.018-0.229,0.028-0.46,0.028-0.692V4.491
		c0.111-0.023,0.222-0.038,0.332-0.038c0.124,0,0.247,0.016,0.365,0.047C20.662,4.801,21.242,6.459,20.8,8.123z"/>
</g>
</svg>
