<?xml version="1.0" encoding="utf-8"?>
<!-- Generator: Adobe Illustrator 16.0.0, SVG Export Plug-In . SVG Version: 6.00 Build 0)  -->
<!DOCTYPE svg PUBLIC "-//W3C//DTD SVG 1.1//EN" "http://www.w3.org/Graphics/SVG/1.1/DTD/svg11.dtd">
<svg version="1.1" id="Calque_1" xmlns="http://www.w3.org/2000/svg" xmlns:xlink="http://www.w3.org/1999/xlink" x="0px" y="0px"
	 width="44.648px" height="50px" viewBox="-11.163 -12.5 44.648 50" enable-background="new -11.163 -12.5 44.648 50"
	 xml:space="preserve">
<g>
	<path fill="#6CEAB4" d="M19.292,30.674c-0.209-0.744-0.881-1.256-1.654-1.256h-3.645v-6.199c-0.922,0.156-1.869,0.242-2.833,0.242
		c-0.966,0-1.914-0.086-2.836-0.242v6.199H4.684c-0.771,0-1.447,0.512-1.653,1.256l-1.294,4.648
		c-0.145,0.518-0.038,1.072,0.285,1.498c0.326,0.428,0.832,0.68,1.368,0.68h15.541c0.004,0,0.008,0,0.014,0
		c0.947,0,1.717-0.77,1.717-1.715c0-0.238-0.047-0.463-0.133-0.668L19.292,30.674z"/>
	<path fill="#6CEAB4" d="M28.607-6.156c-0.475-0.124-0.957-0.186-1.438-0.186c-0.221,0-0.441,0.016-0.664,0.04v-4.58
		c0-0.895-0.719-1.618-1.613-1.618H-2.57c-0.892,0-1.616,0.724-1.616,1.618v4.58c-0.222-0.024-0.441-0.04-0.661-0.04
		c-0.48,0-0.963,0.062-1.438,0.186c-3.768,1.006-5.776,5.754-4.486,10.61c1.13,4.244,4.408,7.164,7.732,7.164
		c0.168,0,0.336-0.017,0.506-0.034c0.122,0.266,0.252,0.528,0.39,0.784c0.026,0.048,0.051,0.096,0.076,0.14
		c0.202,0.372,0.416,0.732,0.643,1.082c0.025,0.039,0.05,0.08,0.078,0.117c0.237,0.359,0.483,0.709,0.745,1.047
		c0.007,0.008,0.015,0.018,0.022,0.027c0.546,0.707,1.152,1.359,1.802,1.961c0.013,0.01,0.022,0.023,0.032,0.031
		c0.322,0.295,0.654,0.574,0.996,0.84c0.016,0.012,0.032,0.023,0.048,0.035c1.412,1.084,3,1.918,4.708,2.438
		c0.006,0.002,0.01,0.004,0.016,0.006c0.429,0.127,0.862,0.24,1.303,0.332c0.002,0,0.002,0,0.002,0l0,0
		c0.458,0.092,0.92,0.164,1.388,0.213c0.012,0,0.022,0,0.032,0c0.466,0.047,0.939,0.074,1.416,0.074
		c0.476,0,0.945-0.025,1.413-0.074c0.012,0,0.023,0,0.035,0c0.469-0.047,0.928-0.121,1.383-0.213c0.004,0,0.004,0,0.004,0
		s0,0,0.004,0c0.438-0.09,0.873-0.201,1.299-0.33c0.006-0.002,0.012-0.004,0.021-0.006c1.707-0.52,3.293-1.354,4.703-2.438
		c0.018-0.014,0.033-0.025,0.047-0.037c0.344-0.266,0.676-0.545,0.996-0.84c0.012-0.01,0.023-0.02,0.035-0.031
		c0.648-0.598,1.254-1.256,1.805-1.965c0.008-0.006,0.012-0.014,0.02-0.023c0.262-0.34,0.508-0.689,0.746-1.047
		c0.027-0.039,0.053-0.078,0.078-0.117c0.227-0.352,0.443-0.712,0.643-1.084c0.025-0.044,0.049-0.09,0.074-0.138
		c0.135-0.258,0.268-0.521,0.393-0.788c0.168,0.016,0.338,0.034,0.506,0.034c3.322,0,6.6-2.92,7.729-7.164
		C34.384-0.402,32.376-5.15,28.607-6.156z M-8.116,3.746C-9,0.418-7.837-2.898-5.578-3.5c0.238-0.064,0.484-0.094,0.732-0.094
		c0.22,0,0.439,0.029,0.662,0.076v7.626c0,0.464,0.021,0.926,0.058,1.382c0.004,0.06,0.006,0.124,0.012,0.184
		c0.038,0.433,0.092,0.86,0.16,1.284c0.01,0.076,0.022,0.148,0.034,0.222c0.074,0.42,0.162,0.834,0.264,1.242
		c0.014,0.064,0.032,0.126,0.048,0.19c0.019,0.071,0.036,0.14,0.055,0.21C-5.498,8.504-7.402,6.432-8.116,3.746z M19.55,0.618
		L14.99,4.04l1.658,5.416c0.066,0.21-0.012,0.438-0.188,0.568c-0.09,0.065-0.197,0.1-0.303,0.1c-0.104,0-0.207-0.032-0.293-0.092
		l-4.704-3.236l-4.704,3.236c-0.178,0.126-0.42,0.12-0.599-0.008c-0.176-0.131-0.25-0.358-0.186-0.568L7.329,4.04L2.768,0.618
		c-0.176-0.132-0.25-0.364-0.18-0.574c0.068-0.208,0.26-0.352,0.48-0.356l5.726-0.115l1.88-5.351
		c0.072-0.206,0.266-0.344,0.486-0.344c0.22,0,0.414,0.138,0.485,0.344l1.879,5.351l5.723,0.115
		c0.223,0.005,0.418,0.148,0.482,0.356C19.798,0.254,19.726,0.486,19.55,0.618z M30.439,3.746c-0.717,2.686-2.617,4.758-4.564,5.076
		c0.02-0.07,0.037-0.139,0.057-0.21c0.018-0.064,0.033-0.124,0.047-0.19C26.08,8.014,26.166,7.6,26.24,7.18
		c0.012-0.073,0.023-0.147,0.035-0.224c0.07-0.424,0.125-0.85,0.164-1.284c0.006-0.062,0.008-0.122,0.012-0.182
		c0.035-0.458,0.055-0.92,0.055-1.384v-7.624c0.223-0.047,0.445-0.076,0.664-0.076c0.25,0,0.496,0.031,0.73,0.094
		C30.162-2.898,31.322,0.418,30.439,3.746z"/>
</g>
</svg>
