<?xml version="1.0" encoding="utf-8"?>
<!-- Generator: Adobe Illustrator 16.0.0, SVG Export Plug-In . SVG Version: 6.00 Build 0)  -->
<!DOCTYPE svg PUBLIC "-//W3C//DTD SVG 1.1//EN" "http://www.w3.org/Graphics/SVG/1.1/DTD/svg11.dtd">
<svg version="1.1" id="Calque_1" xmlns="http://www.w3.org/2000/svg" xmlns:xlink="http://www.w3.org/1999/xlink" x="0px" y="0px"
	 width="40px" height="40px" viewBox="0 0 40 40" enable-background="new 0 0 40 40" xml:space="preserve">
<g>
	<path fill="#C6C6C6" d="M29.334,3.608c1.656,1.123,3.107,2.819,4.353,5.082c1.13,2.049,1.703,3.903,1.722,5.565
		c0.02,1.66-0.351,3.147-1.104,4.458c-0.76,1.312-1.828,2.429-3.207,3.363c-1.377,0.927-2.924,1.673-4.64,2.234
		c-0.166,0.056-0.432,0.143-0.793,0.261c-0.364,0.12-0.748,0.235-1.153,0.351c-0.397,0.116-0.806,0.219-1.199,0.314
		c-0.396,0.092-0.687,0.149-0.864,0.177l6.18,11.213l-6.779,2.225L4.072,6.598C5.32,5.896,6.738,5.204,8.33,4.512
		c1.589-0.684,3.207-1.299,4.856-1.84c1.716-0.564,3.513-0.996,5.39-1.301c1.879-0.307,3.728-0.289,5.551,0.047
		C25.945,1.756,27.684,2.483,29.334,3.608 M27.507,14.073c0.004-0.882-0.33-1.926-0.996-3.136c-0.563-1.021-1.229-1.801-1.992-2.343
		c-0.762-0.537-1.58-0.902-2.442-1.092c-0.867-0.191-1.756-0.23-2.666-0.115c-0.908,0.117-1.793,0.317-2.65,0.6
		c-0.66,0.217-1.271,0.441-1.844,0.685c-0.568,0.241-1.02,0.454-1.346,0.633l5.82,10.565c0.152-0.011,0.365-0.045,0.646-0.1
		c0.283-0.057,0.578-0.125,0.879-0.209c0.307-0.081,0.601-0.168,0.883-0.259c0.275-0.091,0.484-0.161,0.617-0.205
		c0.893-0.292,1.729-0.662,2.518-1.102c0.787-0.442,1.414-0.984,1.879-1.632C27.271,15.72,27.503,14.956,27.507,14.073"/>
</g>
</svg>
