<?xml version="1.0" encoding="utf-8"?>
<!-- Generator: Adobe Illustrator 16.0.0, SVG Export Plug-In . SVG Version: 6.00 Build 0)  -->
<!DOCTYPE svg PUBLIC "-//W3C//DTD SVG 1.1//EN" "http://www.w3.org/Graphics/SVG/1.1/DTD/svg11.dtd">
<svg version="1.1" id="svg-spinner" xmlns="http://www.w3.org/2000/svg" xmlns:xlink="http://www.w3.org/1999/xlink" x="0px"
	 y="0px" width="50px" height="50px" viewBox="-9 -9 50 50" enable-background="new -9 -9 50 50" xml:space="preserve">
<path fill="#FFFFFF" d="M21.168,12.215c0.003-0.56-0.219-1.224-0.663-1.997c-0.376-0.652-0.818-1.152-1.324-1.497
	c-0.51-0.342-1.054-0.576-1.626-0.697c-0.58-0.119-1.167-0.148-1.773-0.073c-0.609,0.075-1.194,0.2-1.765,0.384
	c-0.442,0.137-0.847,0.28-1.228,0.438c-0.378,0.151-0.677,0.288-0.894,0.404l3.875,6.742c0.102-0.008,0.243-0.031,0.43-0.062
	c0.187-0.038,0.384-0.082,0.587-0.133c0.202-0.052,0.397-0.109,0.584-0.168c0.185-0.057,0.321-0.103,0.412-0.128
	c0.593-0.186,1.152-0.421,1.677-0.705c0.523-0.283,0.94-0.628,1.25-1.042C21.01,13.267,21.164,12.781,21.168,12.215 M22.387,5.542
	c1.101,0.716,2.068,1.797,2.898,3.24c0.749,1.307,1.132,2.492,1.145,3.552c0.015,1.06-0.232,2.007-0.737,2.845
	c-0.505,0.838-1.216,1.552-2.134,2.146c-0.916,0.589-1.945,1.067-3.084,1.426c-0.112,0.034-0.29,0.089-0.531,0.164
	c-0.244,0.08-0.498,0.151-0.765,0.223c-0.267,0.078-0.537,0.142-0.798,0.2c-0.267,0.061-0.455,0.1-0.579,0.116l4.113,7.154
	l-4.514,1.42L5.569,7.449C6.401,7,7.343,6.558,8.402,6.115c1.059-0.436,2.135-0.83,3.231-1.175c1.142-0.361,2.339-0.635,3.589-0.83
	c1.25-0.193,2.481-0.184,3.695,0.031C20.129,4.36,21.288,4.822,22.387,5.542"/>
<path id="spinner" fill="#FFFFFF" d="M16,41C2.249,41-9,29.75-9,16S2.249-9,16-9C29.75-9,41,2.25,41,16
	c0,0.857-0.703,1.562-1.562,1.562c-0.861,0-1.562-0.705-1.562-1.562c0-12.03-9.842-21.875-21.874-21.875
	C3.97-5.875-5.874,3.97-5.874,16c0,12.033,9.843,21.875,21.874,21.875c0.857,0,1.562,0.703,1.562,1.562S16.857,41,16,41z">
<animateTransform  type="rotate" fill="remove" repeatCount="indefinite" attributeType="xml" accumulate="none" additive="replace" calcMode="linear" attributeName="transform" dur="0.8s" restart="always" to="360 16 16" from="0 16 16">
		</animateTransform>
</path>
</svg>
