<?xml version="1.0" encoding="utf-8"?>
<!-- Generator: Adobe Illustrator 16.0.0, SVG Export Plug-In . SVG Version: 6.00 Build 0)  -->
<!DOCTYPE svg PUBLIC "-//W3C//DTD SVG 1.1//EN" "http://www.w3.org/Graphics/SVG/1.1/DTD/svg11.dtd">
<svg version="1.1" id="svg-spinner" xmlns="http://www.w3.org/2000/svg" xmlns:xlink="http://www.w3.org/1999/xlink" x="0px"
	 y="0px" width="32px" height="32px" viewBox="0 0 32 32" enable-background="new 0 0 32 32" xml:space="preserve">
<path fill="#333333" d="M20.67,10.984c0.004-0.742-0.289-1.622-0.877-2.646c-0.5-0.865-1.086-1.527-1.756-1.984
	c-0.676-0.453-1.396-0.764-2.155-0.923c-0.769-0.157-1.547-0.196-2.351-0.097c-0.807,0.099-1.582,0.266-2.339,0.509
	c-0.586,0.181-1.123,0.371-1.627,0.58C9.064,6.624,8.668,6.805,8.381,6.958l5.134,8.934c0.135-0.011,0.322-0.042,0.571-0.082
	c0.247-0.05,0.507-0.108,0.777-0.177c0.268-0.069,0.526-0.145,0.774-0.223c0.244-0.075,0.424-0.136,0.546-0.17
	c0.785-0.246,1.527-0.558,2.22-0.934c0.695-0.375,1.248-0.833,1.656-1.38C20.461,12.378,20.666,11.735,20.67,10.984 M22.285,2.142
	c1.459,0.949,2.742,2.381,3.842,4.294c0.992,1.732,1.498,3.302,1.516,4.707c0.02,1.404-0.309,2.66-0.977,3.77
	c-0.67,1.111-1.611,2.056-2.828,2.844c-1.213,0.781-2.576,1.415-4.088,1.89c-0.148,0.045-0.383,0.119-0.701,0.218
	c-0.324,0.105-0.662,0.2-1.016,0.296c-0.354,0.103-0.711,0.188-1.057,0.265c-0.354,0.08-0.603,0.132-0.767,0.153l5.451,9.481
	l-5.982,1.881L0,4.669C1.102,4.074,2.35,3.487,3.754,2.9c1.403-0.578,2.83-1.1,4.282-1.557c1.513-0.479,3.1-0.841,4.756-1.1
	C14.449-0.013,16.081,0,17.689,0.285C19.293,0.576,20.83,1.188,22.285,2.142"/>
</svg>
