<?xml version="1.0" encoding="utf-8"?>
<!-- Generator: Adobe Illustrator 16.0.0, SVG Export Plug-In . SVG Version: 6.00 Build 0)  -->
<!DOCTYPE svg PUBLIC "-//W3C//DTD SVG 1.1//EN" "http://www.w3.org/Graphics/SVG/1.1/DTD/svg11.dtd">
<svg version="1.1" id="Calque_1" xmlns="http://www.w3.org/2000/svg" xmlns:xlink="http://www.w3.org/1999/xlink" x="0px" y="0px"
	 width="20px" height="20px" viewBox="0 0 20 20" enable-background="new 0 0 20 20" xml:space="preserve">
<path fill="#FFFFFF" d="M15.681,15.243l-3.26-4.343h-0.235l-0.236,0.237l-0.349-0.479c0.773-0.784,1.251-1.858,1.251-3.044
	c0-2.392-1.945-4.338-4.337-4.338c-2.393,0-4.338,1.946-4.338,4.338c0,2.392,1.945,4.339,4.338,4.339
	c0.708,0,1.376-0.175,1.968-0.477l0.434,0.494l-0.261,0.262v0.124c0,0,3.209,4.03,3.408,4.229c0.198,0.199,0.646,0.124,0.646,0.124
	s0.647-0.374,0.971-0.696C16.004,15.689,15.681,15.243,15.681,15.243z M5.708,7.614c0-1.546,1.259-2.806,2.806-2.806
	s2.805,1.259,2.805,2.806c0,1.547-1.258,2.806-2.805,2.806S5.708,9.162,5.708,7.614z"/>
</svg>
