<?xml version="1.0" encoding="utf-8"?>
<!-- Generator: Adobe Illustrator 16.0.0, SVG Export Plug-In . SVG Version: 6.00 Build 0)  -->
<!DOCTYPE svg PUBLIC "-//W3C//DTD SVG 1.1//EN" "http://www.w3.org/Graphics/SVG/1.1/DTD/svg11.dtd">
<svg version="1.1" id="Calque_1" xmlns="http://www.w3.org/2000/svg" xmlns:xlink="http://www.w3.org/1999/xlink" x="0px" y="0px"
	 width="24px" height="24px" viewBox="0 0 24 24" enable-background="new 0 0 24 24" xml:space="preserve">
<g>
	<polygon fill="#FFFFFF" points="11.977,9.371 10.779,12.75 13.161,12.75 12.003,9.371 	"/>
	<path fill="#FFFFFF" d="M22.649,11.729l-1.6-0.224c-0.048-1.095-0.284-2.146-0.7-3.132l1.328-1
		c0.086-0.064,0.142-0.163,0.159-0.271c0.014-0.107-0.015-0.216-0.082-0.303l-1.846-2.442c-0.066-0.089-0.163-0.145-0.271-0.158
		c-0.107-0.018-0.216,0.013-0.302,0.078l-1.225,0.925c-0.81-0.748-1.738-1.335-2.763-1.75l0.218-1.565
		c0.017-0.107-0.013-0.218-0.077-0.304c-0.064-0.087-0.162-0.143-0.269-0.158L12.19,1.003c-0.113-0.014-0.216,0.015-0.305,0.081
		c-0.086,0.064-0.143,0.163-0.157,0.271l-0.202,1.452c-1.13,0.048-2.215,0.297-3.231,0.741L7.371,2.327
		c-0.137-0.18-0.391-0.215-0.572-0.08L4.359,4.092C4.272,4.158,4.213,4.255,4.2,4.362C4.187,4.47,4.212,4.577,4.277,4.664
		l0.877,1.158c-0.76,0.839-1.342,1.785-1.74,2.824L1.883,8.434C1.774,8.42,1.667,8.446,1.58,8.511
		C1.494,8.576,1.438,8.673,1.422,8.78l-0.42,3.03c-0.027,0.224,0.126,0.43,0.35,0.461l1.481,0.209
		c0.065,1.105,0.325,2.171,0.777,3.179l-1.288,0.972c-0.177,0.137-0.216,0.393-0.077,0.571l1.846,2.442
		c0.134,0.179,0.39,0.215,0.569,0.078l1.258-0.948c0.812,0.714,1.75,1.284,2.743,1.669l-0.229,1.67
		c-0.031,0.225,0.127,0.43,0.348,0.461l3.029,0.42c0.02,0.005,0.04,0.006,0.06,0.006c0.198,0,0.375-0.148,0.402-0.354l0.23-1.623
		c1.068-0.062,2.105-0.308,3.08-0.73l1.046,1.38c0.136,0.18,0.391,0.213,0.57,0.081l2.443-1.845
		c0.087-0.064,0.145-0.163,0.158-0.269c0.015-0.108-0.013-0.217-0.077-0.303l-0.999-1.321c0.719-0.796,1.281-1.696,1.681-2.687
		l1.71,0.238c0.218,0.028,0.43-0.123,0.461-0.348l0.423-3.03C23.029,11.967,22.872,11.757,22.649,11.729z M14.388,16.307
		l-0.697-2.049h-3.44l-0.723,2.049H7.49l3.481-9.204h2.075l3.443,9.204H14.388z"/>
</g>
</svg>
