<?xml version="1.0" encoding="utf-8"?>
<!-- Generator: Adobe Illustrator 19.0.0, SVG Export Plug-In . SVG Version: 6.00 Build 0)  -->
<svg version="1.1" id="Calque_1" xmlns="http://www.w3.org/2000/svg" xmlns:xlink="http://www.w3.org/1999/xlink" x="0px" y="0px"
	 viewBox="0 0 22 22" style="enable-background:new 0 0 22 22;" xml:space="preserve">
<style type="text/css">
	.st0{fill:#FFFFFF;}
</style>
<g>
	<g>
		<polygon class="st0" points="11,8.4 9.8,11.8 12.2,11.8 11,8.4 		"/>
		<path class="st0" d="M21.7,10.7l-1.6-0.2c0-1.1-0.3-2.1-0.7-3.1l1.3-1c0.1-0.1,0.1-0.2,0.2-0.3c0-0.1,0-0.2-0.1-0.3l-1.8-2.4
			c-0.1-0.1-0.2-0.1-0.3-0.2c-0.1,0-0.2,0-0.3,0.1l-1.2,0.9c-0.8-0.7-1.7-1.3-2.8-1.8l0.2-1.6c0-0.1,0-0.2-0.1-0.3
			c-0.1-0.1-0.2-0.1-0.3-0.2l-3-0.4c-0.1,0-0.2,0-0.3,0.1c-0.1,0.1-0.1,0.2-0.2,0.3l-0.2,1.5c-1.1,0-2.2,0.3-3.2,0.7L6.4,1.3
			C6.2,1.1,6,1.1,5.8,1.2L3.4,3.1C3.3,3.2,3.2,3.3,3.2,3.4c0,0.1,0,0.2,0.1,0.3l0.9,1.2C3.4,5.7,2.8,6.6,2.4,7.6L0.9,7.4
			c-0.1,0-0.2,0-0.3,0.1C0.5,7.6,0.4,7.7,0.4,7.8l-0.4,3c0,0.2,0.1,0.4,0.3,0.5l1.5,0.2c0.1,1.1,0.3,2.2,0.8,3.2l-1.3,1
			c-0.2,0.1-0.2,0.4-0.1,0.6l1.8,2.4c0.1,0.2,0.4,0.2,0.6,0.1l1.3-0.9c0.8,0.7,1.8,1.3,2.7,1.7l-0.2,1.7c0,0.2,0.1,0.4,0.3,0.5
			l3,0.4c0,0,0,0,0.1,0c0.2,0,0.4-0.1,0.4-0.4l0.2-1.6c1.1-0.1,2.1-0.3,3.1-0.7l1,1.4c0.1,0.2,0.4,0.2,0.6,0.1l2.4-1.8
			c0.1-0.1,0.1-0.2,0.2-0.3c0-0.1,0-0.2-0.1-0.3l-1-1.3c0.7-0.8,1.3-1.7,1.7-2.7l1.7,0.2c0.2,0,0.4-0.1,0.5-0.3l0.4-3
			C22,11,21.9,10.8,21.7,10.7z M13.4,15.3l-0.7-2H9.3l-0.7,2h-2L10,6.1H12l3.4,9.2H13.4z"/>
	</g>
</g>
</svg>
