<?xml version="1.0" encoding="utf-8"?>
<!-- Generator: Adobe Illustrator 16.0.0, SVG Export Plug-In . SVG Version: 6.00 Build 0)  -->
<!DOCTYPE svg PUBLIC "-//W3C//DTD SVG 1.1//EN" "http://www.w3.org/Graphics/SVG/1.1/DTD/svg11.dtd">
<svg version="1.1" id="Calque_1" xmlns="http://www.w3.org/2000/svg" xmlns:xlink="http://www.w3.org/1999/xlink" x="0px" y="0px"
	 width="80.248px" height="70px" viewBox="2.264 0 80.248 70" enable-background="new 2.264 0 80.248 70" xml:space="preserve">
<g>
	<path fill="#3B3B3B" d="M21.4,61.482c-6.925,0-11.147-1.268-16.384-3.884L4.171,43.747h1.351L9.661,52.7
		c4.138,3.377,7.854,4.813,11.739,4.813c6.672,0,10.641-3.716,10.641-9.712c0-7.348-5.236-9.122-13.681-13.344
		c-7.939-3.97-12.415-7.179-12.415-14.948c0-7.602,8.276-15.456,16.806-15.456c5.236,0,9.375,1.267,13.935,3.547l0.845,13.513H36.18
		l-3.885-8.868c-3.885-2.956-6.418-4.138-10.218-4.138c-4.983,0-8.53,3.8-8.53,8.784c0,5.743,3.378,8.192,10.81,11.823
		c10.219,4.983,14.948,8.108,14.948,16.722C39.304,55.993,29.17,61.482,21.4,61.482z"/>
	<path fill="#3B3B3B" d="M48.174,43.325c0-12.583,8.445-21.451,19.424-21.451c4.562,0,9.29,1.605,11.487,4.054
		c0.928,1.098,1.351,1.858,1.351,2.534c0,0.845-0.254,1.351-1.099,2.027l-3.209,2.703h-0.591l-2.871-3.885
		c-1.688-2.28-4.14-3.801-7.854-3.801c-6.166,0-9.966,5.152-9.966,13.935c0,8.108,3.546,15.709,14.61,15.709
		c3.125,0,6.672-1.099,10.895-3.38h0.254v0.846c-2.619,4.898-7.938,8.867-14.779,8.867C54.931,61.482,48.174,54.304,48.174,43.325z"
		/>
</g>
</svg>
