<?xml version="1.0" encoding="utf-8"?>
<!-- Generator: Adobe Illustrator 16.0.0, SVG Export Plug-In . SVG Version: 6.00 Build 0)  -->
<!DOCTYPE svg PUBLIC "-//W3C//DTD SVG 1.1//EN" "http://www.w3.org/Graphics/SVG/1.1/DTD/svg11.dtd">
<svg version="1.1" id="Calque_1" xmlns="http://www.w3.org/2000/svg" xmlns:xlink="http://www.w3.org/1999/xlink" x="0px" y="0px"
	 width="162.058px" height="100.001px" viewBox="0 0 162.058 100.001" enable-background="new 0 0 162.058 100.001"
	 xml:space="preserve">
<path fill="#49E4A9" d="M162.058,91.001c0,4.971-4.029,9-9,9H9c-4.971,0-9-4.029-9-9V9c0-4.971,4.029-9,9-9h144.058
	c4.971,0,9,4.029,9,9V91.001z"/>
<path fill="#64E8B2" d="M162.058,91.001V9c0-5.157-4.137-9-9-9C85.467,0,38.209,48.047,38.209,97.638
	c0,0.79,0.016,1.578,0.042,2.363h114.807C158.028,100.001,162.058,95.972,162.058,91.001z"/>
<rect x="15.911" y="66.925" fill="#45D89C" width="130.56" height="9.242"/>
<rect x="15.911" y="80.789" fill="#45D89C" width="130.56" height="9.243"/>
<g>
	<path fill="#C2EFDC" d="M125.705,20.071h7.507c-0.067-1.482-0.445-3.011-1.593-3.993c-1.365-1.17-3.758-1.604-5.895-1.604
		c-2.226,0-4.687,0.477-6.06,1.731c-1.184,1.081-1.439,2.82-1.439,4.383c0,1.636,0.501,3.54,1.785,4.638
		c1.365,1.166,3.579,1.476,5.714,1.476c2.072,0,4.318-0.349,5.676-1.457c1.354-1.106,1.822-2.97,1.822-4.656
		c0-0.003,0-0.006,0-0.008h-7.518V20.071z"/>
	<path fill="#C2EFDC" d="M133.715,20.581v5.849h10.441v-0.008c1.528-0.076,2.744-1.335,2.744-2.882c0-1.545-1.216-2.885-2.744-2.962
		v0.003H133.715z"/>
	<path fill="#C2EFDC" d="M146.71,17.39c0-1.488-1.182-2.671-2.672-2.671c-0.103,0-0.229-0.019-0.33-0.008h-9.993v5.36h10.528
		C145.623,19.952,146.71,18.801,146.71,17.39z"/>
</g>
<g>
	<path fill="#F6EB90" d="M45.196,42.51c0,2.97-2.408,5.378-5.378,5.378H20.696c-2.97,0-5.378-2.408-5.378-5.378V25.826
		c0-2.969,2.408-5.378,5.378-5.378h19.122c2.97,0,5.378,2.409,5.378,5.378V42.51z"/>
	<g>
		
			<line fill="none" stroke="#F2E283" stroke-width="1.7927" stroke-miterlimit="10" x1="20.696" y1="20.448" x2="20.696" y2="47.888"/>
		
			<line fill="none" stroke="#F2E283" stroke-width="1.7927" stroke-miterlimit="10" x1="30.257" y1="20.448" x2="30.257" y2="47.888"/>
		
			<line fill="none" stroke="#F2E283" stroke-width="1.7927" stroke-miterlimit="10" x1="39.503" y1="20.448" x2="39.503" y2="47.888"/>
		
			<line fill="none" stroke="#F2E283" stroke-width="1.7927" stroke-miterlimit="10" x1="39.503" y1="34.325" x2="20.696" y2="34.325"/>
	</g>
	<circle fill="#F2E283" cx="30.1" cy="34.325" r="2.454"/>
</g>
</svg>
