<?xml version="1.0" encoding="utf-8"?>
<!-- Generator: Adobe Illustrator 16.0.0, SVG Export Plug-In . SVG Version: 6.00 Build 0)  -->
<!DOCTYPE svg PUBLIC "-//W3C//DTD SVG 1.1//EN" "http://www.w3.org/Graphics/SVG/1.1/DTD/svg11.dtd">
<svg version="1.1" id="Calque_1" xmlns="http://www.w3.org/2000/svg" xmlns:xlink="http://www.w3.org/1999/xlink" x="0px" y="0px"
	 width="572.924px" height="80px" viewBox="0 10 572.924 80" enable-background="new 0 10 572.924 80" xml:space="preserve">
<g>
	<path fill="#3B3B3B" d="M3.75,29.623v4c0-2.25-0.75-3-2.75-3H0v-1H3.75z M0,61.626h1c2,0,2.75-0.75,2.75-3v4H0V61.626z
		 M8.751,29.623v33.003H3.75V29.623H8.751z M23.002,37.623h-0.75l-0.301-1c-1.25-4.25-3.45-5.75-8.45-5.75h-4.75v-1.25h14.251
		V37.623z M13.001,45.624h-4.25v-1.25h4.25c4,0,5.5-0.75,6.5-3.75h0.75v9.25h-0.75C18.251,46.624,16.751,45.624,13.001,45.624z
		 M8.751,62.626v-3.5c0,1.5,0.5,2.25,2.5,2.25h3.4c4.5,0,6.75-1,8.75-5l0.851-1.7l0.699,0.25l-1.449,7.7H8.751z"/>
	<path fill="#3B3B3B" d="M28.699,61.876h0.75c2.25,0,3-0.75,3-4v4.75h-3.75V61.876z M32.449,31.123c0-0.75-0.25-1.049-1-1.25l-2-0.5
		v-0.5l7.251-2.25h0.25v36.003h-4.501V31.123z M36.95,62.626v-4.75c0,3.25,0.75,4,3,4h0.75v0.75H36.95z"/>
	<path fill="#3B3B3B" d="M64.65,37.623l-13.8,24.253l-0.25-0.25h3.85c4.5,0,7.4-1.5,8.9-4.5l0.75-1.5h0.75l-1.5,7H45.2L59,38.373
		l0.699,0.25h-3.5c-4.75,0-7.351,1.751-9.5,5.401l-0.5,0.85h-0.75l2.25-7.251H64.65z"/>
	<path fill="#3B3B3B" d="M89.6,58.876l0.35,0.55c-2.7,2.352-6.2,3.45-9.351,3.45c-6.5,0-11.001-4.75-11.001-12.252
		c0-7,4.501-13.251,11.751-13.251c4.751,0,8.751,3.251,8.751,9.501H74.099v-0.849l9.75-0.651c1.9-0.149,2-0.75,2-2.25
		c0-3-2-4.501-4.75-4.501c-4.5,0-6.75,4.001-6.75,10.251c0,7.002,3.75,11.252,10,11.252C86.199,60.126,87.749,59.826,89.6,58.876z"
		/>
	<path fill="#3B3B3B" d="M114.849,43.725l-8,19.401h-0.75l-8.251-19.502c-1.8-4.25-2.5-5.251-4.5-5.251h-0.5v-0.75h12v0.75h-0.5
		c-2.5,0-3.149,1.001-1.5,5.251l5.701,14.552h-0.7l5.75-14.751c1.4-3.551,0.75-5.052-1.5-5.052h-0.75v-0.75h8.751v0.75h-0.5
		C117.599,38.373,116.648,39.374,114.849,43.725z"/>
	<path fill="#3B3B3B" d="M122.847,61.876h0.75c2.25,0,3-0.75,3-4v4.75h-3.75V61.876z M125.597,40.624l-2-0.5v-0.5l7.251-2.251h0.25
		v25.253h-4.501V41.874C126.597,41.124,126.347,40.824,125.597,40.624z M128.598,28.123c1.75,0,3,1.25,3,3s-1.25,3-3,3
		c-1.751,0-3.001-1.25-3.001-3S126.847,28.123,128.598,28.123z M131.098,62.626v-4.75c0,3.25,0.75,4,3,4h0.75v0.75H131.098z"/>
	<path fill="#3B3B3B" d="M139.346,61.876h0.75c2.251,0,3.001-0.75,3.001-4v4.75h-3.751V61.876z M147.597,62.626h-4.5V41.874
		c0-0.75-0.25-1.05-1-1.25l-2.001-0.5v-0.5l7.001-2.251h0.25l0.25,4.001V62.626z M147.097,42.374v-0.6
		c3.5-3.151,5.65-4.401,7.801-4.401c1.7,0,3.149,1.201,3.149,2.901c0,1.2-1,2.15-2.199,2.15c-1.9,0-1.9-1.7-4.551-1.7
		C149.847,40.725,148.597,41.374,147.097,42.374z M147.597,62.626v-4.75c0,3.25,0.75,4,3,4h1.25v0.75H147.597z"/>
	<path fill="#3B3B3B" d="M189.796,28.873h1.25l11.501,27.253c2,4.75,2.75,5.5,4.5,5.5h0.75v1h-13.001v-1h2
		c1.751,0,2.251-1,0.801-4.5l-9.301-22.753h1l-7.7,22.452c-1.2,3.551-0.051,4.801,2.2,4.801h1.5v1h-10.501v-1h0.5
		c2.5,0,3.4-1,4.75-4.899L189.796,28.873z M198.047,50.624h-15.252v-1.25h15.252V50.624z"/>
	<path fill="#3B3B3B" d="M217.795,39.374c2.75-1.501,4.75-2.001,7.501-2.001c5.75,0,10.5,4.001,10.5,11.751
		c0,7.502-5.5,13.752-12,13.752c-3.001,0-4.751-1.75-6.751-1.75c-1,0-2,0.25-3.25,1.5h-0.5V31.123c0-0.75-0.25-1.049-1-1.25l-2-0.5
		v-0.5l7.25-2.25h0.25v28.003c0,4.5,2.25,7,6.251,7c4.25,0,7-4.5,7-10.502c0-7.75-3-11.75-9.251-11.75c-1.5,0-2.75,0.25-4,0.7
		V39.374z"/>
	<path fill="#3B3B3B" d="M252.045,62.876c-6.5,0-11.001-4.75-11.001-12.252c0-7,5.251-13.251,12.751-13.251
		c4.75,0,7.501,2.751,7.501,5.251c0,1-0.751,2-2.001,2s-2.05-0.75-2.25-2.25c-0.35-3-1.75-3.751-3.75-3.751
		c-4.75,0-7.5,4.001-7.5,10.251c0,7.002,3.75,11.252,10,11.252c1.851,0,3.4-0.3,5.251-1.25l0.35,0.55
		C258.695,61.775,255.195,62.876,252.045,62.876z"/>
	<path fill="#3B3B3B" d="M286.145,37.623v3.501c0-1.5,0-2.501-2.001-2.501h-1.75v-1H286.145z M282.394,61.626h1.75
		c2.001,0,2.001-1,2.001-2.5v3.5h-3.751V61.626z M290.646,37.623v25.003h-4.5V37.623H290.646z M294.396,38.623h-1.75
		c-2,0-2,1.001-2,2.501v-3.501h3.75V38.623z M290.646,62.626v-3.5c0,1.5,0,2.5,2,2.5h1.75v1H290.646z"/>
	<path fill="#3B3B3B" d="M310.895,37.373c3.75,0,8,2.501,8,7.251c0,4.602-3.899,7.5-9.25,10.752l-4.501,2.75h11.251
		c1.75,0,2.25-1.25,3-4.002l0.75,0.25l-0.75,8.252h-21.001v-0.75l8.25-5.75c6.2-4.351,7.251-7.252,7.251-10.002
		c0-3-1.75-5.5-5.25-5.5c-2.751,0-5.751,1.351-7.45,4.5l-0.551-0.35C302.394,40.374,306.144,37.373,310.895,37.373z"/>
	<path fill="#3B3B3B" d="M322.643,72.627c10.001-1.25,14.751-6.501,14.751-12.001c0-4-2.5-6.351-6.149-6.351
		c-1.602,0-3.352,0.3-4.602,0.601v-0.752c6.251-2,9.251-5.25,9.251-8.75c0-3-1.949-4.75-5.251-4.75c-3.25,0-6.1,1.201-8.25,3.701
		l-0.5-0.451c2.5-3.75,6.5-6.501,11.001-6.501c4.75,0,7.5,3.001,7.5,6.501c0,3.75-2.5,6-8.75,8.75l0.601-0.75
		c7.001,0.201,9.899,4.201,9.899,8.502c0,7.5-9,12.501-19.4,13.001L322.643,72.627z"/>
</g>
</svg>
