<?xml version="1.0" encoding="utf-8"?>
<!-- Generator: Adobe Illustrator 16.0.0, SVG Export Plug-In . SVG Version: 6.00 Build 0)  -->
<!DOCTYPE svg PUBLIC "-//W3C//DTD SVG 1.1//EN" "http://www.w3.org/Graphics/SVG/1.1/DTD/svg11.dtd">
<svg version="1.1" id="Calque_1" xmlns="http://www.w3.org/2000/svg" xmlns:xlink="http://www.w3.org/1999/xlink" x="0px" y="0px"
	 width="572.924px" height="80px" viewBox="0 10 572.924 80" enable-background="new 0 10 572.924 80" xml:space="preserve">
<g>
	<path fill="#3B3B3B" d="M10.201,63.5c-4.1,0-6.6-0.75-9.701-2.299L0,53h0.8l2.45,5.301c2.45,2,4.65,2.85,6.95,2.85
		c3.95,0,6.3-2.198,6.3-5.75c0-4.352-3.1-5.4-8.101-7.9c-4.7-2.351-7.35-4.25-7.35-8.851c0-4.5,4.9-9.15,9.951-9.15
		c3.1,0,5.55,0.75,8.25,2.1l0.5,8.001h-0.8l-2.3-5.25c-2.3-1.751-3.8-2.45-6.051-2.45c-2.95,0-5.05,2.25-5.05,5.2
		c0,3.4,2,4.85,6.4,7c6.05,2.95,8.851,4.801,8.851,9.901C20.802,60.25,14.801,63.5,10.201,63.5z"/>
	<path fill="#3B3B3B" d="M36.65,74.502h-10.7v-0.801l3.15-1.6V45.7l-3-2.601v-0.35L32.3,40h0.3l0.4,3.05h0.35
		C35.9,40.9,38.1,40,40.801,40c5.05,0,8.7,4.05,8.7,10.65c0,8.199-5.1,12.85-11.351,12.85c-1.9,0-3.6-0.199-5.05-0.5v9.102
		l3.55,1.601V74.502z M33.1,44.95V59c1.95,1.6,3.95,2.1,6.5,2.1c3.2,0,5.9-2.449,5.9-8.799c0-6.151-3.351-8.851-7.451-8.851
		C36.4,43.45,34.7,43.95,33.1,44.95z"/>
	<path fill="#3B3B3B" d="M64.85,63.5c-6.45,0-10.451-4.25-10.451-10.75c0-7.451,5-12.75,10.651-12.75c5.25,0,8.5,3.8,8.5,10.65
		L73.3,50.9H58.349c0.15,4.65,2.3,8.85,8.651,8.85c1.85,0,3.95-0.65,6.45-2h0.15v0.5C72.05,61.15,68.9,63.5,64.85,63.5z
		 M58.449,48.6H69.75c-0.75-4.501-2.6-6.4-5.5-6.4C61.049,42.2,58.949,44.549,58.449,48.6z"/>
	<path fill="#3B3B3B" d="M78.599,52.75c0-7.451,5-12.701,11.501-12.701c2.7,0,5.5,0.95,6.8,2.4c0.551,0.649,0.801,1.1,0.801,1.5
		c0,0.5-0.15,0.8-0.65,1.199l-1.9,1.601H94.8l-1.7-2.3c-1-1.351-2.45-2.25-4.65-2.25c-3.65,0-5.9,3.05-5.9,8.25
		c0,4.8,2.1,9.3,8.65,9.3c1.851,0,3.95-0.649,6.45-2h0.15v0.5c-1.55,2.899-4.7,5.25-8.75,5.25
		C82.599,63.5,78.599,59.25,78.599,52.75z"/>
	<path fill="#3B3B3B" d="M112.899,60.201c1.25,0,2.399-0.15,3.199-0.352h0.15v0.5c-0.7,1.5-2.65,3.149-5.801,3.149
		c-2.949,0-5.4-1.799-5.4-4.949V42.849h-4.1v-0.3l4.25-2.05l3.551-5.501h0.3V40.5h6.601v2.35h-6.601V57.7
		C109.049,59.4,110.799,60.201,112.899,60.201z"/>
	<path fill="#3B3B3B" d="M131.048,63h-10.7v-0.799l3.149-1.602V45.7l-3-2.601v-0.35l6.201-2.75h0.3l0.45,4.25h0.199
		c2.301-3.75,3.951-4.25,5.65-4.25c0.551,0,1.351,0.25,1.801,0.449c1.05,0.4,1.5,0.801,1.5,1.4c0,0.25-0.051,0.55-0.2,0.9l-1,2.45
		h-0.351l-1.899-0.75c-0.75-0.301-1.45-0.351-2.101-0.351c-1.4,0-2.55,0.7-3.55,2.15V60.6l3.55,1.603L131.048,63L131.048,63z"/>
	<path fill="#3B3B3B" d="M155.849,63.5c-2.051,0-3.351-1.199-3.9-3h-0.3c-1.751,1.701-4.45,3-7.251,3c-3.15,0-5.45-1.949-5.45-5.199
		s2.2-5.701,7.95-7.051l4.751-1.1V46.5c0-2.3-2.2-4.15-4.501-4.15c-2.55,0-3.4,1.45-3.4,3.75v1.4l-0.25,0.25h-2.6
		c-1,0-1.3-0.2-1.3-1.4c0-1.45,0.85-3.1,2.649-4.25c1.851-1.2,3.9-2.1,6.201-2.1c3.55,0,7.2,1.25,7.2,5.45v14.2
		c0.45,0.5,1.3,0.85,2.8,0.85h1.9l0.15,0.1v0.15C159.698,62.201,158.099,63.5,155.849,63.5z M146.598,60.4
		c1.601,0,3.05-0.301,5.051-1.15v-7.4c-7.95,1.5-8.801,3.201-8.801,5.451C142.848,59.35,144.198,60.4,146.598,60.4z"/>
	<path fill="#3B3B3B" d="M173.548,62.201V63h-10.301v-0.799l3.15-1.602v-29.4l-3-2.601v-0.35l6.2-2.75h0.8V60.6L173.548,62.201z"/>
	<path fill="#3B3B3B" d="M200.698,63h-10.801v-0.799l3.199-1.65l12.801-30.802h2.25L220.749,60.4l3.35,1.801V63h-12.4v-0.799
		l4.4-1.701l-3.75-9.25h-12.151l-3.7,9.25l4.201,1.701L200.698,63L200.698,63z M211.248,48.5l-4.95-12.301l-4.95,12.301H211.248z"/>
	<path fill="#3B3B3B" d="M232.447,62.201l-1.25,1.299h-0.3V31.199l-3-2.601v-0.35l6.7-2.75h0.3v17.601h0.2
		c2.55-2.15,4.8-3.1,7.5-3.1c5.051,0,8.7,4.05,8.7,10.649c0,8.201-5.1,12.851-11.7,12.851
		C236.848,63.5,234.497,62.951,232.447,62.201z M234.897,44.95v14.101c1.9,1.5,3.65,2.049,6,2.049c3.45,0,6.4-2.6,6.4-9.301
		c0-5.799-3.35-8.349-7.45-8.349C238.198,43.45,236.497,43.95,234.897,44.95z"/>
	<path fill="#3B3B3B" d="M256.247,52.75c0-7.451,5-12.701,11.5-12.701c2.7,0,5.501,0.95,6.801,2.4c0.55,0.649,0.8,1.1,0.8,1.5
		c0,0.5-0.149,0.8-0.649,1.199l-1.9,1.601h-0.35l-1.701-2.3c-1-1.351-2.449-2.25-4.649-2.25c-3.65,0-5.9,3.05-5.9,8.25
		c0,4.8,2.1,9.3,8.65,9.3c1.85,0,3.95-0.649,6.45-2h0.15v0.5c-1.551,2.899-4.701,5.25-8.751,5.25
		C260.247,63.5,256.247,59.25,256.247,52.75z"/>
	<path fill="#3B3B3B" d="M297.847,62.201l4.5-2V34.849l-8.75,4.4v-1.751l12-7.5h1v30.203l4,2V63h-12.75V62.201z"/>
	<path fill="#3B3B3B" d="M337.798,63h-20.002v-1.25c14.501-16.651,14.901-18.25,14.901-23.301c0-4.1-2.45-6.601-5.501-6.601
		c-3.449,0-5.4,1.851-5.4,5.501v2.25l-0.25,0.35h-2.3c-1.35,0-2-0.25-2-2.1c0-1.75,1.05-3.65,3.15-5.15
		c2.601-1.851,4.449-3.2,8.351-3.2c5.05,0,8.801,4,8.801,8.851c0,5.5-2.75,7.45-14.301,20.55h11.75l2.5-4.85h0.801L337.798,63z"/>
	<path fill="#3B3B3B" d="M352.396,63.5c-3.2,0-5.65-0.699-7.75-2.299c-1.852-1.4-2.801-2.801-2.801-4.201s0.601-1.6,1.801-1.6h2.3
		l0.35,0.35v1.65c0,2.149,1.9,3.85,6.201,3.85c4.2,0,6.649-2.799,6.649-6.85c0-4.5-2.051-7.352-8.301-7.352h-3.2v-2.2h1.602
		c4.75,0,8.2-2.649,8.2-7.101c0-4.2-1.9-6-5.251-6c-2.899,0-4.9,1.8-4.9,4.45v1.8l-0.398,0.4h-2.102c-1.3,0-1.949-0.2-1.949-1.75
		c0-1.7,1.149-3.601,3.601-5.051c2.25-1.399,4.051-2.1,6.851-2.1c5.15,0,9.001,3.45,9.001,7.9c0,3.4-2.801,6.551-7.251,7.7
		c6.001,0.95,9.001,4.4,9.001,9.151C364.048,59.15,358.747,63.5,352.396,63.5z"/>
</g>
</svg>
