<?xml version="1.0" encoding="utf-8"?>
<!-- Generator: Adobe Illustrator 16.0.0, SVG Export Plug-In . SVG Version: 6.00 Build 0)  -->
<!DOCTYPE svg PUBLIC "-//W3C//DTD SVG 1.1//EN" "http://www.w3.org/Graphics/SVG/1.1/DTD/svg11.dtd">
<svg version="1.1" id="Calque_1" xmlns="http://www.w3.org/2000/svg" xmlns:xlink="http://www.w3.org/1999/xlink" x="0px" y="0px"
	 width="572.924px" height="80px" viewBox="0 10 572.924 80" enable-background="new 0 10 572.924 80" xml:space="preserve">
<g>
	<path fill="#3B3B3B" d="M5.25,25.948v5c0-3-0.5-3.75-4.25-3.75H0v-1.25H5.25z M0,62.2h1c3.75,0,4.25-0.75,4.25-3.75v5H0V62.2z
		 M5.25,25.948h5.001V63.45H5.25V25.948z M26.502,34.248l-1,0.101c-1.101-5.15-3.25-7.15-7.751-7.15h-7.5v-1.25h15.65L26.502,34.248
		z M14.251,45.45h-4V44.2h4c4.5,0,5.75-1.5,6.751-6.752h1.1V52.45h-1.1C20.001,47.2,18.751,45.45,14.251,45.45z M10.251,63.45v-5
		c0,3,0.5,3.75,4.25,3.75h1.5v1.25H10.251z"/>
	<path fill="#3B3B3B" d="M51.751,56.352l0.8,0.399c-1.75,4.351-5.55,7.199-10.8,7.199c-7.251,0-12.001-5.25-12.001-12.5
		c0-8,5.25-13.502,12.751-13.502c5.75,0,9.75,3.252,10.5,8.502L33.25,46.2v-1l15.251-0.25l-0.25,0.25c0-3.25-2.5-6.252-6-6.252
		c-4.751,0-8.001,4.002-8.001,10.752c0,6.6,3.301,11.25,9.201,11.25C46.951,60.95,50.001,59.45,51.751,56.352z"/>
	<path fill="#3B3B3B" d="M57,28.948h-1v-0.75l8-2.25h0.75V63.45H60.5V32.448C60.5,29.698,59.75,28.948,57,28.948z M56.5,62.45h3.25
		c0.5,0,0.75-0.25,0.75-0.75v1.75h-4V62.45z M64.75,63.45V61.7c0,0.5,0.25,0.75,0.75,0.75h3.25v1H64.75z"/>
	<path fill="#3B3B3B" d="M72.749,28.948h-1v-0.75l8-2.25h0.75V63.45h-4.25V32.448C76.249,29.698,75.499,28.948,72.749,28.948z
		 M72.249,62.45h3.25c0.5,0,0.75-0.25,0.75-0.75v1.75h-4V62.45z M80.499,63.45V61.7c0,0.5,0.25,0.75,0.751,0.75h3.25v1H80.499z"/>
	<path fill="#3B3B3B" d="M98.998,62.2h0.65c3.25,0,4.85-1.601,6.45-6.15l9.751-28.102h1.399l-9.4,28.102
		c-1.5,4.552-0.75,6.15,4.15,6.15h1v1.25h-14V62.2z M109.999,46.45H126v1.5h-16.001V46.45z M121,62.2h0.5
		c4.35,0,5.15-0.851,3.8-4.949l-9.801-29.803c1.5-0.25,2.75-1,3.5-2.5h0.751L130,55.55c1.95,5.802,2.351,6.65,5.75,6.65h0.75v1.25
		H121V62.2z"/>
	<path fill="#3B3B3B" d="M138.498,28.948h-1v-0.75l8-2.25h0.75V59.7h-2.25l-1.75,3.75h-0.25V32.448
		C141.998,29.698,141.248,28.948,138.498,28.948z M145.748,42.2c1.75-2.5,4.75-4.002,7.751-4.002c6.351,0,11,5.051,11,12.45
		c0,8.502-5.4,13.302-12.25,13.302c-3.301,0-6.951-1.55-9.101-4.101l2.85-2.649c1.15,3.801,3.45,5.75,6.501,5.75
		c5.2,0,7.601-5.449,7.601-11.101c0-7.052-3.801-11.852-8.401-11.852c-2.75,0-5.2,1.701-5.95,4.451L145.748,42.2L145.748,42.2z"/>
	<path fill="#3B3B3B" d="M190.449,43.2c0,1.5-0.75,2-2,2c-1.251,0-1.751-0.75-2.251-2c-0.75-1.9-2-4.252-5-4.252
		c-4.601,0-7.751,4.002-7.751,10.752c0,6.6,3.15,11.25,8.701,11.25c3.3,0,6.051-1.55,7.801-4.601l0.8,0.4
		c-1.75,4.299-5.301,7.199-10.301,7.199c-6.95,0-11.501-5.25-11.501-12.5c0-8,5.15-13.502,12.501-13.502
		C186.948,37.948,190.449,41.2,190.449,43.2z"/>
	<path fill="#3B3B3B" d="M211.747,38.448v3.002c0-1.75-0.75-2.002-2.75-2.002h-2.25v-1H211.747z M206.747,62.45h2.25
		c2,0,2.75-0.25,2.75-2v3h-5V62.45z M216.047,38.448V63.45h-4.3V38.448H216.047z M221.048,39.448h-2.25
		c-2,0-2.751,0.252-2.751,2.002v-3.002h5.001V39.448z M216.047,63.45v-3c0,1.75,0.751,2,2.751,2h2.25v1H216.047z"/>
	<path fill="#3B3B3B" d="M241.498,59.7c2.75,0,4.45-0.699,6.45-3.199l0.7,0.397l-4.101,6.552h-20.001V62.7
		c13.5-8,16.251-12,16.251-16c0-3.25-2.5-5.5-6.251-5.5c-3.75,0-7.25,2.449-8.4,7.699l-0.9-0.199
		c1.251-7.5,6.051-10.752,11.551-10.752c5.201,0,8.251,3.502,8.251,7.752c0,5-3.95,8.1-14.101,14.2l-0.101-0.2H241.498z"/>
	<path fill="#3B3B3B" d="M260.397,52.7c6,1.25,9,5.25,9,10.5c0,5.75-6,10.502-18.601,11.852l-0.15-0.85
		c10.501-1.5,14.251-4.802,14.251-9.752c0-4.25-2.5-7.25-7.501-8.25l-2-0.4v-0.85c7.751-4,8.751-7,8.751-9.5s-1.75-4.5-5.001-4.5
		c-3,0-5.5,1.5-6.75,5.25l-0.9-0.25c1.15-5.25,4.65-8.002,9.401-8.002c5,0,7.75,3.002,7.75,6.002c0,3.5-3.25,6.5-8.25,9.25V52.7z"/>
</g>
</svg>
