<?xml version="1.0" encoding="utf-8"?>
<!-- Generator: Adobe Illustrator 16.0.0, SVG Export Plug-In . SVG Version: 6.00 Build 0)  -->
<!DOCTYPE svg PUBLIC "-//W3C//DTD SVG 1.1//EN" "http://www.w3.org/Graphics/SVG/1.1/DTD/svg11.dtd">
<svg version="1.1" id="Calque_1" xmlns="http://www.w3.org/2000/svg" xmlns:xlink="http://www.w3.org/1999/xlink" x="0px" y="0px"
	 width="572.924px" height="80px" viewBox="0 0 572.924 80" enable-background="new 0 0 572.924 80" xml:space="preserve">
<g>
	<path fill="#3B3B3B" d="M12.146,53.481H7.099L5.82,68.245H1.526l5.123-52.729h5.95l5.123,52.729h-4.294L12.146,53.481z
		 M11.845,49.714L9.661,23.577L7.401,49.714H11.845z"/>
	<path fill="#3B3B3B" d="M25.555,68.245h-4.069V23.048h4.069v3.163c1.053-2.635,2.861-3.539,4.745-3.539
		c3.164,0,5.8,1.958,5.8,7.758v37.815h-4.068v-36.91c0-3.919-1.431-5.124-3.239-5.124c-1.808,0-3.238,1.282-3.238,5.124V68.245z"/>
	<path fill="#3B3B3B" d="M49.281,68.622c-3.917,0-6.93-2.636-6.93-7.757v-34.05h-3.39v-3.767h3.39V19.96
		c1.808-0.602,2.788-2.26,2.788-5.198h1.28v8.286h7.383v3.767h-7.383v34.728c0,2.86,1.658,3.54,2.862,3.54
		c1.206,0,2.863-0.68,2.863-3.54v-9.342h4.068v8.664C56.212,66.438,53.198,68.622,49.281,68.622z"/>
	<path fill="#3B3B3B" d="M63.819,16.27v4.293h-4.294V16.27H63.819z M63.668,23.048v45.197H59.6V23.048H63.668z"/>
	<path fill="#3B3B3B" d="M83.705,75.024h-4.068V64.932c-0.979,2.786-2.787,3.69-4.745,3.69c-3.239,0-5.801-1.957-5.801-7.757V30.43
		c0-5.8,2.562-7.758,5.801-7.758c1.958,0,3.767,0.904,4.745,3.691v-3.315h4.068V75.024z M76.398,65.083
		c1.809,0,3.239-1.281,3.239-5.123V31.335c0-3.842-1.431-5.124-3.239-5.124c-1.808,0-3.238,1.205-3.238,5.124V59.96
		C73.159,63.877,74.59,65.083,76.398,65.083z"/>
	<path fill="#3B3B3B" d="M99.522,64.932c-0.979,2.786-2.787,3.69-4.745,3.69c-3.239,0-5.801-1.957-5.801-7.757V23.048h4.069V59.96
		c0,3.917,1.431,5.123,3.238,5.123c1.808,0,3.239-1.281,3.239-5.123V23.048h4.069v45.197h-4.069V64.932z"/>
	<path fill="#3B3B3B" d="M123.476,30.43v14.238H112.93v16.423c0,2.862,1.431,3.992,3.24,3.992c1.808,0,3.239-1.13,3.239-3.992
		v-9.644h4.067v9.418c0,5.046-3.314,7.757-7.306,7.757c-4.068,0-7.307-2.711-7.307-7.757V30.43c0-5.046,3.238-7.758,7.307-7.758
		C120.162,22.672,123.476,25.384,123.476,30.43z M112.93,41.127h6.479V30.28c0-2.938-1.432-4.068-3.239-4.068
		c-1.809,0-3.24,1.13-3.24,4.068V41.127z"/>
	<path fill="#3B3B3B" d="M145.546,42.786h7.382v19.132c0,3.39,0.452,5.272,1.281,6.554l-0.227,0.227
		c-1.355-0.68-2.26-1.432-2.712-2.637c-1.28,2.109-3.465,2.937-5.725,2.937c-4.068,0-7.382-2.71-7.382-7.907V22.672
		c0-5.198,3.314-7.91,7.382-7.91c4.068,0,7.382,2.712,7.382,7.91v2.411h-4.294v-3.014c0-2.335-1.355-3.541-3.088-3.541
		s-3.088,1.206-3.088,3.541v39.697c0,2.261,1.355,3.467,3.088,3.467s3.088-1.206,3.088-3.467V46.551h-3.088V42.786z"/>
	<path fill="#3B3B3B" d="M166.034,68.622c-4.068,0-7.307-2.711-7.307-7.757V30.43c0-5.046,3.239-7.758,7.307-7.758
		c3.992,0,7.307,2.712,7.307,7.758v30.435C173.341,65.911,170.026,68.622,166.034,68.622z M169.274,29.827
		c0-2.485-1.432-3.616-3.24-3.616c-1.807,0-3.24,1.13-3.24,3.616v31.716c0,2.41,1.433,3.54,3.24,3.54c1.808,0,3.24-1.13,3.24-3.54
		V29.827z"/>
	<path fill="#3B3B3B" d="M186.523,68.622c-3.917,0-6.931-2.636-6.931-7.757v-34.05h-3.39v-3.767h3.39V19.96
		c1.808-0.602,2.787-2.26,2.787-5.198h1.281v8.286h7.382v3.767h-7.382v34.728c0,2.86,1.657,3.54,2.863,3.54
		c1.205,0,2.862-0.68,2.862-3.54v-9.342h4.067v8.664C193.452,66.438,190.44,68.622,186.523,68.622z"/>
	<path fill="#3B3B3B" d="M200.833,68.245h-4.066V15.516h4.066v10.695c1.056-2.635,2.864-3.539,4.747-3.539
		c3.164,0,5.8,1.958,5.8,7.758v37.815h-4.067v-36.91c0-3.919-1.432-5.124-3.24-5.124c-1.808,0-3.24,1.282-3.24,5.124V68.245z"/>
	<path fill="#3B3B3B" d="M220.946,16.27v4.293h-4.293V16.27H220.946z M220.795,23.048v45.197h-4.067V23.048H220.795z"/>
	<path fill="#3B3B3B" d="M236.764,40.299V30.28c0-2.938-1.431-4.068-3.239-4.068c-1.808,0-3.239,1.13-3.239,4.068v30.811
		c0,2.862,1.431,3.992,3.239,3.992c1.808,0,3.239-1.13,3.239-3.992v-9.644h4.069v9.418c0,5.046-3.315,7.757-7.308,7.757
		c-4.068,0-7.307-2.711-7.307-7.757V30.43c0-5.046,3.239-7.758,7.307-7.758c3.993,0,7.308,2.712,7.308,7.758v9.869H236.764z"/>
	<path fill="#3B3B3B" d="M264.257,53.481h-5.047l-1.28,14.764h-4.293l5.123-52.729h5.951l5.122,52.729h-4.293L264.257,53.481z
		 M263.956,49.714l-2.184-26.137l-2.26,26.137H263.956z"/>
	<path fill="#3B3B3B" d="M282.41,68.548c-1.883,0-3.691-0.904-4.745-3.541v3.238h-4.069V15.516h4.069v10.695
		c1.053-2.635,2.861-3.539,4.745-3.539c3.165,0,5.8,1.958,5.8,7.758v30.357C288.21,66.587,285.574,68.548,282.41,68.548z
		 M280.904,65.083c1.809,0,3.239-1.206,3.239-5.199V31.335c0-3.919-1.43-5.124-3.239-5.124c-1.807,0-3.238,1.282-3.238,5.124v28.548
		C277.665,63.727,279.096,65.083,280.904,65.083z"/>
	<path fill="#3B3B3B" d="M304.027,40.299V30.28c0-2.938-1.43-4.068-3.238-4.068c-1.808,0-3.237,1.13-3.237,4.068v30.811
		c0,2.862,1.43,3.992,3.237,3.992c1.809,0,3.238-1.13,3.238-3.992v-9.644h4.07v9.418c0,5.046-3.315,7.757-7.309,7.757
		c-4.066,0-7.307-2.711-7.307-7.757V30.43c0-5.046,3.24-7.758,7.307-7.758c3.993,0,7.309,2.712,7.309,7.758v9.869H304.027z"/>
	<path fill="#3B3B3B" d="M330.015,68.245h-4.368V27.193c-1.432,1.732-3.692,3.087-5.426,3.54l-0.149-0.302
		c3.314-2.334,5.048-5.347,5.048-10.019v-4.896h4.896V68.245z"/>
	<path fill="#3B3B3B" d="M344.326,43.311c-3.164,6.178-4.67,9.041-4.67,16.8v4.37h10.395v3.765h-14.689V60.11
		c0-8.888,2.035-12.655,5.198-18.983c3.314-6.703,5.047-9.566,5.047-17.476c0-3.616-1.356-5.123-3.088-5.123
		c-1.732,0-3.089,1.281-3.089,3.993v2.485h-4.293v-2.334c0-5.198,3.088-7.91,7.382-7.91c4.068,0,7.381,3.089,7.381,9.492
		C349.9,33.293,347.49,37.135,344.326,43.311z"/>
	<path fill="#3B3B3B" d="M360.521,68.998c-4.068,0-7.381-2.71-7.381-7.907v-2.337h4.293v3.013c0,2.261,1.355,3.467,3.088,3.467
		c1.733,0,3.089-1.206,3.089-3.467V47.154c0-3.24-1.355-4.52-3.089-4.52h-3.766v-3.768h3.689c1.81,0,3.165-1.28,3.165-4.443V22.069
		c0-2.335-1.355-3.541-3.089-3.541c-1.808,0-3.088,1.206-3.088,3.541v3.014h-4.293v-2.411c0-5.198,3.312-7.91,7.381-7.91
		s7.383,2.712,7.383,7.833v11.073c0,2.863-1.206,5.198-3.088,6.555c1.882,1.357,3.088,3.615,3.088,6.554v14.313
		C367.904,66.288,364.589,68.998,360.521,68.998z"/>
</g>
</svg>
