<?xml version="1.0" encoding="utf-8"?>
<!-- Generator: Adobe Illustrator 16.0.0, SVG Export Plug-In . SVG Version: 6.00 Build 0)  -->
<!DOCTYPE svg PUBLIC "-//W3C//DTD SVG 1.1//EN" "http://www.w3.org/Graphics/SVG/1.1/DTD/svg11.dtd">
<svg version="1.1" id="Calque_1" xmlns="http://www.w3.org/2000/svg" xmlns:xlink="http://www.w3.org/1999/xlink" x="0px" y="0px"
	 width="572.924px" height="80px" viewBox="0 10 572.924 80" enable-background="new 0 10 572.924 80" xml:space="preserve">
<g>
	<path fill="#3B3B3B" d="M7.251,50c0,9.25,6,13.751,12.25,13.751c4.001,0,6.4-1.25,8.501-2.75V52.5H16.501V47h18.001v17.251
		c-4.25,3-9,5-15.001,5C7.251,69.251,0,60.25,0,50c0-10.251,7.001-19.251,18.501-19.251c7.001,0,12.351,3.25,15.451,8.102
		l-4.95,4.148c-2.75-4.75-6-6.75-10.501-6.75C13.001,36.249,7.251,40.749,7.251,50z"/>
	<path fill="#3B3B3B" d="M40.25,42.749H46v26.002h-5.75V42.749z M54.25,42.749V49h-1C47.5,49,46,50.5,46,57.25V48
		c1-4.001,4.25-5.251,7.75-5.251H54.25z"/>
	<path fill="#3B3B3B" d="M70,42.249c7.851,0,12.251,5.251,12.251,13.501c0,8.251-4.4,13.501-12.251,13.501
		s-12.251-5.25-12.251-13.501C57.749,47.5,62.149,42.249,70,42.249z M70,46.5c-3.5,0-6,2.5-6,9.25c0,6.751,2.5,9.251,6,9.251
		s6-2.5,6-9.251C76,49,73.5,46.5,70,46.5z"/>
	<path fill="#3B3B3B" d="M100.5,68.751H95c-4.501,0-5.751-1.75-5.751-7.25V47.25h-4v-4.501h4v-6.75L95,31.249v11.5h5.5v4.501H95
		v14.251c0,2,0.5,2.5,2.5,2.5h3V68.751z"/>
	<path fill="#3B3B3B" d="M128.75,56.25h-18.602v-4h13.001l-0.399,0.5c-0.5-4.3-2.851-6-6.001-6c-3.5,0-6,2.45-6,9
		c0,6.4,2.5,8.751,6,8.751c3,0,5.251-1.699,6.4-5.001l5.351,2.051c-2.05,4.801-6.25,7.7-11.751,7.7
		c-7.851,0-12.251-5.25-12.251-13.501c0-8.25,4.4-13.501,12.251-13.501C124.75,42.249,128.75,48,128.75,56.25z"/>
	<path fill="#3B3B3B" d="M154.5,61.251c0,4.75-4.251,7.75-10.501,7.75c-4.75,0-9.751-2-11.751-6.75l5.25-2.001
		c1.001,2.251,3.001,4.251,6.501,4.251c3,0,4.75-0.75,4.75-2.75c0-5.751-15.001-1.251-15.001-12.001c0-4.5,3.5-7.251,9.251-7.251
		c5.75,0,9.301,3.001,10.801,5.751l-4.7,2.101c-1.101-1.751-2.851-3.601-6.101-3.601c-2.75,0-3.75,1-3.75,2.5
		C139.249,55,154.5,51,154.5,61.251z"/>
	<path fill="#3B3B3B" d="M159.498,31.249h5.75v37.502h-5.75V31.249z M173.749,42.749h7L165.248,59l-5.25-1.25L173.749,42.749z
		 M172.748,50.5l9.001,18.251h-6.9l-7.75-16.251L172.748,50.5z"/>
	<path fill="#3B3B3B" d="M212.498,38.999h1l-11,29.752h-7.251l14.251-37.502h7.251L230.5,68.751h-7.251L212.498,38.999z
		 M224.249,55.75v5.501h-22.501V55.75H224.249z"/>
	<path fill="#3B3B3B" d="M240.247,68.751h-5.75V31.249h5.75V68.751z M248.147,42.249c6.651,0,10.351,5.251,10.351,13.501
		c0,8.251-3.699,13.501-10.351,13.501c-6.6,0-10.351-5.75-10.351-13.501C237.797,48,241.548,42.249,248.147,42.249z M246.248,47
		c-3.5,0-6.001,2.351-6.001,8.75c0,6.4,2.501,8.751,6.001,8.751s6-2.351,6-8.751C252.248,49.351,249.748,47,246.248,47z"/>
	<path fill="#3B3B3B" d="M263.496,55.75c0-8.25,4.4-13.501,12.251-13.501c5.101,0,9.501,3.001,11.251,7.501l-5,2.5
		c-1.25-4.05-3.9-5.5-6.251-5.5c-3.5,0-6,2.45-6,9c0,6.4,2.5,8.751,6,8.751c2.351,0,5.051-1.399,6.251-5.251l5,2.501
		c-1.75,4.5-6.15,7.5-11.251,7.5C267.896,69.251,263.496,64.001,263.496,55.75z"/>
	<path fill="#3B3B3B" d="M311.246,68.751V38.249l1,1.5L303.496,48v-8.251l9.25-8.5h5.251v37.502H311.246z"/>
	<path fill="#3B3B3B" d="M324.995,68.751c0-6,1.601-9.949,9.751-15.501c7-4.75,9-7,9-11.001c0-3.75-2.75-6-6-6s-6,2.25-6,5.75
		c0,1.75,0.5,3.001,1.75,4.501l-6.001,3c-1.5-2.25-2.25-4.5-2.25-7.501c0-6,5.001-11.25,12.501-11.25c8.5,0,12.751,5.25,12.751,12
		c0,5.501-3.251,8.551-7.751,11.751c-4,2.852-9,5.75-9,7.751h17.501v6.5H324.995z"/>
	<path fill="#3B3B3B" d="M355.245,56.5h7c0,4.251,2.25,6.751,5.751,6.751c3,0,5.5-1.5,5.5-5.251c0-4.75-2.4-6.75-6.751-6.75h-3V46
		h4.001c2.75,0,5.25-1.601,5.25-5.001c0-2.75-2-4.75-4.75-4.75c-2.501,0-5.001,1.5-5.001,5.5h-6.75c0-6.299,5-11,12.001-11
		c6.25,0,10.75,3.5,10.75,9.75c0,3.65-2.15,6.701-7.25,8.101v-1c6,1.65,8.75,5.351,8.75,10.65c0,6.751-5.5,11.001-12.75,11.001
		C360.495,69.251,355.245,64.501,355.245,56.5z"/>
</g>
</svg>
