<?xml version="1.0" encoding="utf-8"?>
<!-- Generator: Adobe Illustrator 16.0.0, SVG Export Plug-In . SVG Version: 6.00 Build 0)  -->
<!DOCTYPE svg PUBLIC "-//W3C//DTD SVG 1.1//EN" "http://www.w3.org/Graphics/SVG/1.1/DTD/svg11.dtd">
<svg version="1.1" id="Calque_1" xmlns="http://www.w3.org/2000/svg" xmlns:xlink="http://www.w3.org/1999/xlink" x="0px" y="0px"
	 width="20px" height="20px" viewBox="0 0 20 20" enable-background="new 0 0 20 20" xml:space="preserve">
<path fill="none" d="M9.999,12.758c-0.719,0-1.302,0.583-1.302,1.303l0.356,3.01h1.894l0.354-3.01
	C11.302,13.341,10.718,12.758,9.999,12.758z"/>
<path fill="#CCCCCC" d="M15.439,8.029h-0.916V4.524C14.523,2.03,12.494,0,10,0C7.527,0,5.519,1.996,5.482,4.459
	C5.481,4.479,5.471,4.497,5.471,4.518c0,0.537,0.435,0.971,0.971,0.971c0.534,0,0.967-0.432,0.97-0.965h0.001
	c0-1.426,1.16-2.586,2.586-2.586c1.427,0,2.586,1.16,2.586,2.586v3.505H7.413H5.476H4.559c-0.997,0-1.809,0.812-1.809,1.81v8.351
	C2.75,19.188,3.562,20,4.559,20h10.88c0.998,0,1.811-0.812,1.811-1.811V9.838C17.25,8.841,16.438,8.029,15.439,8.029z M10.947,17.07
	H9.053l-0.356-3.01c0-0.72,0.583-1.303,1.302-1.303c0.719,0,1.303,0.583,1.303,1.303L10.947,17.07z"/>
</svg>
