<?xml version="1.0" encoding="utf-8"?>
<!-- Generator: Adobe Illustrator 16.0.0, SVG Export Plug-In . SVG Version: 6.00 Build 0)  -->
<!DOCTYPE svg PUBLIC "-//W3C//DTD SVG 1.1//EN" "http://www.w3.org/Graphics/SVG/1.1/DTD/svg11.dtd">
<svg version="1.1" id="Calque_1" xmlns="http://www.w3.org/2000/svg" xmlns:xlink="http://www.w3.org/1999/xlink" x="0px" y="0px"
	 width="29.996px" height="29.996px" viewBox="0 0 29.996 29.996" enable-background="new 0 0 29.996 29.996" xml:space="preserve">
<g>
	<path fill="#F6943D" d="M18.021,0.34c-0.266-0.266-0.639-0.388-1.013-0.327c-0.368,0.062-0.686,0.296-0.853,0.631l-8.505,17.2
		l-1.583,1.584l-2.247,1.491c-0.292,0.192-0.481,0.505-0.515,0.853c-0.035,0.349,0.087,0.691,0.333,0.938l3.638,3.64
		c0.22,0.217,0.517,0.34,0.823,0.34c0.039,0,0.078,0,0.116-0.004c0.347-0.037,0.661-0.226,0.854-0.518l1.513-2.279l1.438-1.438
		c0.042,0.062,0.088,0.119,0.144,0.175l3.741,3.743c0.217,0.217,0.507,0.339,0.816,0.339c0.309,0,0.598-0.121,0.812-0.339
		l0.539-0.538c0.447-0.451,0.447-1.183-0.001-1.631l-3.213-3.214l14.479-7.159c0.334-0.168,0.567-0.484,0.632-0.854
		c0.061-0.372-0.062-0.748-0.328-1.012L18.021,0.34z M8.066,24.562l-2.612-2.614l2.13-1.202l1.684,1.686L8.066,24.562z"/>
</g>
</svg>
