<?xml version="1.0" encoding="utf-8"?>
<!-- Generator: Adobe Illustrator 16.0.0, SVG Export Plug-In . SVG Version: 6.00 Build 0)  -->
<!DOCTYPE svg PUBLIC "-//W3C//DTD SVG 1.1//EN" "http://www.w3.org/Graphics/SVG/1.1/DTD/svg11.dtd">
<svg version="1.1" id="Calque_1" xmlns="http://www.w3.org/2000/svg" xmlns:xlink="http://www.w3.org/1999/xlink" x="0px" y="0px"
	 width="132.602px" height="89.772px" viewBox="0 0 132.602 89.772" enable-background="new 0 0 132.602 89.772"
	 xml:space="preserve">
<g>
	<path d="M21.05,39.272c0,16.578,10.753,24.643,21.955,24.643c7.168,0,11.47-2.24,15.234-4.928V43.751h-20.61v-9.856h32.26V64.81
		c-7.616,5.377-16.13,8.962-26.883,8.962c-21.955,0-34.948-16.13-34.948-34.5s12.546-34.5,33.156-34.5
		c12.545,0,22.133,5.824,27.69,14.517l-8.872,7.438c-4.929-8.513-10.754-12.098-18.818-12.098
		C31.355,14.629,21.05,22.694,21.05,39.272z"/>
	<path d="M77.5,72.875c0-10.753,2.867-17.832,17.474-27.779c12.546-8.513,16.13-12.545,16.13-19.714
		c0-6.721-4.929-10.754-10.754-10.754s-10.753,4.032-10.753,10.305c0,3.136,0.896,5.376,3.137,8.065l-10.753,5.376
		c-2.688-4.032-4.032-8.065-4.032-13.441c-0.001-10.753,8.96-20.162,22.401-20.162c15.234,0,22.851,9.409,22.851,21.506
		c0,9.857-5.824,15.324-13.89,21.058c-7.168,5.108-16.129,10.306-16.129,13.89h31.363v11.649H77.5z"/>
</g>
</svg>
