<?xml version="1.0" encoding="utf-8"?>
<!-- Generator: Adobe Illustrator 16.0.0, SVG Export Plug-In . SVG Version: 6.00 Build 0)  -->
<!DOCTYPE svg PUBLIC "-//W3C//DTD SVG 1.1//EN" "http://www.w3.org/Graphics/SVG/1.1/DTD/svg11.dtd">
<svg version="1.1" id="Calque_1" xmlns="http://www.w3.org/2000/svg" xmlns:xlink="http://www.w3.org/1999/xlink" x="0px" y="0px"
	 width="105px" height="70px" viewBox="0 0 105 70" enable-background="new 0 0 105 70" xml:space="preserve">
<g>
	<path fill="#7E7E7E" d="M14.758,22H13l3.712-10h1.849l3.802,10H20.62l-0.575-1.47c-0.182-0.501-0.182-0.788-0.076-0.956
		l-0.243-0.166c-0.122,0.166-0.439,0.274-0.97,0.274h-2.181c-0.531,0-0.849-0.122-0.968-0.259l-0.244,0.168
		c0.105,0.15,0.105,0.438-0.076,0.938L14.758,22z M16.377,17.379c-0.166,0.515-0.377,0.773-0.591,0.939l0.168,0.242
		c0.211-0.152,0.528-0.242,1.076-0.242h1.241c0.531,0,0.924,0.121,1.077,0.242l0.151-0.228c-0.151-0.106-0.425-0.439-0.591-0.938
		l-0.925-2.939c-0.151-0.438-0.197-1.076-0.197-1.288h-0.317c0,0.196-0.045,0.85-0.181,1.288L16.377,17.379z"/>
</g>
<rect x="44" y="14" fill="#7E7E7E" width="2" height="6"/>
<rect x="48" y="11" fill="#7E7E7E" width="1" height="12"/>
<rect x="51" y="14" fill="#7E7E7E" width="2" height="6"/>
<rect x="55" y="11" fill="#7E7E7E" width="1" height="12"/>
<rect x="58" y="14" fill="#7E7E7E" width="2" height="7"/>
<rect x="79" y="13" fill="#7E7E7E" width="14" height="2"/>
<rect x="79" y="17" fill="#7E7E7E" width="17" height="2"/>
<rect x="79" y="21" fill="#7E7E7E" width="13" height="2"/>
<g>
	<path fill="#FFFFFF" d="M14.758,57H13l3.712-10h1.849l3.802,10H20.62l-0.575-1.47c-0.182-0.501-0.182-0.788-0.076-0.956
		l-0.243-0.166c-0.122,0.166-0.439,0.274-0.97,0.274h-2.181c-0.531,0-0.849-0.122-0.968-0.259l-0.244,0.168
		c0.105,0.15,0.105,0.438-0.076,0.938L14.758,57z M16.377,52.379c-0.166,0.515-0.377,0.773-0.591,0.939l0.168,0.242
		c0.211-0.152,0.528-0.242,1.076-0.242h1.241c0.531,0,0.924,0.121,1.077,0.242l0.151-0.228c-0.151-0.106-0.425-0.439-0.591-0.938
		l-0.925-2.939c-0.151-0.438-0.197-1.076-0.197-1.288h-0.317c0,0.196-0.045,0.85-0.181,1.288L16.377,52.379z"/>
</g>
<rect x="44" y="49" fill="#FFFFFF" width="2" height="6"/>
<rect x="48" y="46" fill="#FFFFFF" width="1" height="12"/>
<rect x="51" y="49" fill="#FFFFFF" width="2" height="6"/>
<rect x="55" y="46" fill="#FFFFFF" width="1" height="12"/>
<rect x="58" y="49" fill="#FFFFFF" width="2" height="7"/>
<rect x="79" y="48" fill="#FFFFFF" width="14" height="2"/>
<rect x="79" y="52" fill="#FFFFFF" width="17" height="2"/>
<rect x="79" y="56" fill="#FFFFFF" width="13" height="2"/>
</svg>
