<?xml version="1.0" encoding="utf-8"?>
<!-- Generator: Adobe Illustrator 19.0.0, SVG Export Plug-In . SVG Version: 6.00 Build 0)  -->
<svg version="1.1" id="Calque_1" xmlns="http://www.w3.org/2000/svg" xmlns:xlink="http://www.w3.org/1999/xlink" x="0px" y="0px"
	 viewBox="0 0 16 16" style="enable-background:new 0 0 16 16;" xml:space="preserve">
<style type="text/css">
	.st0{fill:#C7C6C6;}
</style>
<path class="st0" d="M15.7,7.8l-1.2-0.2c0-0.8-0.2-1.6-0.5-2.3l1-0.7c0.1,0,0.1-0.1,0.1-0.2c0-0.1,0-0.2-0.1-0.2l-1.3-1.8
	c0-0.1-0.1-0.1-0.2-0.1c-0.1,0-0.2,0-0.2,0.1l-0.9,0.7c-0.6-0.5-1.3-1-2-1.3l0.2-1.1c0-0.1,0-0.2-0.1-0.2c0-0.1-0.1-0.1-0.2-0.1
	L8.1,0C8.1,0,8,0,7.9,0.1c-0.1,0-0.1,0.1-0.1,0.2L7.7,1.3C6.8,1.3,6,1.5,5.3,1.9L4.6,1C4.5,0.8,4.4,0.8,4.2,0.9L2.4,2.2
	c-0.1,0-0.1,0.1-0.1,0.2c0,0.1,0,0.2,0.1,0.2L3,3.5C2.5,4.1,2,4.8,1.8,5.6L0.6,5.4c-0.1,0-0.2,0-0.2,0.1c-0.1,0-0.1,0.1-0.1,0.2
	L0,7.9C0,8,0.1,8.2,0.3,8.2l1.1,0.2c0,0.8,0.2,1.6,0.6,2.3L1,11.4c-0.1,0.1-0.2,0.3-0.1,0.4l1.3,1.8c0.1,0.1,0.3,0.2,0.4,0.1
	l0.9-0.7c0.6,0.5,1.3,0.9,2,1.2l-0.2,1.2c0,0.2,0.1,0.3,0.3,0.3L7.9,16c0,0,0,0,0,0c0.1,0,0.3-0.1,0.3-0.3l0.2-1.2
	c0.8,0,1.5-0.2,2.2-0.5l0.8,1c0.1,0.1,0.3,0.2,0.4,0.1l1.8-1.3c0.1,0,0.1-0.1,0.1-0.2c0-0.1,0-0.2-0.1-0.2l-0.7-1
	c0.5-0.6,0.9-1.2,1.2-2l1.2,0.2c0.2,0,0.3-0.1,0.3-0.3L16,8.1C16,8,15.9,7.8,15.7,7.8 M8,11.1c-1.7,0-3.1-1.4-3.1-3.1
	c0-1.7,1.4-3.1,3.1-3.1c1.7,0,3.1,1.4,3.1,3.1C11.1,9.7,9.7,11.1,8,11.1"/>
</svg>
