<?xml version="1.0" encoding="utf-8"?>
<!-- Generator: Adobe Illustrator 16.0.0, SVG Export Plug-In . SVG Version: 6.00 Build 0)  -->
<!DOCTYPE svg PUBLIC "-//W3C//DTD SVG 1.1//EN" "http://www.w3.org/Graphics/SVG/1.1/DTD/svg11.dtd">
<svg version="1.1" id="Calque_1" xmlns="http://www.w3.org/2000/svg" xmlns:xlink="http://www.w3.org/1999/xlink" x="0px" y="0px"
	 width="14px" height="34.958px" viewBox="12.5 0 14 34.958" enable-background="new 12.5 0 14 34.958" xml:space="preserve">
<g>
	<path fill="#FFFFFF" d="M16.373,23.979h-2.109l4.455-12h2.218l4.563,12h-2.092l-0.69-1.764c-0.218-0.601-0.218-0.945-0.091-1.146
		l-0.291-0.199c-0.146,0.199-0.527,0.327-1.164,0.327h-2.617c-0.637,0-1.019-0.146-1.163-0.31L17.1,21.088
		c0.127,0.182,0.127,0.526-0.091,1.127L16.373,23.979z M18.317,18.433c-0.2,0.618-0.454,0.928-0.709,1.128l0.2,0.29
		c0.255-0.182,0.636-0.29,1.291-0.29h1.49c0.637,0,1.109,0.146,1.292,0.29l0.182-0.272c-0.182-0.127-0.51-0.527-0.709-1.127
		l-1.109-3.527c-0.183-0.527-0.237-1.291-0.237-1.546h-0.381c0,0.236-0.055,1.019-0.218,1.546L18.317,18.433z"/>
</g>
</svg>
