<?xml version="1.0" encoding="utf-8"?>
<!-- Generator: Adobe Illustrator 16.0.0, SVG Export Plug-In . SVG Version: 6.00 Build 0)  -->
<!DOCTYPE svg PUBLIC "-//W3C//DTD SVG 1.1//EN" "http://www.w3.org/Graphics/SVG/1.1/DTD/svg11.dtd">
<svg version="1.1" id="Calque_1" xmlns="http://www.w3.org/2000/svg" xmlns:xlink="http://www.w3.org/1999/xlink" x="0px" y="0px"
	 width="40px" height="34.958px" viewBox="0 0 40 34.958" enable-background="new 0 0 40 34.958" xml:space="preserve">
<g>
	<path fill="#49E4A9" d="M11.499,8.855H5.98c-0.46,0-0.833,0.373-0.833,0.833v18.222c0,0.46,0.373,0.834,0.833,0.834h5.519
		c0.46,0,0.834-0.374,0.834-0.834V9.689C12.333,9.229,11.959,8.855,11.499,8.855z"/>
	<path fill="#49E4A9" d="M34.097,8.855h-18.54c-0.46,0-0.833,0.373-0.833,0.833v18.222c0,0.46,0.373,0.834,0.833,0.834h18.54
		c0.459,0,0.833-0.374,0.833-0.834V9.689C34.93,9.229,34.557,8.855,34.097,8.855z M33.263,27.079H16.391V10.522h16.872V27.079z"/>
	<path fill="#49E4A9" d="M38.612,0H1.389C0.622,0,0,0.622,0,1.389v32.179c0,0.767,0.622,1.389,1.389,1.389h37.223
		c0.767,0,1.388-0.623,1.388-1.389V1.389C40,0.622,39.378,0,38.612,0z M2.778,32.179V5.174h34.444v27.005H2.778z"/>
</g>
</svg>
