<?xml version="1.0" encoding="utf-8"?>
<!-- Generator: Adobe Illustrator 16.0.0, SVG Export Plug-In . SVG Version: 6.00 Build 0)  -->
<!DOCTYPE svg PUBLIC "-//W3C//DTD SVG 1.1//EN" "http://www.w3.org/Graphics/SVG/1.1/DTD/svg11.dtd">
<svg version="1.1" id="Calque_1" xmlns="http://www.w3.org/2000/svg" xmlns:xlink="http://www.w3.org/1999/xlink" x="0px" y="0px"
	 width="40px" height="34.958px" viewBox="0 0 40 34.958" enable-background="new 0 0 40 34.958" xml:space="preserve">
<g>
	<path fill="#FFFFFF" d="M17.156,14.661h-3.235c-0.2,0-0.361,0.161-0.361,0.361v7.059c0,0.199,0.162,0.362,0.361,0.362h3.235
		c0.2,0,0.362-0.163,0.362-0.362v-7.059C17.518,14.823,17.355,14.661,17.156,14.661z"/>
	<path fill="#FFFFFF" d="M26.112,14.661h-6.355c-0.199,0-0.361,0.161-0.361,0.361v7.059c0,0.199,0.162,0.362,0.361,0.362h6.355
		c0.199,0,0.361-0.163,0.361-0.362v-7.059C26.474,14.823,26.312,14.661,26.112,14.661z M25.752,21.721h-5.633v-6.338h5.633V21.721z"
		/>
	<path fill="#FFFFFF" d="M28.912,9.979H11.088c-0.333,0-0.602,0.27-0.602,0.602v14.795c0,0.332,0.27,0.603,0.602,0.603h17.824
		c0.333,0,0.603-0.271,0.603-0.603V10.581C29.515,10.249,29.244,9.979,28.912,9.979z M11.69,24.774V12.223h16.62v12.551H11.69z"/>
</g>
</svg>
