<?xml version="1.0" encoding="utf-8"?>
<!-- Generator: Adobe Illustrator 16.0.0, SVG Export Plug-In . SVG Version: 6.00 Build 0)  -->
<!DOCTYPE svg PUBLIC "-//W3C//DTD SVG 1.1//EN" "http://www.w3.org/Graphics/SVG/1.1/DTD/svg11.dtd">
<svg version="1.1" id="Calque_1" xmlns="http://www.w3.org/2000/svg" xmlns:xlink="http://www.w3.org/1999/xlink" x="0px" y="0px"
	 width="368.5px" height="283.46px" viewBox="0 0 368.5 283.46" enable-background="new 0 0 368.5 283.46" xml:space="preserve">
<g>
	<g>
		<g opacity="0.44">
			<g>
				<g>
					<defs>
						<rect id="SVGID_1_" x="37.202" y="17.15" width="290.02" height="244.463"/>
					</defs>
					<clipPath id="SVGID_2_">
						<use xlink:href="#SVGID_1_"  overflow="visible"/>
					</clipPath>
					<path clip-path="url(#SVGID_2_)" fill="#F6F6F6" d="M327.22,139.383c0,67.505-64.923,122.231-145.007,122.231
						c-80.088,0-145.011-54.726-145.011-122.231c0-67.507,64.923-122.232,145.011-122.232
						C262.297,17.15,327.22,71.875,327.22,139.383"/>
				</g>
			</g>
		</g>
		<g opacity="0.12">
			<g>
				<g>
					<defs>
						<rect id="SVGID_3_" x="74.26" y="65.125" width="215.903" height="192.001"/>
					</defs>
					<clipPath id="SVGID_4_">
						<use xlink:href="#SVGID_3_"  overflow="visible"/>
					</clipPath>
					<path clip-path="url(#SVGID_4_)" fill="#D3D3D2" d="M290.16,161.125c0,53.021-48.329,95.999-107.95,95.999
						c-59.62,0-107.952-42.979-107.952-95.999c0-53.019,48.332-96,107.952-96C241.831,65.125,290.16,108.105,290.16,161.125"/>
				</g>
			</g>
		</g>
		<path fill="none" stroke="#D1A617" stroke-width="6.956" stroke-linejoin="round" stroke-miterlimit="10" d="M218.927,117.739
			h28.114c0,0,0.02,0,0.02,14.97c0,12.839-10.081,28.675-28.134,28.675V117.739z"/>
		<path fill="none" stroke="#FED52A" stroke-width="6.956" stroke-linejoin="round" stroke-miterlimit="10" d="M218.927,114.956
			h28.114c0,0,0.02,0,0.02,14.969c0,12.84-10.081,28.677-28.134,28.677V114.956z"/>
		<path fill="none" stroke="#D1A617" stroke-width="6.956" stroke-linejoin="round" stroke-miterlimit="10" d="M145.201,117.739
			h-28.114c0,0-0.019,0-0.019,14.97c0,12.839,10.081,28.675,28.133,28.675V117.739z"/>
		<path fill="none" stroke="#FED52A" stroke-width="6.956" stroke-linejoin="round" stroke-miterlimit="10" d="M145.201,115.091
			h-28.114c0,0-0.019,0-0.019,14.97c0,12.84,10.081,28.673,28.133,28.673V115.091z"/>
		<rect x="173.859" y="175.683" fill="#FED52A" width="16.664" height="39.126"/>
		<path fill="#F9C20F" d="M210.338,214.809h-56.293c-2.418,0-4.378,1.959-4.378,4.377v2.705c0,2.417,1.96,4.379,4.378,4.379h56.293
			c2.418,0,4.379-1.962,4.379-4.379v-2.705C214.718,216.768,212.759,214.809,210.338,214.809"/>
		<path fill="#D1A617" d="M216.209,222.46h-68.466c-2.581,0-4.673,2.094-4.673,4.674v6.2c0,0.435,0.352,0.787,0.789,0.787h76.236
			c0.435,0,0.788-0.353,0.788-0.787v-6.2C220.886,224.554,218.794,222.46,216.209,222.46"/>
		<path fill="#FED52A" d="M144.737,99.334c-1.165,0-2.109,0.978-2.109,2.185v47.479c-0.007,0.346-0.022,0.685-0.022,1.03
			c0,24.558,17.724,44.467,39.589,44.467s39.59-19.909,39.59-44.467v-48.51c0-1.207-0.947-2.185-2.11-2.185H144.737L144.737,99.334z
			"/>

			<path fill="none" stroke="#D1A617" stroke-width="2.7824" stroke-linecap="round" stroke-linejoin="round" stroke-miterlimit="10" d="
			M144.737,99.334c-1.165,0-2.109,0.978-2.109,2.185v47.479c-0.007,0.346-0.022,0.685-0.022,1.03
			c0,24.558,17.724,44.467,39.589,44.467s39.59-19.909,39.59-44.467v-48.51c0-1.207-0.947-2.185-2.11-2.185H144.737L144.737,99.334z
			"/>
		<polygon fill="#FFFFFF" points="189.16,143.813 200.798,135.352 186.399,135.352 181.949,121.697 177.548,135.352
			163.626,135.352 174.877,143.638 170.431,157.429 182.092,148.953 193.597,157.429 		"/>

			<polygon fill="none" stroke="#FFFFFF" stroke-width="2.7824" stroke-linecap="round" stroke-linejoin="round" stroke-miterlimit="10" points="
			189.16,143.813 200.798,135.352 186.399,135.352 181.949,121.697 177.548,135.352 163.626,135.352 174.877,143.638
			170.431,157.429 182.092,148.953 193.597,157.429 		"/>
		<path fill="#D1A617" d="M182.211,186.637c-15.159,0-29.562-6.973-35.171-19.747c5.395,15.337,19.103,26.237,35.171,26.237
			c16.068,0,29.776-10.9,35.17-26.237C211.558,180.453,197.371,186.637,182.211,186.637"/>

			<line fill="none" stroke="#937816" stroke-width="2.7824" stroke-linecap="round" stroke-linejoin="round" stroke-miterlimit="10" x1="114.945" y1="234.019" x2="249.009" y2="234.019"/>

			<line fill="none" class="spark spark-bottomleft spark-bottomleft-2" stroke="#FED52A" stroke-width="2.7824" stroke-linecap="round" stroke-linejoin="round" stroke-miterlimit="10" x1="38.625" y1="193.525" x2="38.625" y2="219.088"/>

			<line fill="none" class="spark spark-bottomleft spark-bottomleft-2" stroke="#FED52A" stroke-width="2.7824" stroke-linecap="round" stroke-linejoin="round" stroke-miterlimit="10" x1="51.405" y1="206.307" x2="25.842" y2="206.307"/>

			<line fill="none" class="spark spark-bottomleft spark-bottomleft-1" stroke="#FED52A" stroke-width="2.7824" stroke-linecap="round" stroke-linejoin="round" stroke-miterlimit="10" x1="69.651" y1="189.374" x2="69.651" y2="202.155"/>

			<line fill="none" class="spark spark-bottomleft spark-bottomleft-1" stroke="#FED52A" stroke-width="2.7824" stroke-linecap="round" stroke-linejoin="round" stroke-miterlimit="10" x1="76.042" y1="195.763" x2="63.259" y2="195.763"/>

			<line fill="none" class="spark spark-topright spark-topright-3" stroke="#BCA35C" stroke-width="2.7824" stroke-linecap="round" stroke-linejoin="round" stroke-miterlimit="10" x1="344.428" y1="48.083" x2="344.428" y2="65.125"/>

			<line fill="none" class="spark spark-topright spark-topright-3" stroke="#BCA35C" stroke-width="2.7824" stroke-linecap="round" stroke-linejoin="round" stroke-miterlimit="10" x1="335.679" y1="56.604" x2="353.175" y2="56.604"/>

			<line fill="none" class="spark spark-topright spark-topright-2" stroke="#BCA35C" stroke-width="2.7824" stroke-linecap="round" stroke-linejoin="round" stroke-miterlimit="10" x1="297.228" y1="56.139" x2="297.228" y2="81.702"/>

			<line fill="none" class="spark spark-topright spark-topright-2" stroke="#BCA35C" stroke-width="2.7824" stroke-linecap="round" stroke-linejoin="round" stroke-miterlimit="10" x1="284.105" y1="68.919" x2="310.351" y2="68.919"/>

			<line fill="none" class="spark spark-topright spark-topright-1" stroke="#BCA35C" stroke-width="2.7824" stroke-linecap="round" stroke-linejoin="round" stroke-miterlimit="10" x1="325.462" y1="106.152" x2="325.462" y2="118.932"/>

			<line fill="none" class="spark spark-topright spark-topright-1" stroke="#BCA35C" stroke-width="2.7824" stroke-linecap="round" stroke-linejoin="round" stroke-miterlimit="10" x1="318.899" y1="112.542" x2="332.021" y2="112.542"/>

			<line fill="none" class="spark spark-bottomright spark-bottomright-2" stroke="#FDE889" stroke-width="2.7824" stroke-linecap="round" stroke-linejoin="round" stroke-miterlimit="10" x1="330.195" y1="190.245" x2="321.628" y2="190.245"/>

			<line fill="none" class="spark spark-bottomright spark-bottomright-2" stroke="#FDE889" stroke-width="2.7824" stroke-linecap="round" stroke-linejoin="round" stroke-miterlimit="10" x1="325.913" y1="194.529" x2="325.913" y2="185.96"/>

			<line fill="none" class="spark spark-bottomright spark-bottomright-2" stroke="#FDE889" stroke-width="2.7824" stroke-linecap="round" stroke-linejoin="round" stroke-miterlimit="10" x1="327.546" y1="217.445" x2="314.695" y2="217.445"/>

			<line fill="none" class="spark spark-bottomright spark-bottomright-2" stroke="#FDE889" stroke-width="2.7824" stroke-linecap="round" stroke-linejoin="round" stroke-miterlimit="10" x1="321.12" y1="223.871" x2="321.12" y2="211.021"/>

			<line fill="none" class="spark spark-bottomright spark-bottomright-1" stroke="#FDE889" stroke-width="2.7824" stroke-linecap="round" stroke-linejoin="round" stroke-miterlimit="10" x1="301.002" y1="199.53" x2="294.578" y2="199.53"/>

			<line fill="none" class="spark spark-bottomright spark-bottomright-1" stroke="#FDE889" stroke-width="2.7824" stroke-linecap="round" stroke-linejoin="round" stroke-miterlimit="10" x1="297.791" y1="202.745" x2="297.791" y2="196.319"/>

			<line fill="none" class="spark spark-topleft spark-topleft-3" stroke="#E0D7B1" stroke-width="2.7824" stroke-linecap="round" stroke-linejoin="round" stroke-miterlimit="10" x1="87.682" y1="105.33" x2="87.682" y2="91.068"/>

			<line fill="none" class="spark spark-topleft spark-topleft-3" stroke="#E0D7B1" stroke-width="2.7824" stroke-linecap="round" stroke-linejoin="round" stroke-miterlimit="10" x1="80.552" y1="98.2" x2="94.813" y2="98.2"/>

			<line fill="none" class="spark spark-topleft spark-topleft-2" stroke="#E0D7B1" stroke-width="2.7824" stroke-linecap="round" stroke-linejoin="round" stroke-miterlimit="10" x1="42.404" y1="100.919" x2="42.404" y2="79.527"/>

			<line fill="none" class="spark spark-topleft spark-topleft-2" stroke="#E0D7B1" stroke-width="2.7824" stroke-linecap="round" stroke-linejoin="round" stroke-miterlimit="10" x1="31.708" y1="90.223" x2="53.1" y2="90.223"/>

			<line fill="none" class="spark spark-topleft spark-topleft-1" stroke="#E0D7B1" stroke-width="2.7824" stroke-linecap="round" stroke-linejoin="round" stroke-miterlimit="10" x1="72.225" y1="56.738" x2="72.225" y2="46.043"/>

			<line fill="none" class="spark spark-topleft spark-topleft-1" stroke="#E0D7B1" stroke-width="2.7824" stroke-linecap="round" stroke-linejoin="round" stroke-miterlimit="10" x1="66.875" y1="51.39" x2="77.571" y2="51.39"/>
	</g>
	<g>

			<line fill="none" class="bar bar-1" stroke="#FED52A" stroke-width="4.1736" stroke-linecap="round" stroke-linejoin="round" stroke-miterlimit="10" x1="181.254" y1="76.475" x2="181.254" y2="24.108"/>

			<line fill="none" class="bar bar-2" stroke="#FED52A" stroke-width="4.1736" stroke-linecap="round" stroke-linejoin="round" stroke-miterlimit="10" x1="155.112" y1="82.379" x2="136.309" y2="44.083"/>

			<line fill="none" class="bar bar-3" stroke="#FED52A" stroke-width="4.1736" stroke-linecap="round" stroke-linejoin="round" stroke-miterlimit="10" x1="208.841" y1="82.379" x2="227.645" y2="44.083"/>
	</g>
</g>
</svg>
