<?xml version="1.0" encoding="utf-8"?>
<!-- Generator: Adobe Illustrator 16.0.0, SVG Export Plug-In . SVG Version: 6.00 Build 0)  -->
<!DOCTYPE svg PUBLIC "-//W3C//DTD SVG 1.1//EN" "http://www.w3.org/Graphics/SVG/1.1/DTD/svg11.dtd">
<svg version="1.1" id="Calque_1" xmlns="http://www.w3.org/2000/svg" xmlns:xlink="http://www.w3.org/1999/xlink" x="0px" y="0px"
	 width="1280px" height="800px" viewBox="0 0 1280 800" enable-background="new 0 0 1280 800" xml:space="preserve">
<path fill="#6F6F6E" d="M870.02,646.318H406.422c-16.467,0-29.816-13.35-29.816-29.816c0-16.466,13.349-29.816,29.816-29.816H870.02
	c16.468,0,29.816,13.351,29.816,29.816C899.836,632.969,886.487,646.318,870.02,646.318z"/>
<path fill="#6F6F6E" d="M798.46,498.174H406.422c-16.467,0-29.816-13.35-29.816-29.816s13.349-29.816,29.816-29.816H798.46
	c16.467,0,29.816,13.35,29.816,29.816S814.927,498.174,798.46,498.174z"/>
<path fill="#6F6F6E" d="M941.578,350.029H406.422c-16.467,0-29.816-13.349-29.816-29.816c0-16.467,13.349-29.816,29.816-29.816
	h535.156c16.468,0,29.816,13.349,29.816,29.816C971.395,336.68,958.046,350.029,941.578,350.029z"/>
<path fill="#6F6F6E" d="M870.02,201.884H406.422c-16.467,0-29.816-13.349-29.816-29.816c0-16.467,13.349-29.816,29.816-29.816
	H870.02c16.468,0,29.816,13.349,29.816,29.816C899.836,188.535,886.487,201.884,870.02,201.884z"/>
</svg>
