<?xml version="1.0" encoding="utf-8"?>
<!-- Generator: Adobe Illustrator 16.0.0, SVG Export Plug-In . SVG Version: 6.00 Build 0)  -->
<!DOCTYPE svg PUBLIC "-//W3C//DTD SVG 1.1//EN" "http://www.w3.org/Graphics/SVG/1.1/DTD/svg11.dtd">
<svg version="1.1" id="Calque_1" xmlns="http://www.w3.org/2000/svg" xmlns:xlink="http://www.w3.org/1999/xlink" x="0px" y="0px"
	 width="1280px" height="800px" viewBox="0 0 1280 800" enable-background="new 0 0 1280 800" xml:space="preserve">
<g>
	<path fill="none" stroke="#6F6F6E" stroke-width="70" stroke-miterlimit="10" d="M954.131,238.198
		c-0.378-2.601-0.918-5.149-1.618-7.63c-0.309-1.159-0.659-2.345-1.051-3.491c-8.694-25.802-33.054-44.418-61.796-44.432h4.476
		c0,0-115.54-17.431-269.261-18.145c-153.707,0.714-269.261,18.145-269.261,18.145h4.488c-28.755,0.013-53.101,18.629-61.809,44.432
		c-0.377,1.146-0.729,2.333-1.065,3.491c-0.674,2.48-1.214,5.029-1.591,7.63c-4.193,29.968-11.108,89.794-11.742,161.485
		c0.634,71.716,7.549,131.489,11.742,161.499c0.377,2.601,0.917,5.136,1.591,7.614c0.336,1.2,0.688,2.335,1.065,3.506
		c8.708,25.815,33.054,44.433,61.809,44.433h-4.488c0,0,115.554,17.443,269.261,18.158c153.721-0.715,269.261-18.158,269.261-18.158
		h-4.476c28.742,0,53.102-18.617,61.796-44.433c0.392-1.171,0.742-2.306,1.051-3.506c0.7-2.479,1.24-5.014,1.618-7.614
		c4.18-30.01,11.109-89.782,11.729-161.499C965.24,327.992,958.311,268.166,954.131,238.198z"/>
	<path fill="#6F6F6E" d="M725.877,414.283l-137.69,100.012c-2.873,2.104-6.309,3.183-9.733,3.183c-2.561,0-5.149-0.621-7.522-1.794
		c-5.541-2.845-9.046-8.561-9.046-14.803V300.896c0-6.255,3.505-11.957,9.046-14.801c5.526-2.817,12.213-2.278,17.255,1.375
		l137.69,99.985c4.301,3.127,6.822,8.116,6.822,13.413C732.699,406.194,730.191,411.154,725.877,414.283z"/>
</g>
</svg>
