<svg xmlns="http://www.w3.org/2000/svg" id="Calque_1" viewBox="0 0 159.2 137">
  <style>
    .st0{opacity:0.38;fill:#E9E9E9;} .st1{opacity:0.39;fill:#D2D2D1;} .st2{opacity:0.16;} .st3{fill:none;stroke:#1C2023;stroke-width:0.8694;stroke-linecap:round;stroke-linejoin:round;stroke-miterlimit:10;} .st4{fill:none;stroke:#1C2023;stroke-width:0.5509;stroke-linecap:round;stroke-linejoin:round;stroke-miterlimit:10;} .st5{fill:none;stroke:#1C2023;stroke-width:0.7343;stroke-linecap:round;stroke-linejoin:round;stroke-miterlimit:10;} .st6{fill:none;stroke:#1C2023;stroke-width:1.0727;stroke-linecap:round;stroke-linejoin:round;stroke-miterlimit:10;} .st7{fill:none;stroke:#1C2023;stroke-width:1.0982;stroke-linecap:round;stroke-linejoin:round;stroke-miterlimit:10;} .st8{fill:none;stroke:#1C2023;stroke-width:0.5632;stroke-linecap:round;stroke-linejoin:round;stroke-miterlimit:10;} .st9{fill:none;stroke:#1C2023;stroke-width:0.5596;stroke-linecap:round;stroke-linejoin:round;stroke-miterlimit:10;} .st10{fill:none;stroke:#1C2023;stroke-width:0.7344;stroke-linecap:round;stroke-linejoin:round;stroke-miterlimit:10;} .st11{fill:none;stroke:#1C2023;stroke-width:0.9131;stroke-linecap:round;stroke-linejoin:round;stroke-miterlimit:10;} .st12{fill:none;stroke:#4D5456;stroke-width:10;stroke-miterlimit:10;} .st13{fill:#313435;} .st14{opacity:0.1;} .st15{fill:#F4F4F4;} .st16{fill:#E8B32E;} .st17{opacity:0.54;fill:#D1991E;} .st18{fill:#2E2014;stroke:#877426;stroke-miterlimit:10;} .st19{opacity:0.37;fill:#313435;}
  </style>
  <ellipse id="XMLID_46_" cx="80.3" cy="70.6" class="st0" rx="79.6" ry="67.1"/>
  <ellipse id="XMLID_130_" cx="76.5" cy="82.5" class="st1" rx="59.3" ry="52.7"/>
  <g id="XMLID_36_" class="st2">
    <path id="XMLID_38_" d="M35.64 23.55l-2.6 1.06L32 22.05l2.58-1.06z" class="st3"/>
    <path id="XMLID_37_" d="M38.3 22.4l1.6 1.2 1.5 1.2-1.8.8-1.8.7.3-1.9z" class="st3"/>
  </g>
  <g id="XMLID_63_" class="st2">
    <path id="XMLID_65_" d="M8.47 39.43l1.63.78-.77 1.65-1.63-.77z" class="st4"/>
    <path id="XMLID_64_" d="M6.8 38.7l-.1-1.3-.1-1.2 1.1.5 1.1.6-1 .7z" class="st4"/>
  </g>
  <g id="XMLID_43_" class="st2">
    <path id="XMLID_50_" d="M31.65 63.13l-.45 2.25-2.26-.45.46-2.26z" class="st5"/>
    <path id="XMLID_48_" d="M32.1 60.7l1.6-.5 1.5-.5-.3 1.6-.3 1.6-1.3-1.1z" class="st5"/>
  </g>
  <g id="XMLID_54_" class="st2">
    <path id="XMLID_56_" d="M8.72 90.24l-2.96-1.67 1.67-2.96 2.96 1.7z" class="st6"/>
    <path id="XMLID_55_" d="M11.8 92l.1 2.4v2.4l-2.1-1.2-2.1-1.2 2.1-1.2z" class="st6"/>
  </g>
  <g id="XMLID_45_" class="st2">
    <path id="XMLID_49_" d="M136.18 87.86l2.47-2.47 2.48 2.44-2.48 2.48z" class="st7"/>
    <path id="XMLID_47_" d="M133.6 90.4l-2.4-.6-2.3-.6 1.7-1.8 1.7-1.7.7 2.4z" class="st7"/>
  </g>
  <g id="XMLID_57_" class="st2">
    <path id="XMLID_59_" d="M157.2 51.15l-1.04-1.47 1.47-1.04 1.04 1.46z" class="st8"/>
    <path id="XMLID_58_" d="M158.3 52.7l-.5 1.1-.6 1.2-.7-1.1-.7-1 1.2-.1z" class="st8"/>
  </g>
  <g id="XMLID_39_" class="st2">
    <path id="XMLID_41_" d="M72.32 3.1l-1.76-.38.4-1.76 1.75.38z" class="st9"/>
    <path id="XMLID_40_" d="M74.2 3.5l.3 1.2.4 1.2-1.2-.2-1.2-.3.8-.9z" class="st9"/>
  </g>
  <g id="XMLID_42_" class="st2">
    <path id="XMLID_52_" d="M123.93 45.97l.3-2.28 2.27.26-.3 2.28z" class="st10"/>
    <path id="XMLID_51_" d="M123.6 48.4l-1.5.6-1.6.6.3-1.6.2-1.6 1.3 1z" class="st10"/>
  </g>
  <g id="XMLID_53_" class="st2">
    <path id="XMLID_61_" d="M108.86 17.86l-2.7 1.1-1.1-2.68 2.7-1.1z" class="st11"/>
    <path id="XMLID_60_" d="M111.7 16.7l1.6 1.2 1.7 1.3-1.9.8-1.9.8.2-2.1z" class="st11"/>
  </g>
  <path id="XMLID_90_" d="M57.2 84.2V41.6c0-11.8 9.5-21.3 21.3-21.3s21.3 9.5 21.3 21.3v17.1" class="st12"/>
  <path id="XMLID_33_" d="M52.2 52.3h10v17.8h-10z" class="st13"/>
  <path id="XMLID_15_" d="M94.8 52.3h10v6.5h-10z" class="st13"/>
  <g id="XMLID_11_" class="st14">
    <path id="XMLID_20_" d="M74.5 25.4c.7 0 1.3.1 2 .1-8 1-14.3 7.9-14.3 16.2v42.6h-4V41.7c0-9 7.3-16.3 16.3-16.3z" class="st15"/>
    <path id="XMLID_27_" d="M76.5 15.4c.7-.1 1.3-.1 2-.1 14.5 0 26.3 11.8 26.3 26.3v22.6h-4V41.7c0-13.9-10.8-25.2-24.3-26.3z" class="st15"/>
  </g>
  <path id="XMLID_35_" d="M104 120.8H52.7c-3.3 0-6-2.7-6-6V73.1c0-3.3 2.7-6 6-6H104c3.3 0 6 2.7 6 6v41.7c0 3.3-2.7 6-6 6z" class="st16"/>
  <path id="XMLID_119_" d="M52.7 120.8H104c3.3 0 6-2.7 6-6V73.1c0-1.6-.6-3-1.7-4.1l-59.7 50.2c1.1.9 2.6 1.6 4.1 1.6z" class="st17"/>
  <path id="XMLID_66_" d="M85.4 87.6c0-3.9-3.1-7-7-7s-7 3.1-7 7c0 2.6 1.4 4.8 3.5 6.1v8.9c0 2 1.6 3.6 3.6 3.6s3.6-1.6 3.6-3.6v-8.9c1.9-1.2 3.3-3.5 3.3-6.1z" class="st18"/>
  <path id="XMLID_120_" d="M52.7 120.8H104c3.3 0 6-2.7 6-6v-1.5c0 3.3-2.7 6-6 6H52.7c-3.3 0-6-2.7-6-6v1.5c.1 3.3 2.8 6 6 6z" class="st19"/>
</svg>
