<?xml version="1.0" encoding="utf-8"?>
<!-- Generator: Adobe Illustrator 19.0.0, SVG Export Plug-In . SVG Version: 6.00 Build 0)  -->
<svg version="1.1" id="Calque_1" xmlns="http://www.w3.org/2000/svg" xmlns:xlink="http://www.w3.org/1999/xlink" x="0px" y="0px"
	 viewBox="0 0 37.6 68.7" style="enable-background:new 0 0 37.6 68.7;" xml:space="preserve">
<style type="text/css">
	.st0{fill:#BEBDBC;}
	.st1{fill:#57514D;}
	.st2{opacity:0.8;fill:#F4F4F4;}
	.st3{fill:none;stroke:#A9A8A6;stroke-width:2;stroke-miterlimit:10;}
	.st4{fill:#FFFFFF;}
</style>
<path id="XMLID_31_" class="st0" d="M19.4,56.8h-1.1c-1.3,0-2.3-1.1-2.3-2.3V38.1c0-1.3,1.1-2.3,2.3-2.3h1.1c1.3,0,2.3,1.1,2.3,2.3
	v16.4C21.7,55.7,20.7,56.8,19.4,56.8z"/>
<path id="XMLID_29_" class="st1" d="M20.3,68.7h-2.9c-2.2,0-3.9-1.8-3.9-3.9V48.1c0-2.2,1.8-3.9,3.9-3.9h2.9c2.2,0,3.9,1.8,3.9,3.9
	v16.7C24.2,67,22.4,68.7,20.3,68.7z"/>
<circle id="XMLID_54_" class="st2" cx="18.8" cy="18.8" r="16.9"/>
<circle id="XMLID_27_" class="st3" cx="18.8" cy="18.8" r="17.8"/>
<path id="XMLID_63_" class="st4" d="M6.7,22.7c0-9.4,7.6-16.9,16.9-16.9c0.4,0,0.8,0,1.1,0.1c-1.7-0.7-3.5-1-5.4-1
	c-8.1,0-14.7,6.6-14.7,14.7c0,3.3,1.1,6.4,3,8.8C7.1,26.6,6.7,24.7,6.7,22.7z"/>
</svg>
