<?xml version="1.0" encoding="utf-8"?>
<!-- Generator: Adobe Illustrator 19.0.0, SVG Export Plug-In . SVG Version: 6.00 Build 0)  -->
<svg version="1.1" id="Calque_1" xmlns="http://www.w3.org/2000/svg" xmlns:xlink="http://www.w3.org/1999/xlink" x="0px" y="0px"
	 viewBox="0 0 168.1 150.7" style="enable-background:new 0 0 168.1 150.7;" xml:space="preserve">
<style type="text/css">
	.st0{fill:#E3E6E8;}
	.st1{fill:#414344;}
	.st2{fill:#C8CACC;}
	.st3{fill:#454647;}
</style>
<path id="XMLID_17_" class="st0" d="M147,150.7H20.9c-2.7,0-5-2.2-5-5v-80c0-2.7,2.2-5,5-5H147c2.7,0,5,2.2,5,5v80
	C152,148.4,149.8,150.7,147,150.7z"/>
<g id="XMLID_51_">
	<path id="XMLID_60_" class="st1" d="M146.7,60.8c-41.8,0-83.6,0-125.5,0c-2.4-0.1-5-2.4-5.9-5C10.3,38.8,5.2,21.9,0.1,5
		c-0.5-2.7,1.4-5,4.1-5c53.2,0,106.5,0,159.7,0c3.1,0.1,4.9,2.4,4.1,5c-5.1,16.9-10.2,33.9-15.3,50.8
		C151.5,58.5,148.8,60.7,146.7,60.8z"/>
</g>
<path id="XMLID_46_" class="st2" d="M100.1,143.3H67.9c-1.4,0-2.5-1.1-2.5-2.5v-20c0-1.4,1.1-2.5,2.5-2.5h32.2
	c1.4,0,2.5,1.1,2.5,2.5v20C102.6,142.2,101.5,143.3,100.1,143.3z"/>
<path id="XMLID_45_" class="st3" d="M136,78.5H32c-1.8,0-3.2-1.5-3.2-3.2v0c0-1.8,1.5-3.2,3.2-3.2h104c1.8,0,3.2,1.5,3.2,3.2v0
	C139.2,77,137.8,78.5,136,78.5z"/>
<path id="XMLID_48_" class="st3" d="M136,88.5H32c-1.8,0-3.2-1.5-3.2-3.2v0c0-1.8,1.5-3.2,3.2-3.2h104c1.8,0,3.2,1.5,3.2,3.2v0
	C139.2,87,137.8,88.5,136,88.5z"/>
<path id="XMLID_49_" class="st3" d="M136,98.5H32c-1.8,0-3.2-1.5-3.2-3.2l0,0c0-1.8,1.5-3.2,3.2-3.2h104c1.8,0,3.2,1.5,3.2,3.2l0,0
	C139.2,97.1,137.8,98.5,136,98.5z"/>
<path id="XMLID_50_" class="st3" d="M136,108.5H32c-1.8,0-3.2-1.5-3.2-3.2v0c0-1.8,1.5-3.2,3.2-3.2h104c1.8,0,3.2,1.5,3.2,3.2v0
	C139.2,107.1,137.8,108.5,136,108.5z"/>
</svg>
