<?xml version="1.0" encoding="utf-8"?>
<!-- Generator: Adobe Illustrator 16.0.0, SVG Export Plug-In . SVG Version: 6.00 Build 0)  -->
<!DOCTYPE svg PUBLIC "-//W3C//DTD SVG 1.1//EN" "http://www.w3.org/Graphics/SVG/1.1/DTD/svg11.dtd">
<svg version="1.1" id="Calque_1" xmlns="http://www.w3.org/2000/svg" xmlns:xlink="http://www.w3.org/1999/xlink" x="0px" y="0px"
	 width="165.677px" height="147.574px" viewBox="0 0 165.677 147.574" enable-background="new 0 0 165.677 147.574"
	 xml:space="preserve">
<g>
	<path fill="#28315C" class="ribbon-1" d="M70.143,130.678L85.36,83.776c0.43-1.32-0.294-2.736-1.614-3.165l-16.734-5.43
		c-1.32-0.429-2.737,0.294-3.165,1.614l-15.218,46.903c-0.566,1.743,0.865,3.484,2.685,3.27l7.319-0.867
		c0.729-0.087,1.46,0.15,2,0.648l5.416,5C67.396,132.992,69.577,132.421,70.143,130.678"/>
	<path fill="#28315C" class="ribbon-2" d="M96.591,130.678L81.374,83.776c-0.429-1.32,0.294-2.736,1.614-3.165l16.734-5.43
		c1.32-0.429,2.736,0.294,3.164,1.614l15.219,46.903c0.566,1.743-0.865,3.484-2.686,3.27l-7.318-0.867
		c-0.729-0.087-1.461,0.15-2,0.648l-5.416,5C99.339,132.992,97.157,132.421,96.591,130.678"/>
</g>
<path fill="#1E4F96" d="M119.162,63.513c0,3.632-4.502,6.508-5.565,9.785c-1.104,3.397,0.811,8.362-1.248,11.189
	c-2.078,2.854-7.405,2.56-10.26,4.638c-2.828,2.057-4.182,7.227-7.578,8.33c-3.276,1.063-7.396-2.288-11.027-2.288
	c-3.632,0-7.751,3.352-11.028,2.288c-3.397-1.104-4.751-6.273-7.578-8.33c-2.855-2.078-8.183-1.783-10.261-4.638
	c-2.057-2.827-0.144-7.793-1.247-11.189c-1.064-3.277-5.566-6.153-5.566-9.785s4.502-6.508,5.566-9.785
	c1.103-3.396-0.81-8.361,1.247-11.188c2.078-2.855,7.406-2.561,10.261-4.638c2.827-2.058,4.181-7.228,7.578-8.331
	c3.277-1.064,7.396,2.288,11.028,2.288c3.632,0,7.751-3.352,11.027-2.288c3.396,1.103,4.75,6.273,7.578,8.331
	c2.855,2.077,8.182,1.782,10.26,4.638c2.059,2.827,0.145,7.793,1.248,11.188C114.66,57.005,119.162,59.881,119.162,63.513"/>
<path fill="none" stroke="#F4F4F4" stroke-miterlimit="10" d="M119.162,63.513c0,3.632-4.502,6.508-5.565,9.785
	c-1.104,3.397,0.811,8.362-1.248,11.189c-2.078,2.854-7.405,2.56-10.26,4.638c-2.828,2.057-4.182,7.227-7.578,8.33
	c-3.276,1.063-7.396-2.288-11.027-2.288c-3.632,0-7.751,3.352-11.028,2.288c-3.397-1.104-4.751-6.273-7.578-8.33
	c-2.855-2.078-8.183-1.783-10.261-4.638c-2.057-2.827-0.144-7.793-1.247-11.189c-1.064-3.277-5.566-6.153-5.566-9.785
	s4.502-6.508,5.566-9.785c1.103-3.396-0.81-8.361,1.247-11.188c2.078-2.855,7.406-2.561,10.261-4.638
	c2.827-2.058,4.181-7.228,7.578-8.331c3.277-1.064,7.396,2.288,11.028,2.288c3.632,0,7.751-3.352,11.027-2.288
	c3.396,1.103,4.75,6.273,7.578,8.331c2.855,2.077,8.182,1.782,10.26,4.638c2.059,2.827,0.145,7.793,1.248,11.188
	C114.66,57.005,119.162,59.881,119.162,63.513z"/>
<path fill="#2F3F89" d="M83.264,86.044c-12.424,0-22.532-10.106-22.532-22.53S70.84,40.982,83.264,40.982
	c12.424,0,22.532,10.108,22.532,22.532S95.688,86.044,83.264,86.044"/>
<path fill="#F4F4F4" d="M83.264,43.482c11.045,0,20.032,8.985,20.032,20.031S94.31,83.544,83.264,83.544
	c-11.046,0-20.032-8.985-20.032-20.031S72.218,43.482,83.264,43.482 M83.264,38.482c-13.825,0-25.032,11.207-25.032,25.031
	s11.207,25.031,25.032,25.031c13.825,0,25.032-11.207,25.032-25.031S97.089,38.482,83.264,38.482"/>
<polygon fill="#00F79E" class="star-inner" points="85.364,64.664 88.515,62.375 84.617,62.375 83.412,58.677 82.22,62.375 78.452,62.375
	81.497,64.617 80.294,68.35 83.45,66.055 86.565,68.35 "/>
<polygon fill="none" stroke="#00F79E" class="star-outer" stroke-linecap="round" stroke-linejoin="round" stroke-miterlimit="10" points="
	85.364,64.664 88.515,62.375 84.617,62.375 83.412,58.677 82.22,62.375 78.452,62.375 81.497,64.617 80.294,68.35 83.45,66.055
	86.565,68.35 "/>
</svg>
