<?xml version="1.0" encoding="utf-8"?>
<!-- Generator: Adobe Illustrator 16.0.0, SVG Export Plug-In . SVG Version: 6.00 Build 0)  -->
<!DOCTYPE svg PUBLIC "-//W3C//DTD SVG 1.1//EN" "http://www.w3.org/Graphics/SVG/1.1/DTD/svg11.dtd">
<svg version="1.1" id="Calque_1" xmlns="http://www.w3.org/2000/svg" xmlns:xlink="http://www.w3.org/1999/xlink" x="0px" y="0px"
	 width="165.677px" height="147.574px" viewBox="0 0 165.677 147.574" enable-background="new 0 0 165.677 147.574"
	 xml:space="preserve">
<g>
	<g opacity="0.44">
		<g>
			<defs>
				<rect id="SVGID_1_" x="3.654" y="7.952" width="159.22" height="134.212"/>
			</defs>
			<clipPath id="SVGID_2_">
				<use xlink:href="#SVGID_1_"  overflow="visible"/>
			</clipPath>
			<path clip-path="url(#SVGID_2_)" class="outer-ring" fill="#F5F5F5" d="M162.874,75.058c0,37.061-35.643,67.105-79.609,67.105
				c-43.968,0-79.61-30.045-79.61-67.105c0-37.062,35.642-67.106,79.61-67.106C127.231,7.952,162.874,37.997,162.874,75.058"/>
		</g>
	</g>
	<g opacity="0.12">
		<g>
			<defs>
				<rect id="SVGID_3_" x="23.999" y="34.291" width="118.53" height="105.408"/>
			</defs>
			<clipPath id="SVGID_4_">
				<use xlink:href="#SVGID_3_"  overflow="visible"/>
			</clipPath>
			<path clip-path="url(#SVGID_4_)" class="inner-ring" fill="#D2D2D1" d="M142.529,86.995c0,29.108-26.534,52.704-59.265,52.704
				C50.533,139.699,24,116.103,24,86.995c0-29.107,26.534-52.704,59.265-52.704C115.995,34.291,142.529,57.887,142.529,86.995"/>
		</g>
	</g>
	<path fill="#28315C" class="ribbon-1" d="M70.143,130.678L85.36,83.776c0.43-1.32-0.294-2.736-1.614-3.165l-16.734-5.43
		c-1.32-0.429-2.737,0.294-3.165,1.614l-15.218,46.903c-0.566,1.743,0.865,3.484,2.685,3.27l7.319-0.867
		c0.729-0.087,1.46,0.15,2,0.648l5.416,5C67.396,132.992,69.577,132.421,70.143,130.678"/>
	<path fill="#28315C" class="ribbon-2" d="M96.591,130.678L81.374,83.776c-0.429-1.32,0.294-2.736,1.614-3.165l16.734-5.43
		c1.32-0.429,2.736,0.294,3.164,1.614l15.219,46.903c0.566,1.743-0.865,3.484-2.686,3.27l-7.318-0.867
		c-0.729-0.087-1.461,0.15-2,0.648l-5.416,5C99.339,132.992,97.157,132.421,96.591,130.678"/>
</g>
<g opacity="0.16">
	<g>
		<defs>
			<rect id="SVGID_5_" x="33.533" y="84.774" width="7.542" height="7.543"/>
		</defs>
		<clipPath id="SVGID_6_">
			<use xlink:href="#SVGID_5_"  overflow="visible"/>
		</clipPath>
		<path class="cross cross-9" clip-path="url(#SVGID_6_)" fill="#28315C" d="M39.338,85.371c-1.753-1.124-4.085-0.614-5.209,1.14
			c-1.124,1.753-0.614,4.085,1.14,5.209c1.753,1.124,4.086,0.614,5.21-1.139C41.603,88.827,41.092,86.495,39.338,85.371
			 M38.489,89.83l-1.053-0.675l-0.673,1.05c-0.132,0.206-0.404,0.267-0.61,0.135c-0.205-0.132-0.264-0.405-0.132-0.61l0.673-1.051
			l-1.051-0.673c-0.205-0.132-0.264-0.405-0.133-0.609c0.132-0.206,0.404-0.265,0.609-0.134l1.051,0.674l0.674-1.052
			c0.132-0.205,0.405-0.264,0.609-0.133c0.206,0.132,0.265,0.404,0.134,0.609l-0.674,1.052l1.052,0.675
			c0.205,0.131,0.265,0.403,0.134,0.609C38.967,89.901,38.694,89.96,38.489,89.83"/>
	</g>
</g>
<path fill="#1E4F96" d="M119.162,63.513c0,3.632-4.502,6.508-5.565,9.785c-1.104,3.397,0.811,8.362-1.248,11.189
	c-2.078,2.854-7.405,2.56-10.26,4.638c-2.828,2.057-4.182,7.227-7.578,8.33c-3.276,1.063-7.396-2.288-11.027-2.288
	c-3.632,0-7.751,3.352-11.028,2.288c-3.397-1.104-4.751-6.273-7.578-8.33c-2.855-2.078-8.183-1.783-10.261-4.638
	c-2.057-2.827-0.144-7.793-1.247-11.189c-1.064-3.277-5.566-6.153-5.566-9.785s4.502-6.508,5.566-9.785
	c1.103-3.396-0.81-8.361,1.247-11.188c2.078-2.855,7.406-2.561,10.261-4.638c2.827-2.058,4.181-7.228,7.578-8.331
	c3.277-1.064,7.396,2.288,11.028,2.288c3.632,0,7.751-3.352,11.027-2.288c3.396,1.103,4.75,6.273,7.578,8.331
	c2.855,2.077,8.182,1.782,10.26,4.638c2.059,2.827,0.145,7.793,1.248,11.188C114.66,57.005,119.162,59.881,119.162,63.513"/>
<path fill="none" stroke="#F4F4F4" stroke-miterlimit="10" d="M119.162,63.513c0,3.632-4.502,6.508-5.565,9.785
	c-1.104,3.397,0.811,8.362-1.248,11.189c-2.078,2.854-7.405,2.56-10.26,4.638c-2.828,2.057-4.182,7.227-7.578,8.33
	c-3.276,1.063-7.396-2.288-11.027-2.288c-3.632,0-7.751,3.352-11.028,2.288c-3.397-1.104-4.751-6.273-7.578-8.33
	c-2.855-2.078-8.183-1.783-10.261-4.638c-2.057-2.827-0.144-7.793-1.247-11.189c-1.064-3.277-5.566-6.153-5.566-9.785
	s4.502-6.508,5.566-9.785c1.103-3.396-0.81-8.361,1.247-11.188c2.078-2.855,7.406-2.561,10.261-4.638
	c2.827-2.058,4.181-7.228,7.578-8.331c3.277-1.064,7.396,2.288,11.028,2.288c3.632,0,7.751-3.352,11.027-2.288
	c3.396,1.103,4.75,6.273,7.578,8.331c2.855,2.077,8.182,1.782,10.26,4.638c2.059,2.827,0.145,7.793,1.248,11.188
	C114.66,57.005,119.162,59.881,119.162,63.513z"/>
<path fill="#2F3F89" d="M83.264,86.044c-12.424,0-22.532-10.106-22.532-22.53S70.84,40.982,83.264,40.982
	c12.424,0,22.532,10.108,22.532,22.532S95.688,86.044,83.264,86.044"/>
<path fill="#F4F4F4" d="M83.264,43.482c11.045,0,20.032,8.985,20.032,20.031S94.31,83.544,83.264,83.544
	c-11.046,0-20.032-8.985-20.032-20.031S72.218,43.482,83.264,43.482 M83.264,38.482c-13.825,0-25.032,11.207-25.032,25.031
	s11.207,25.031,25.032,25.031c13.825,0,25.032-11.207,25.032-25.031S97.089,38.482,83.264,38.482"/>
<polygon fill="#00F79E" class="star-inner" points="85.364,64.664 88.515,62.375 84.617,62.375 83.412,58.677 82.22,62.375 78.452,62.375
	81.497,64.617 80.294,68.35 83.45,66.055 86.565,68.35 "/>
<polygon fill="none" stroke="#00F79E" class="star-outer" stroke-linecap="round" stroke-linejoin="round" stroke-miterlimit="10" points="
	85.364,64.664 88.515,62.375 84.617,62.375 83.412,58.677 82.22,62.375 78.452,62.375 81.497,64.617 80.294,68.35 83.45,66.055
	86.565,68.35 "/>
<g opacity="0.16">
	<g>
		<defs>
			<rect id="SVGID_7_" x="11.38" y="61.724" width="3.579" height="3.579"/>
		</defs>
		<clipPath id="SVGID_8_">
			<use xlink:href="#SVGID_7_"  overflow="visible"/>
		</clipPath>
		<path class="cross cross-1" clip-path="url(#SVGID_8_)" fill="#28315C" d="M14.134,62.007c-0.832-0.532-1.938-0.292-2.471,0.54
			c-0.533,0.832-0.291,1.939,0.54,2.473c0.832,0.532,1.939,0.291,2.472-0.541C15.208,63.647,14.966,62.541,14.134,62.007
			 M13.731,64.123l-0.499-0.32l-0.32,0.498c-0.062,0.099-0.191,0.126-0.289,0.064c-0.097-0.063-0.125-0.192-0.063-0.29l0.319-0.498
			l-0.498-0.319c-0.098-0.062-0.125-0.191-0.063-0.289s0.191-0.126,0.289-0.063l0.498,0.32l0.32-0.499
			c0.063-0.098,0.192-0.125,0.289-0.063c0.098,0.062,0.126,0.191,0.063,0.289l-0.319,0.499l0.499,0.32
			c0.097,0.062,0.126,0.19,0.063,0.289C13.958,64.157,13.829,64.185,13.731,64.123"/>
	</g>
</g>
<g opacity="0.16">
	<g>
		<defs>
			<rect id="SVGID_9_" x="142.388" y="33.838" width="3.982" height="3.981"/>
		</defs>
		<clipPath id="SVGID_10_">
			<use xlink:href="#SVGID_9_"  overflow="visible"/>
		</clipPath>
		<path class="cross cross-2" clip-path="url(#SVGID_10_)" fill="#28315C" d="M145.453,34.153c-0.925-0.594-2.156-0.325-2.749,0.601
			c-0.594,0.926-0.324,2.157,0.601,2.75c0.927,0.593,2.157,0.323,2.75-0.603C146.649,35.977,146.379,34.746,145.453,34.153
			 M145.005,36.506l-0.557-0.356l-0.354,0.554c-0.069,0.109-0.213,0.142-0.321,0.071c-0.108-0.069-0.14-0.213-0.07-0.322
			l0.355-0.554l-0.555-0.356c-0.109-0.068-0.141-0.213-0.07-0.32c0.069-0.109,0.213-0.141,0.321-0.071l0.556,0.356l0.355-0.556
			c0.068-0.109,0.213-0.14,0.32-0.071c0.109,0.07,0.141,0.213,0.071,0.322l-0.356,0.556l0.556,0.355
			c0.108,0.069,0.14,0.213,0.071,0.322C145.257,36.543,145.112,36.575,145.005,36.506"/>
	</g>
</g>
<g opacity="0.16">
	<g>
		<defs>
			<rect id="SVGID_11_" x="146.984" y="59.805" width="3.838" height="3.839"/>
		</defs>
		<clipPath id="SVGID_12_">
			<use xlink:href="#SVGID_11_"  overflow="visible"/>
		</clipPath>
		<path class="cross cross-3" clip-path="url(#SVGID_12_)" fill="#28315C" d="M149.938,60.109c-0.893-0.572-2.079-0.312-2.65,0.58
			c-0.572,0.892-0.312,2.079,0.579,2.65c0.894,0.572,2.08,0.312,2.651-0.579C151.091,61.868,150.83,60.681,149.938,60.109
			 M149.507,62.377l-0.537-0.343l-0.342,0.534c-0.066,0.104-0.205,0.136-0.31,0.068s-0.136-0.205-0.068-0.311l0.343-0.534
			l-0.535-0.343c-0.104-0.066-0.133-0.206-0.067-0.31c0.067-0.105,0.206-0.136,0.31-0.068l0.535,0.343l0.344-0.535
			c0.066-0.104,0.205-0.135,0.31-0.067c0.104,0.066,0.135,0.205,0.067,0.31l-0.342,0.535L149.748,62
			c0.104,0.067,0.136,0.206,0.068,0.311C149.749,62.414,149.61,62.445,149.507,62.377"/>
	</g>
</g>
<g opacity="0.16">
	<g>
		<defs>
			<rect id="SVGID_13_" x="115.163" y="16.526" width="6.133" height="6.132"/>
		</defs>
		<clipPath id="SVGID_14_">
			<use xlink:href="#SVGID_13_"  overflow="visible"/>
		</clipPath>
		<path class="cross cross-4" clip-path="url(#SVGID_14_)" fill="#28315C" d="M119.884,17.011c-1.426-0.914-3.322-0.499-4.234,0.926
			c-0.914,1.426-0.5,3.322,0.926,4.236s3.322,0.499,4.236-0.927C121.726,19.821,121.31,17.925,119.884,17.011 M119.193,20.636
			l-0.856-0.549l-0.547,0.854c-0.107,0.168-0.328,0.217-0.496,0.109c-0.166-0.107-0.215-0.328-0.107-0.496l0.548-0.853l-0.854-0.548
			c-0.168-0.107-0.215-0.329-0.109-0.495c0.107-0.167,0.328-0.216,0.496-0.109l0.854,0.548l0.548-0.855
			c0.107-0.167,0.329-0.215,0.495-0.108c0.168,0.107,0.216,0.328,0.108,0.495l-0.549,0.855l0.856,0.548
			c0.167,0.107,0.216,0.329,0.108,0.496C119.582,20.694,119.359,20.743,119.193,20.636"/>
	</g>
</g>
<g opacity="0.16">
	<g>
		<defs>
			<rect id="SVGID_15_" x="56.572" y="21.021" width="3.321" height="3.274"/>
		</defs>
		<clipPath id="SVGID_16_">
			<use xlink:href="#SVGID_15_"  overflow="visible"/>
		</clipPath>
		<path class="cross cross-5" clip-path="url(#SVGID_16_)" fill="#28315C" d="M59.106,21.294c-0.779-0.5-1.802-0.294-2.285,0.459
			c-0.483,0.753-0.242,1.768,0.537,2.268c0.78,0.5,1.804,0.295,2.286-0.459C60.127,22.809,59.886,21.794,59.106,21.294
			 M58.763,23.223l-0.468-0.3l-0.289,0.451c-0.057,0.088-0.176,0.113-0.268,0.054c-0.091-0.058-0.119-0.177-0.062-0.265l0.289-0.452
			l-0.467-0.299c-0.092-0.059-0.119-0.177-0.063-0.265c0.057-0.089,0.176-0.113,0.267-0.054l0.467,0.3l0.29-0.452
			c0.057-0.088,0.176-0.112,0.267-0.054c0.092,0.059,0.12,0.177,0.063,0.265l-0.29,0.452l0.469,0.3
			c0.091,0.058,0.119,0.177,0.062,0.265C58.974,23.257,58.854,23.281,58.763,23.223"/>
	</g>
</g>
<g opacity="0.16">
	<g>
		<defs>
			<rect id="SVGID_17_" x="27.984" y="27.073" width="5.548" height="5.548"/>
		</defs>
		<clipPath id="SVGID_18_">
			<use xlink:href="#SVGID_17_"  overflow="visible"/>
		</clipPath>
		<path class="cross cross-6" clip-path="url(#SVGID_18_)" fill="#28315C" d="M32.255,27.511c-1.29-0.826-3.005-0.451-3.832,0.838
			c-0.826,1.29-0.451,3.006,0.838,3.832c1.29,0.827,3.006,0.452,3.833-0.838C33.92,30.053,33.544,28.338,32.255,27.511
			 M31.63,30.792l-0.774-0.496l-0.496,0.772c-0.097,0.151-0.296,0.196-0.448,0.099c-0.151-0.097-0.195-0.297-0.098-0.449
			l0.496-0.772l-0.773-0.496c-0.151-0.097-0.195-0.297-0.098-0.448s0.297-0.195,0.448-0.098l0.773,0.496l0.496-0.774
			c0.097-0.151,0.297-0.195,0.448-0.098c0.151,0.097,0.195,0.297,0.098,0.448l-0.496,0.774l0.774,0.496
			c0.151,0.096,0.195,0.297,0.098,0.448C31.982,30.843,31.781,30.888,31.63,30.792"/>
	</g>
</g>
<g opacity="0.16">
	<g>
		<defs>
			<rect id="SVGID_19_" x="136.948" y="92.317" width="6.447" height="6.447"/>
		</defs>
		<clipPath id="SVGID_20_">
			<use xlink:href="#SVGID_19_"  overflow="visible"/>
		</clipPath>
		<path class="cross cross-7" clip-path="url(#SVGID_20_)" fill="#28315C" d="M141.911,92.827c-1.5-0.961-3.492-0.524-4.453,0.975
			s-0.524,3.492,0.974,4.453c1.499,0.961,3.493,0.524,4.454-0.975S143.409,93.787,141.911,92.827 M141.185,96.638l-0.9-0.577
			l-0.574,0.898c-0.113,0.176-0.346,0.228-0.521,0.114c-0.176-0.112-0.227-0.346-0.113-0.521l0.576-0.898l-0.898-0.575
			c-0.176-0.112-0.227-0.346-0.114-0.521c0.112-0.176,0.345-0.228,0.521-0.114l0.898,0.576l0.576-0.899
			c0.113-0.176,0.346-0.226,0.521-0.113s0.226,0.345,0.113,0.52l-0.576,0.9l0.899,0.576c0.175,0.112,0.228,0.345,0.114,0.521
			C141.594,96.699,141.36,96.75,141.185,96.638"/>
	</g>
</g>
<g opacity="0.16">
	<g>
		<defs>
			<rect id="SVGID_21_" x="79.372" y="1.891" width="3.755" height="3.755"/>
		</defs>
		<clipPath id="SVGID_22_">
			<use xlink:href="#SVGID_21_"  overflow="visible"/>
		</clipPath>
		<path class="cross cross-8" clip-path="url(#SVGID_22_)" fill="#28315C" d="M82.263,2.188c-0.873-0.559-2.034-0.305-2.593,0.568
			c-0.56,0.873-0.306,2.034,0.567,2.593c0.873,0.559,2.034,0.305,2.594-0.567C83.39,3.908,83.136,2.748,82.263,2.188 M81.839,4.407
			l-0.524-0.336L80.98,4.594c-0.066,0.102-0.201,0.132-0.304,0.067c-0.102-0.066-0.131-0.202-0.066-0.304l0.335-0.523L80.422,3.5
			c-0.102-0.066-0.131-0.201-0.066-0.303c0.066-0.103,0.201-0.132,0.303-0.067l0.524,0.336l0.335-0.524
			c0.066-0.102,0.201-0.132,0.303-0.066c0.103,0.066,0.132,0.201,0.067,0.303l-0.336,0.524l0.524,0.335
			c0.102,0.066,0.132,0.201,0.066,0.304C82.078,4.442,81.941,4.473,81.839,4.407"/>
	</g>
</g>
</svg>
