<?xml version="1.0" encoding="utf-8"?>
<!-- Generator: Adobe Illustrator 19.0.0, SVG Export Plug-In . SVG Version: 6.00 Build 0)  -->
<svg version="1.1" id="Calque_1" xmlns="http://www.w3.org/2000/svg" xmlns:xlink="http://www.w3.org/1999/xlink" x="0px" y="0px"
	 viewBox="0 0 113.6 147.8" style="enable-background:new 0 0 113.6 147.8;" xml:space="preserve">
<style type="text/css">
	.st0{fill:#FFFFFF;}
	.st1{fill:#F9F9F9;}
	.st2{font-weight:200;}
	.st3{font-size:62px;}
	.st4{font-weight:700;}
	.st5{font-weight:400;}
	.st6{font-weight:900;}
</style>
<path id="XMLID_47_" class="st0" d="M96.1,147.8H2.9c-1.6,0-2.9-1.3-2.9-2.9V20.4c0-1.6,1.3-2.9,2.9-2.9h93.2c1.6,0,2.9,1.3,2.9,2.9
	v124.5C99,146.5,97.7,147.8,96.1,147.8z"/>
<path id="XMLID_53_" class="st1" d="M110.9,130.1l-93,5.8c-1.6,0.1-3-1.1-3.1-2.7L7,8.9c-0.1-1.6,1.1-3,2.7-3.1l93-5.8
	c1.6-0.1,3,1.1,3.1,2.7l7.8,124.3C113.7,128.6,112.5,130,110.9,130.1z"/>
<text id="XMLID_28_" transform="matrix(0.998 -6.257000e-02 6.257000e-02 0.998 25.4338 57.9169)" class="st2 st3">a</text>
<text id="XMLID_61_" transform="matrix(0.998 -6.257000e-02 6.257000e-02 0.998 28.4185 105.5255)" class="st4 st3">a</text>
<text id="XMLID_30_" transform="matrix(0.998 -6.257000e-02 6.257000e-02 0.998 67.1463 55.3018)" class="st5 st3">a</text>
<text id="XMLID_52_" transform="matrix(0.998 -6.257000e-02 6.257000e-02 0.998 70.131 102.9104)" class="st6 st3">a</text>
</svg>
