<?xml version="1.0" encoding="utf-8"?>
<!-- Generator: Adobe Illustrator 19.0.0, SVG Export Plug-In . SVG Version: 6.00 Build 0)  -->
<svg version="1.1" id="Calque_1" xmlns="http://www.w3.org/2000/svg" xmlns:xlink="http://www.w3.org/1999/xlink" x="0px" y="0px"
	 viewBox="0 0 6.3 71.3" style="enable-background:new 0 0 6.3 71.3;" xml:space="preserve">
<style type="text/css">
	.st0{fill:#F9C20F;}
	.st1{fill:#141717;}
	.st2{fill:#F9F8F4;}
	.st3{fill:#EFEAE1;}
	.st4{fill:#111415;}
</style>
<path id="XMLID_20_" class="st0" d="M0,67.4c0,2.1,1.4,3.9,3.1,3.9h0c1.7,0,3.1-1.7,3.1-3.9V7.2L0,7.2L0,67.4"/>
<path id="XMLID_55_" class="st1" d="M6.3,63v5.2c0,1.7-1.4,3.1-3.1,3.1h0c-1.7,0-3.1-1.4-3.1-3.1L0,63c0-0.7,0.6-1.3,1.3-1.3H5
	C5.7,61.7,6.3,62.3,6.3,63z"/>
<rect id="XMLID_56_" x="0" y="61.7" class="st2" width="6.3" height="2.7"/>
<path id="XMLID_57_" class="st3" d="M6,7.6c0.4,0,0.3-0.5,0.2-0.8L3.4,0.2C3.3-0.1,3-0.1,2.8,0.2L0.1,6.8C-0.1,7-0.1,7.6,0.3,7.6
	S5.6,7.6,6,7.6z"/>
<path id="XMLID_22_" class="st4" d="M2.3,1.4H4L3.4,0.2C3.3-0.1,3-0.1,2.8,0.2L2.3,1.4z"/>
</svg>
