<?xml version="1.0" encoding="utf-8"?>
<!-- Generator: Adobe Illustrator 19.0.0, SVG Export Plug-In . SVG Version: 6.00 Build 0)  -->
<svg version="1.1" id="Calque_1" xmlns="http://www.w3.org/2000/svg" xmlns:xlink="http://www.w3.org/1999/xlink" x="0px" y="0px"
	 viewBox="0 0 28.6 28.6" style="enable-background:new 0 0 28.6 28.6;" xml:space="preserve">
<style type="text/css">
	.st0{fill:#FFF198;}
	.st1{opacity:0.35;fill:none;stroke:#9B9284;stroke-width:0.75;stroke-miterlimit:10;}
	.st2{fill:#EAD25E;}
</style>
<path id="XMLID_59_" class="st0" d="M25.6,28.6H3c-1.6,0-3-1.3-3-3V3c0-1.6,1.3-3,3-3h22.6c1.6,0,3,1.3,3,3v22.6
	C28.6,27.2,27.2,28.6,25.6,28.6z"/>
<line id="XMLID_62_" class="st1" x1="3.4" y1="6.6" x2="25.2" y2="6.6"/>
<line id="XMLID_66_" class="st1" x1="3.4" y1="16.6" x2="25.2" y2="16.6"/>
<line id="XMLID_68_" class="st1" x1="3.4" y1="21.6" x2="25.2" y2="21.6"/>
<line id="XMLID_69_" class="st1" x1="3.4" y1="11.6" x2="25.2" y2="11.6"/>
<path id="XMLID_65_" class="st2" d="M24.4,20.4c-1.9,0-3.5,1.6-3.5,3.5v4.7l7.7-8.2H24.4z"/>
</svg>
