<?xml version="1.0" encoding="utf-8"?>
<!-- Generator: Adobe Illustrator 19.0.0, SVG Export Plug-In . SVG Version: 6.00 Build 0)  -->
<svg version="1.1" id="svg-spinner" xmlns="http://www.w3.org/2000/svg" xmlns:xlink="http://www.w3.org/1999/xlink" x="0px"
	 y="0px" viewBox="-179.7 115 52.5 52.5" style="enable-background:new -179.7 115 52.5 52.5;" xml:space="preserve">
<style type="text/css">
	.st0{fill:#FFFFFF;}
</style>
<circle cx="-153.5" cy="141.2" r="26.2"/>
<path class="st0" d="M-147.3,137.4c0-0.7-0.3-1.6-0.9-2.6c-0.5-0.9-1.1-1.5-1.8-2c-0.7-0.5-1.4-0.8-2.2-0.9
	c-0.8-0.2-1.5-0.2-2.4-0.1c-0.8,0.1-1.6,0.3-2.3,0.5c-0.6,0.2-1.1,0.4-1.6,0.6c-0.5,0.2-0.9,0.4-1.2,0.5l5.1,8.9
	c0.1,0,0.3,0,0.6-0.1c0.2-0.1,0.5-0.1,0.8-0.2c0.3-0.1,0.5-0.1,0.8-0.2c0.2-0.1,0.4-0.1,0.5-0.2c0.8-0.2,1.5-0.6,2.2-0.9
	c0.7-0.4,1.2-0.8,1.7-1.4C-147.5,138.8-147.3,138.2-147.3,137.4 M-145.7,128.6c1.5,0.9,2.7,2.4,3.8,4.3c1,1.7,1.5,3.3,1.5,4.7
	c0,1.4-0.3,2.7-1,3.8c-0.7,1.1-1.6,2.1-2.8,2.8c-1.2,0.8-2.6,1.4-4.1,1.9c-0.1,0-0.4,0.1-0.7,0.2c-0.3,0.1-0.7,0.2-1,0.3
	c-0.4,0.1-0.7,0.2-1.1,0.3c-0.4,0.1-0.6,0.1-0.8,0.2l5.5,9.5l-6,1.9l-15.7-27.3c1.1-0.6,2.3-1.2,3.8-1.8c1.4-0.6,2.8-1.1,4.3-1.6
	c1.5-0.5,3.1-0.8,4.8-1.1c1.7-0.3,3.3-0.2,4.9,0C-148.7,127-147.2,127.6-145.7,128.6"/>
</svg>
