<?xml version="1.0" encoding="UTF-8" standalone="no"?>
<svg
   xmlns:dc="http://purl.org/dc/elements/1.1/"
   xmlns:cc="http://creativecommons.org/ns#"
   xmlns:rdf="http://www.w3.org/1999/02/22-rdf-syntax-ns#"
   xmlns:svg="http://www.w3.org/2000/svg"
   xmlns="http://www.w3.org/2000/svg"
   xml:space="preserve"
   enable-background="new -1.989 -1.989 24 24"
   viewBox="0 0 24 24"
   height="24px"
   width="24px"
   y="0px"
   x="0px"
   id="Calque_1"
   version="1.1"><metadata
     id="metadata15"><rdf:RDF><cc:Work
         rdf:about=""><dc:format>image/svg+xml</dc:format><dc:type
           rdf:resource="http://purl.org/dc/dcmitype/StillImage" /><dc:title></dc:title></cc:Work></rdf:RDF></metadata><defs
     id="defs13" /><path
     id="circle3"
     d="M 12.011719,2 C 6.4940882,2 2,6.4940882 2,12.011719 c 0,5.51763 4.4940882,10.011719 10.011719,10.011719 5.51763,0 10.011719,-4.494089 10.011719,-10.011719 C 22.023438,6.4940882 17.529349,2 12.011719,2 Z m 0,2 c 4.43675,0 8.011719,3.5749685 8.011719,8.011719 0,4.43675 -3.574969,8.011719 -8.011719,8.011719 C 7.5749685,20.023438 4,16.448469 4,12.011719 4,7.5749685 7.5749685,4 12.011719,4 Z"
     style="color:#000000;font-style:normal;font-variant:normal;font-weight:normal;font-stretch:normal;font-size:medium;line-height:normal;font-family:sans-serif;text-indent:0;text-align:start;text-decoration:none;text-decoration-line:none;text-decoration-style:solid;text-decoration-color:#000000;letter-spacing:normal;word-spacing:normal;text-transform:none;direction:ltr;block-progression:tb;writing-mode:lr-tb;baseline-shift:baseline;text-anchor:start;white-space:normal;clip-rule:nonzero;display:inline;overflow:visible;visibility:visible;opacity:1;isolation:auto;mix-blend-mode:normal;color-interpolation:sRGB;color-interpolation-filters:linearRGB;solid-color:#000000;solid-opacity:1;fill:#000000;fill-opacity:1;fill-rule:nonzero;stroke:none;stroke-width:2;stroke-linecap:butt;stroke-linejoin:miter;stroke-miterlimit:10;stroke-dasharray:none;stroke-dashoffset:0;stroke-opacity:1;color-rendering:auto;image-rendering:auto;shape-rendering:auto;text-rendering:auto;enable-background:accumulate" /><g
     transform="translate(2,2)"
     style="stroke:#000000;stroke-opacity:1"
     id="g5"><path
       id="line7"
       d="M 6.7597656,5.7578125 A 1.0001,1.0001 0 0 0 6.0625,7.4746094 L 8.5976562,10.011719 6.0625,12.546875 a 1.0001,1.0001 0 1 0 1.4140625,1.414063 l 2.5351565,-2.535157 2.535156,2.53711 a 1.0001,1.0001 0 1 0 1.414063,-1.414063 l -2.535157,-2.537109 2.53711,-2.5371096 A 1.0001,1.0001 0 0 0 13.234375,5.7578125 1.0001,1.0001 0 0 0 12.548828,6.0605469 L 10.011719,8.5976562 7.4765625,6.0605469 A 1.0001,1.0001 0 0 0 6.7597656,5.7578125 Z"
       style="color:#000000;font-style:normal;font-variant:normal;font-weight:normal;font-stretch:normal;font-size:medium;line-height:normal;font-family:sans-serif;text-indent:0;text-align:start;text-decoration:none;text-decoration-line:none;text-decoration-style:solid;text-decoration-color:#000000;letter-spacing:normal;word-spacing:normal;text-transform:none;direction:ltr;block-progression:tb;writing-mode:lr-tb;baseline-shift:baseline;text-anchor:start;white-space:normal;clip-rule:nonzero;display:inline;overflow:visible;visibility:visible;opacity:1;isolation:auto;mix-blend-mode:normal;color-interpolation:sRGB;color-interpolation-filters:linearRGB;solid-color:#000000;solid-opacity:1;fill:#000000;fill-opacity:1;fill-rule:nonzero;stroke:none;stroke-width:2;stroke-linecap:round;stroke-linejoin:miter;stroke-miterlimit:10;stroke-dasharray:none;stroke-dashoffset:0;stroke-opacity:1;color-rendering:auto;image-rendering:auto;shape-rendering:auto;text-rendering:auto;enable-background:accumulate" /></g></svg>