<?xml version="1.0" encoding="utf-8"?>
<!-- Generator: Adobe Illustrator 16.0.0, SVG Export Plug-In . SVG Version: 6.00 Build 0)  -->
<!DOCTYPE svg PUBLIC "-//W3C//DTD SVG 1.1//EN" "http://www.w3.org/Graphics/SVG/1.1/DTD/svg11.dtd">
<svg version="1.1" id="Calque_1" xmlns="http://www.w3.org/2000/svg" xmlns:xlink="http://www.w3.org/1999/xlink" x="0px" y="0px"
	 width="24.895px" height="24.895px" viewBox="0 0 24.895 24.895" enable-background="new 0 0 24.895 24.895" xml:space="preserve">
<g>
	<g>
		<g>
			<path fill="#00E28B" d="M12.448,4.342c4.47,0,8.106,3.636,8.106,8.105s-3.637,8.104-8.106,8.104
				c-4.469,0-8.104-3.636-8.104-8.104C4.343,7.978,7.979,4.342,12.448,4.342 M12.448,1.448c-6.074,0-11,4.925-11,11
				c0,6.074,4.926,11,11,11c6.075,0,11-4.926,11-11C23.448,6.372,18.523,1.448,12.448,1.448L12.448,1.448z"/>
		</g>
	</g>
	<g>
		<path fill="#00E28B" d="M2.054,15.104C1.886,10.939,4.137,8.813,7.01,8.813c1.75,0,3.083,0.541,5.875,1.874
			c2.124,1,3.665,1.75,5.207,1.75c1.499,0,2.208-1.207,2.249-3.499h2.5c0.208,4.666-2.209,6.291-4.789,6.291
			c-1.668,0-3.167-0.501-6.042-1.834c-1.957-0.958-3.499-1.833-5-1.833c-1.499,0-2.415,1.041-2.498,3.541L2.054,15.104L2.054,15.104
			z"/>
	</g>
</g>
</svg>
