<?xml version="1.0" encoding="utf-8"?>
<!-- Generator: Adobe Illustrator 16.0.0, SVG Export Plug-In . SVG Version: 6.00 Build 0)  -->
<!DOCTYPE svg PUBLIC "-//W3C//DTD SVG 1.1//EN" "http://www.w3.org/Graphics/SVG/1.1/DTD/svg11.dtd">
<svg version="1.1" id="Calque_1" xmlns="http://www.w3.org/2000/svg" xmlns:xlink="http://www.w3.org/1999/xlink" x="0px" y="0px"
	 width="24.895px" height="24.895px" viewBox="0 0 24.895 24.895" enable-background="new 0 0 24.895 24.895" xml:space="preserve">
<g>
	<g>
		<g>
			<path fill="#F5E462" d="M12.447,4.342c4.469,0,8.106,3.636,8.106,8.105c0,4.47-3.637,8.105-8.106,8.105s-8.105-3.636-8.105-8.105
				C4.342,7.978,7.978,4.342,12.447,4.342 M12.447,1.447c-6.075,0-11,4.925-11,11s4.925,11,11,11c6.075,0,11-4.925,11-11
				S18.522,1.447,12.447,1.447L12.447,1.447z"/>
		</g>
	</g>
	<g>
		<g>
			<path fill="#F5E462" d="M12.447,10.752c0.935,0,1.696,0.761,1.696,1.695s-0.761,1.695-1.696,1.695
				c-0.935,0-1.695-0.761-1.695-1.695S11.513,10.752,12.447,10.752 M12.447,7.857c-2.535,0-4.59,2.055-4.59,4.59
				c0,2.535,2.055,4.59,4.59,4.59s4.59-2.055,4.59-4.59C17.038,9.913,14.982,7.857,12.447,7.857L12.447,7.857z"/>
		</g>
	</g>
</g>
</svg>
